<svg width="30" height="30" viewBox="0 0 30 30" fill="none" xmlns="http://www.w3.org/2000/svg">
<path d="M21.3882 21.3772C19.5637 23.2017 16.8836 23.7483 14.2613 23.0701L18.4191 18.9123C19.077 19.1587 19.8467 19.0189 20.3758 18.4896C21.098 17.7674 21.098 16.5952 20.3758 15.8728C19.6536 15.1504 18.4819 15.1504 17.759 15.873C17.2297 16.4023 17.0899 17.1721 17.3361 17.8302L12.6659 22.5003C11.8057 22.1047 10.9734 21.5717 10.203 20.9028L21.9673 9.24178C22.6257 9.48769 23.3954 9.34793 23.9245 8.81856C24.6466 8.09635 24.6466 6.9242 23.9245 6.20199C23.2018 5.47954 22.0301 5.47954 21.3077 6.20199C20.7786 6.73088 20.6385 7.50076 20.8845 8.15917L9.11929 19.8214C8.44992 19.0529 7.91568 18.2217 7.5193 17.3612L12.1935 12.6872C12.8515 12.9331 13.6212 12.7933 14.1505 12.2642C14.8729 11.5415 14.8729 10.3701 14.1505 9.64741C13.4275 8.92501 12.2564 8.92501 11.5337 9.64741C11.0048 10.177 10.8646 10.9462 11.1108 11.6046L6.94902 15.7664C6.26407 13.1233 6.81754 10.4144 8.65074 8.58122C11.6169 5.61502 -0.780588 14.1659 6.0408 22.9886C14.0908 33.401 24.3544 18.411 21.3882 21.3772Z" fill="#FF3B00"/>
<path d="M27.9532 7.43963L23.482 11.9106C23.8336 12.8743 24.0249 13.9147 24.0249 15.0002C24.0249 19.9847 19.9845 24.0254 14.9997 24.0254C10.0152 24.0254 5.97477 19.9847 5.97477 15.0002C5.97477 10.0155 10.0152 5.97477 14.9997 5.97477C16.1266 5.97477 17.204 6.18318 18.1982 6.56009L22.6556 2.10131C20.414 0.767976 17.7972 0 14.9997 0C6.71543 0 0 6.71572 0 15.0002C0 23.2843 6.71548 30 14.9997 30C23.284 30 30 23.2843 30 15.0002C30 12.2422 29.252 9.65976 27.9532 7.43963Z" fill="#FF3B00"/>
</svg>
