<svg width="34" height="38" viewBox="0 0 34 38" fill="none" xmlns="http://www.w3.org/2000/svg">
<path d="M11.5442 25.8282C11.5442 25.6958 11.5968 25.5689 11.6904 25.4753C11.784 25.3817 11.9109 25.3291 12.0433 25.3291H18.6005C18.7328 25.3291 18.8598 25.3817 18.9534 25.4753C19.047 25.5689 19.0995 25.6958 19.0995 25.8282C19.0995 25.9605 19.047 26.0875 18.9534 26.1811C18.8598 26.2747 18.7328 26.3272 18.6005 26.3272H12.0433C11.9109 26.3272 11.784 26.2747 11.6904 26.1811C11.5968 26.0875 11.5442 25.9605 11.5442 25.8282ZM12.0433 28.7372H17.5515C17.6175 28.7381 17.6831 28.7258 17.7444 28.7011C17.8056 28.6764 17.8614 28.6397 17.9084 28.5933C17.9554 28.5469 17.9927 28.4916 18.0182 28.4306C18.0437 28.3697 18.0568 28.3043 18.0568 28.2382C18.0568 28.1722 18.0437 28.1068 18.0182 28.0458C17.9927 27.9848 17.9554 27.9296 17.9084 27.8831C17.8614 27.8367 17.8056 27.8001 17.7444 27.7754C17.6831 27.7507 17.6175 27.7384 17.5515 27.7392H12.0433C11.9772 27.7384 11.9117 27.7507 11.8504 27.7754C11.7891 27.8001 11.7334 27.8367 11.6864 27.8831C11.6394 27.9296 11.602 27.9848 11.5766 28.0458C11.5511 28.1068 11.538 28.1722 11.538 28.2382C11.538 28.3043 11.5511 28.3697 11.5766 28.4306C11.602 28.4916 11.6394 28.5469 11.6864 28.5933C11.7334 28.6397 11.7891 28.6764 11.8504 28.7011C11.9117 28.7258 11.9772 28.7381 12.0433 28.7372ZM10.3539 24.6935C10.4022 24.7378 10.4413 24.7911 10.469 24.8505C10.4967 24.9099 10.5124 24.9742 10.5153 25.0397C10.5181 25.1052 10.508 25.1706 10.4856 25.2321C10.4632 25.2937 10.4288 25.3503 10.3845 25.3986L9.93875 25.885C10.2815 26.4956 10.3834 27.2123 10.2246 27.8943C10.0658 28.5762 9.65762 29.1741 9.08039 29.5705C8.50316 29.9668 7.79857 30.133 7.10507 30.0363C6.41157 29.9396 5.7793 29.587 5.33251 29.0479C4.88572 28.5088 4.65672 27.822 4.6905 27.1226C4.72428 26.4232 5.0184 25.7617 5.51506 25.2682C6.01173 24.7746 6.67503 24.4846 7.37462 24.4552C8.07421 24.4258 8.75951 24.6591 9.29586 25.1092L9.64883 24.7241C9.73825 24.6265 9.86277 24.5685 9.99499 24.5627C10.1272 24.5569 10.2563 24.6039 10.3539 24.6933V24.6935ZM9.20625 26.684L7.97453 28.0278C7.8955 28.114 7.78868 28.1698 7.67272 28.1853C7.55677 28.2008 7.43906 28.175 7.34016 28.1126L6.29945 27.4552C6.1896 27.3836 6.11233 27.2716 6.08438 27.1435C6.05642 27.0154 6.08001 26.8814 6.15004 26.7706C6.22008 26.6597 6.33094 26.5809 6.45865 26.5511C6.58636 26.5213 6.72066 26.543 6.8325 26.6115L7.52055 27.0461L8.6207 25.8458C8.28231 25.5762 7.85813 25.4375 7.42583 25.4551C6.99352 25.4727 6.58201 25.6454 6.26662 25.9416C5.95123 26.2378 5.75308 26.6376 5.70842 27.068C5.66377 27.4983 5.77561 27.9304 6.02347 28.285C6.27132 28.6396 6.63862 28.8931 7.0581 28.9991C7.47759 29.1051 7.92121 29.0564 8.30775 28.862C8.69429 28.6676 8.99788 28.3405 9.16295 27.9406C9.32803 27.5406 9.34354 27.0946 9.20664 26.6842L9.20625 26.684ZM12.0433 18.7844H19.6214C19.7538 18.7844 19.8807 18.7318 19.9743 18.6382C20.0679 18.5446 20.1205 18.4176 20.1205 18.2853C20.1205 18.1529 20.0679 18.026 19.9743 17.9324C19.8807 17.8388 19.7538 17.7862 19.6214 17.7862H12.0433C11.9109 17.7862 11.784 17.8388 11.6904 17.9324C11.5968 18.026 11.5442 18.1529 11.5442 18.2853C11.5442 18.4176 11.5968 18.5446 11.6904 18.6382C11.784 18.7318 11.9109 18.7844 12.0433 18.7844ZM12.0433 21.1944H22.1766C22.2426 21.1952 22.3082 21.1829 22.3695 21.1582C22.4307 21.1335 22.4865 21.0968 22.5335 21.0504C22.5805 21.004 22.6178 20.9487 22.6433 20.8878C22.6688 20.8268 22.6819 20.7614 22.6819 20.6953C22.6819 20.6293 22.6688 20.5639 22.6433 20.5029C22.6178 20.442 22.5805 20.3867 22.5335 20.3402C22.4865 20.2938 22.4307 20.2572 22.3695 20.2325C22.3082 20.2078 22.2426 20.1955 22.1766 20.1963H12.0433C11.9772 20.1955 11.9117 20.2078 11.8504 20.2325C11.7891 20.2572 11.7334 20.2938 11.6864 20.3402C11.6394 20.3867 11.602 20.442 11.5766 20.5029C11.5511 20.5639 11.538 20.6293 11.538 20.6953C11.538 20.7614 11.5511 20.8268 11.5766 20.8878C11.602 20.9487 11.6394 21.004 11.6864 21.0504C11.7334 21.0968 11.7891 21.1335 11.8504 21.1582C11.9117 21.1829 11.9772 21.1952 12.0433 21.1944ZM10.3539 17.1506C10.4022 17.1949 10.4413 17.2482 10.469 17.3077C10.4967 17.3671 10.5124 17.4313 10.5153 17.4968C10.5181 17.5623 10.508 17.6277 10.4856 17.6892C10.4632 17.7508 10.4288 17.8074 10.3845 17.8557L9.93875 18.3421C10.2815 18.9527 10.3834 19.6694 10.2246 20.3514C10.0658 21.0333 9.65762 21.6312 9.08039 22.0276C8.50316 22.424 7.79857 22.5901 7.10507 22.4934C6.41157 22.3967 5.7793 22.0442 5.33251 21.505C4.88572 20.9659 4.65672 20.2791 4.6905 19.5797C4.72428 18.8803 5.0184 18.2189 5.51506 17.7253C6.01173 17.2317 6.67503 16.9417 7.37462 16.9123C8.07421 16.8829 8.75951 17.1162 9.29586 17.5663L9.64883 17.1812C9.6931 17.1329 9.74646 17.0938 9.80585 17.0661C9.86525 17.0384 9.92952 17.0226 9.99499 17.0198C10.0605 17.0169 10.1259 17.027 10.1874 17.0494C10.249 17.0718 10.3056 17.1062 10.3539 17.1504V17.1506ZM9.20625 19.1407L7.97453 20.4844C7.8955 20.5707 7.78868 20.6264 7.67272 20.6419C7.55677 20.6574 7.43906 20.6317 7.34016 20.5692L6.29945 19.9119C6.1896 19.8403 6.11233 19.7284 6.08438 19.6002C6.05642 19.4721 6.08001 19.3382 6.15004 19.2273C6.22008 19.1164 6.33094 19.0376 6.45865 19.0078C6.58636 18.978 6.72066 18.9997 6.8325 19.0682L7.52055 19.5028L8.6207 18.3026C8.28231 18.0329 7.85813 17.8942 7.42583 17.9118C6.99352 17.9294 6.58201 18.1021 6.26662 18.3983C5.95123 18.6945 5.75308 19.0943 5.70842 19.5247C5.66377 19.9551 5.77561 20.3871 6.02347 20.7417C6.27132 21.0964 6.63862 21.3499 7.0581 21.4558C7.47759 21.5618 7.92121 21.5131 8.30775 21.3187C8.69429 21.1243 8.99788 20.7972 9.16295 20.3973C9.32803 19.9974 9.34354 19.5514 9.20664 19.1409L9.20625 19.1407ZM12.0433 11.241H22.1766C22.3089 11.241 22.4359 11.1884 22.5295 11.0948C22.623 11.0012 22.6756 10.8743 22.6756 10.7419C22.6756 10.6096 22.623 10.4826 22.5295 10.389C22.4359 10.2954 22.3089 10.2429 22.1766 10.2429H12.0433C11.9109 10.2429 11.784 10.2954 11.6904 10.389C11.5968 10.4826 11.5442 10.6096 11.5442 10.7419C11.5442 10.8743 11.5968 11.0012 11.6904 11.0948C11.784 11.1884 11.9109 11.241 12.0433 11.241ZM12.0433 13.651H22.1766C22.2426 13.6518 22.3082 13.6395 22.3695 13.6148C22.4307 13.5901 22.4865 13.5535 22.5335 13.5071C22.5805 13.4606 22.6178 13.4053 22.6433 13.3444C22.6688 13.2834 22.6819 13.218 22.6819 13.152C22.6819 13.0859 22.6688 13.0205 22.6433 12.9595C22.6178 12.8986 22.5805 12.8433 22.5335 12.7969C22.4865 12.7505 22.4307 12.7138 22.3695 12.6891C22.3082 12.6644 22.2426 12.6521 22.1766 12.6529H12.0433C11.9772 12.6521 11.9117 12.6644 11.8504 12.6891C11.7891 12.7138 11.7334 12.7505 11.6864 12.7969C11.6394 12.8433 11.602 12.8986 11.5766 12.9595C11.5511 13.0205 11.538 13.0859 11.538 13.152C11.538 13.218 11.5511 13.2834 11.5766 13.3444C11.602 13.4053 11.6394 13.4606 11.6864 13.5071C11.7334 13.5535 11.7891 13.5901 11.8504 13.6148C11.9117 13.6395 11.9772 13.6518 12.0433 13.651ZM7.49711 9.36646C8.15536 9.36591 8.79255 9.59839 9.29578 10.0227L9.64883 9.63763C9.73867 9.54166 9.86275 9.485 9.99411 9.47998C10.1255 9.47496 10.2535 9.52197 10.3504 9.61081C10.4473 9.69965 10.5053 9.82313 10.5117 9.95444C10.518 10.0857 10.4724 10.2143 10.3845 10.3121L9.93875 10.7985C10.2388 11.3348 10.354 11.955 10.2666 12.5632C10.1792 13.1715 9.89395 13.7341 9.45499 14.1642C9.01604 14.5943 8.44773 14.868 7.83778 14.943C7.22784 15.018 6.61016 14.8901 6.08009 14.5792C5.55002 14.2682 5.13703 13.7915 4.90484 13.2225C4.67266 12.6535 4.6342 12.0239 4.7954 11.4309C4.95659 10.8379 5.30849 10.3144 5.79677 9.94125C6.28505 9.5681 6.88257 9.36603 7.49711 9.36623V9.36646ZM6.14406 11.6805C6.17904 11.6251 6.2246 11.5771 6.27814 11.5393C6.33168 11.5015 6.39214 11.4746 6.45607 11.4601C6.52 11.4457 6.58615 11.444 6.65074 11.4551C6.71533 11.4663 6.77709 11.49 6.8325 11.5251L7.52055 11.9597L8.6207 10.7594C8.28231 10.4898 7.85813 10.3511 7.42583 10.3687C6.99352 10.3863 6.58201 10.559 6.26662 10.8552C5.95123 11.1513 5.75308 11.5512 5.70842 11.9816C5.66377 12.4119 5.77561 12.844 6.02347 13.1986C6.27132 13.5532 6.63862 13.8067 7.0581 13.9127C7.47759 14.0187 7.92121 13.97 8.30775 13.7756C8.69429 13.5812 8.99788 13.2541 9.16295 12.8542C9.32803 12.4542 9.34354 12.0082 9.20664 11.5978L7.97492 12.9415C7.89589 13.0278 7.78907 13.0835 7.67312 13.099C7.55716 13.1145 7.43945 13.0888 7.34055 13.0263L6.29984 12.369C6.18794 12.2984 6.10866 12.1862 6.07944 12.0572C6.05023 11.9281 6.07347 11.7927 6.14406 11.6808V11.6805ZM33.6655 30.4015C33.6662 31.7647 33.2875 33.1012 32.5717 34.2615C31.8559 35.4217 30.8314 36.3599 29.6128 36.9709C28.3942 37.582 27.0295 37.8419 25.6716 37.7214C24.3137 37.601 23.0161 37.1051 21.924 36.2891H3.6225C2.75064 36.2881 1.91477 35.9414 1.29827 35.3249C0.681766 34.7084 0.334977 33.8725 0.333984 33.0007V6.63217C0.335018 5.76033 0.681823 4.9245 1.29832 4.30803C1.91482 3.69156 2.75066 3.3448 3.6225 3.34381H8.32047V2.83388C8.32047 2.76835 8.33338 2.70346 8.35846 2.64291C8.38354 2.58237 8.4203 2.52736 8.46665 2.48102C8.51299 2.43469 8.56801 2.39793 8.62856 2.37286C8.6891 2.34779 8.754 2.33489 8.81953 2.3349H11.3097C11.4312 1.74598 11.7522 1.21701 12.2184 0.837201C12.6846 0.457394 13.2675 0.25 13.8689 0.25C14.4702 0.25 15.0531 0.457394 15.5193 0.837201C15.9855 1.21701 16.3065 1.74598 16.428 2.3349H18.9182C18.9837 2.33489 19.0486 2.34779 19.1092 2.37286C19.1697 2.39793 19.2247 2.43469 19.2711 2.48102C19.3174 2.52736 19.3542 2.58237 19.3793 2.64291C19.4044 2.70346 19.4173 2.76835 19.4173 2.83388V3.34381H24.1153C24.9872 3.3448 25.823 3.69158 26.4395 4.30806C27.056 4.92455 27.4028 5.7604 27.4038 6.63224V9.92795L29.4841 7.96435C29.7048 7.75665 29.9988 7.64494 30.3016 7.65373C30.6045 7.66252 30.8916 7.79108 31.0998 8.01123L32.117 9.08857C32.3245 9.30924 32.4362 9.6032 32.4274 9.90603C32.4186 10.2089 32.2901 10.4959 32.0701 10.7041L27.4038 15.1088V23.1333C29.1442 23.396 30.7328 24.2736 31.8816 25.607C33.0304 26.9405 33.6633 28.6414 33.6655 30.4015ZM26.406 16.0509L25.4515 16.9516V23.104C25.7387 23.0701 26.0277 23.053 26.3169 23.0529C26.3466 23.0529 26.3761 23.0536 26.4057 23.054L26.406 16.0509ZM8.32047 6.79967V6.29412H3.62258C3.53326 6.29525 3.44792 6.33123 3.38474 6.39437C3.32156 6.45752 3.28555 6.54285 3.28438 6.63217V33.0005C3.28553 33.0899 3.32153 33.1752 3.38471 33.2384C3.44789 33.3016 3.53324 33.3376 3.62258 33.3387H19.5816C19.1572 32.3663 18.9485 31.3136 18.9698 30.2529C18.991 29.1922 19.2417 28.1486 19.7047 27.194C20.1676 26.2394 20.8318 25.3964 21.6515 24.7229C22.4713 24.0494 23.4271 23.5614 24.4534 23.2925V17.7048L21.8284 18.3276C21.7432 18.3478 21.6542 18.3452 21.5702 18.3201C21.4863 18.295 21.4105 18.2483 21.3503 18.1846C21.2902 18.1209 21.2479 18.0425 21.2277 17.9572C21.2075 17.872 21.2101 17.783 21.2352 17.699L21.6419 16.3392C21.6439 16.3323 21.6461 16.3254 21.6485 16.3186L22.1021 15.0105L22.1059 14.9997C22.1337 14.9245 22.1793 14.857 22.2388 14.8032L24.4534 12.7127V6.63217C24.4523 6.54285 24.4163 6.45752 24.3531 6.39437C24.2899 6.33123 24.2046 6.29525 24.1152 6.29412H19.4173V6.79967C19.4173 6.93203 19.3647 7.05896 19.2711 7.15256C19.1775 7.24615 19.0506 7.29873 18.9182 7.29873H8.81953C8.68717 7.29873 8.56023 7.24615 8.46664 7.15256C8.37305 7.05896 8.32047 6.93203 8.32047 6.79967ZM22.5952 16.6356L22.439 17.1569L23.5188 16.9007L22.7759 16.1136L22.5952 16.6356ZM23.2798 15.193L24.4958 16.4812L31.3849 9.97834C31.4124 9.95174 31.4284 9.91544 31.4295 9.8772C31.4306 9.83896 31.4168 9.8018 31.3909 9.77365L30.3737 8.69599C30.347 8.66855 30.3107 8.65258 30.2725 8.65148C30.2343 8.65039 30.1971 8.66426 30.169 8.69013L23.2798 15.193ZM19.4173 4.34146V5.29599H24.1152C24.4694 5.29645 24.8089 5.43734 25.0594 5.68778C25.3098 5.93822 25.4507 6.27776 25.4512 6.63193V11.7704L26.406 10.87V6.63217C26.4053 6.02493 26.1638 5.44277 25.7344 5.0134C25.305 4.58402 24.7229 4.34251 24.1156 4.34185L19.4173 4.34146ZM9.31859 6.3006H18.4191V3.33295H15.983C15.8519 3.33296 15.726 3.28132 15.6326 3.18921C15.5392 3.0971 15.4858 2.97192 15.4841 2.84076C15.4782 2.41628 15.3054 2.0112 15.0031 1.71311C14.7009 1.41503 14.2934 1.24791 13.8689 1.24791C13.4444 1.24791 13.0369 1.41503 12.7347 1.71311C12.4324 2.0112 12.2597 2.41628 12.2538 2.84076C12.252 2.97192 12.1986 3.0971 12.1052 3.18921C12.0118 3.28132 11.8859 3.33296 11.7548 3.33295H9.31859V6.3006ZM3.6225 35.2909H20.8362C20.5699 34.993 20.3282 34.6739 20.1135 34.3369H3.62258C3.26835 34.3365 2.92874 34.1956 2.67822 33.9452C2.42771 33.6947 2.28675 33.3551 2.28625 33.0009V6.63217C2.28673 6.27793 2.42768 5.93835 2.6782 5.6879C2.92872 5.43746 3.26834 5.2966 3.62258 5.29623H8.32047V4.34185H3.6225C3.01527 4.34251 2.43309 4.58402 2.00371 5.0134C1.57432 5.44277 1.33279 6.02493 1.33211 6.63217V33.0006C1.33279 33.6078 1.57432 34.19 2.00371 34.6194C2.43309 35.0487 3.01527 35.2903 3.6225 35.2909ZM32.6674 30.4015C32.6674 29.1454 32.295 27.9176 31.5972 26.8733C30.8994 25.8289 29.9076 25.0149 28.7472 24.5343C27.5868 24.0536 26.3099 23.9278 25.078 24.1729C23.8461 24.4179 22.7145 25.0227 21.8264 25.9108C20.9382 26.799 20.3334 27.9305 20.0884 29.1624C19.8433 30.3943 19.9691 31.6712 20.4497 32.8316C20.9304 33.992 21.7444 34.9839 22.7887 35.6817C23.833 36.3795 25.0609 36.7519 26.3169 36.7519C28.0005 36.75 29.6147 36.0804 30.8053 34.8898C31.9958 33.6993 32.6655 32.0851 32.6674 30.4015ZM29.0205 27.9819L25.4848 31.839L23.5119 30.5928C23.4 30.5243 23.2657 30.5026 23.138 30.5324C23.0103 30.5622 22.8995 30.641 22.8294 30.7519C22.7594 30.8628 22.7358 30.9967 22.7638 31.1249C22.7917 31.253 22.869 31.3649 22.9788 31.4365L25.3045 32.9053C25.4034 32.9678 25.5211 32.9935 25.637 32.978C25.753 32.9625 25.8598 32.9068 25.9388 32.8205L29.7563 28.6563C29.8005 28.608 29.8349 28.5514 29.8573 28.4899C29.8797 28.4283 29.8898 28.3629 29.8869 28.2974C29.8841 28.232 29.8684 28.1677 29.8407 28.1083C29.813 28.0489 29.7739 27.9955 29.7256 27.9513C29.6773 27.907 29.6207 27.8727 29.5592 27.8502C29.4976 27.8278 29.4322 27.8177 29.3667 27.8206C29.3012 27.8234 29.237 27.8391 29.1776 27.8668C29.1182 27.8945 29.0648 27.9336 29.0205 27.9819Z" fill="#FF3B00"/>
</svg>
