<svg width="187" height="38" viewBox="0 0 187 38" fill="none" xmlns="http://www.w3.org/2000/svg">
<path d="M21.3882 25.3772C19.5637 27.2017 16.8836 27.7483 14.2613 27.0701L18.4191 22.9123C19.077 23.1587 19.8467 23.0189 20.3758 22.4896C21.098 21.7674 21.098 20.5952 20.3758 19.8728C19.6536 19.1504 18.4819 19.1504 17.759 19.873C17.2297 20.4023 17.0899 21.1721 17.3361 21.8302L12.6659 26.5003C11.8057 26.1047 10.9734 25.5717 10.203 24.9028L21.9673 13.2418C22.6257 13.4877 23.3954 13.3479 23.9245 12.8186C24.6466 12.0964 24.6466 10.9242 23.9245 10.202C23.2018 9.47954 22.0301 9.47954 21.3077 10.202C20.7786 10.7309 20.6385 11.5008 20.8845 12.1592L9.11929 23.8214C8.44992 23.0529 7.91568 22.2217 7.5193 21.3612L12.1935 16.6872C12.8515 16.9331 13.6212 16.7933 14.1505 16.2642C14.8729 15.5415 14.8729 14.3701 14.1505 13.6474C13.4275 12.925 12.2564 12.925 11.5337 13.6474C11.0048 14.177 10.8646 14.9462 11.1108 15.6046L6.94902 19.7664C6.26407 17.1233 6.81754 14.4144 8.65074 12.5812C11.6169 9.61502 -0.780588 18.1659 6.0408 26.9886C14.0908 37.401 24.3544 22.411 21.3882 25.3772Z" fill="#FFAA17"/>
<path d="M27.9532 11.4396L23.482 15.9106C23.8336 16.8743 24.0249 17.9147 24.0249 19.0002C24.0249 23.9847 19.9845 28.0254 14.9997 28.0254C10.0152 28.0254 5.97477 23.9847 5.97477 19.0002C5.97477 14.0155 10.0152 9.97477 14.9997 9.97477C16.1266 9.97477 17.204 10.1832 18.1982 10.5601L22.6556 6.10131C20.414 4.76798 17.7972 4 14.9997 4C6.71543 4 0 10.7157 0 19.0002C0 27.2843 6.71548 34 14.9997 34C23.284 34 30 27.2843 30 19.0002C30 16.2422 29.252 13.6598 27.9532 11.4396Z" fill="#FFAA17"/>
<path d="M57.01 7.94V12.05H51.43V29H46.3V12.05H40.72V7.94H57.01ZM74.8246 20.36C74.8246 20.84 74.7946 21.34 74.7346 21.86H63.1246C63.2046 22.9 63.5346 23.7 64.1146 24.26C64.7146 24.8 65.4446 25.07 66.3046 25.07C67.5846 25.07 68.4746 24.53 68.9746 23.45H74.4346C74.1546 24.55 73.6446 25.54 72.9046 26.42C72.1846 27.3 71.2746 27.99 70.1746 28.49C69.0746 28.99 67.8446 29.24 66.4846 29.24C64.8446 29.24 63.3846 28.89 62.1046 28.19C60.8246 27.49 59.8246 26.49 59.1046 25.19C58.3846 23.89 58.0246 22.37 58.0246 20.63C58.0246 18.89 58.3746 17.37 59.0746 16.07C59.7946 14.77 60.7946 13.77 62.0746 13.07C63.3546 12.37 64.8246 12.02 66.4846 12.02C68.1046 12.02 69.5446 12.36 70.8046 13.04C72.0646 13.72 73.0446 14.69 73.7446 15.95C74.4646 17.21 74.8246 18.68 74.8246 20.36ZM69.5746 19.01C69.5746 18.13 69.2746 17.43 68.6746 16.91C68.0746 16.39 67.3246 16.13 66.4246 16.13C65.5646 16.13 64.8346 16.38 64.2346 16.88C63.6546 17.38 63.2946 18.09 63.1546 19.01H69.5746ZM75.9709 20.63C75.9709 18.89 76.3209 17.37 77.0209 16.07C77.7409 14.77 78.7309 13.77 79.9909 13.07C81.2709 12.37 82.7309 12.02 84.3709 12.02C86.4709 12.02 88.2209 12.57 89.6209 13.67C91.0409 14.77 91.9709 16.32 92.4109 18.32H86.9509C86.4909 17.04 85.6009 16.4 84.2809 16.4C83.3409 16.4 82.5909 16.77 82.0309 17.51C81.4709 18.23 81.1909 19.27 81.1909 20.63C81.1909 21.99 81.4709 23.04 82.0309 23.78C82.5909 24.5 83.3409 24.86 84.2809 24.86C85.6009 24.86 86.4909 24.22 86.9509 22.94H92.4109C91.9709 24.9 91.0409 26.44 89.6209 27.56C88.2009 28.68 86.4509 29.24 84.3709 29.24C82.7309 29.24 81.2709 28.89 79.9909 28.19C78.7309 27.49 77.7409 26.49 77.0209 25.19C76.3209 23.89 75.9709 22.37 75.9709 20.63ZM104.905 12.08C106.825 12.08 108.365 12.72 109.525 14C110.685 15.26 111.265 17 111.265 19.22V29H106.165V19.91C106.165 18.79 105.875 17.92 105.295 17.3C104.715 16.68 103.935 16.37 102.955 16.37C101.975 16.37 101.195 16.68 100.615 17.3C100.035 17.92 99.745 18.79 99.745 19.91V29H94.615V6.8H99.745V14.51C100.265 13.77 100.975 13.18 101.875 12.74C102.775 12.3 103.785 12.08 104.905 12.08ZM119.42 12.05V16.31H126.29V20.27H119.42V24.89H127.19V29H114.29V7.94H127.19V12.05H119.42ZM128.96 20.6C128.96 18.88 129.28 17.37 129.92 16.07C130.58 14.77 131.47 13.77 132.59 13.07C133.71 12.37 134.96 12.02 136.34 12.02C137.44 12.02 138.44 12.25 139.34 12.71C140.26 13.17 140.98 13.79 141.5 14.57V6.8H146.63V29H141.5V26.6C141.02 27.4 140.33 28.04 139.43 28.52C138.55 29 137.52 29.24 136.34 29.24C134.96 29.24 133.71 28.89 132.59 28.19C131.47 27.47 130.58 26.46 129.92 25.16C129.28 23.84 128.96 22.32 128.96 20.6ZM141.5 20.63C141.5 19.35 141.14 18.34 140.42 17.6C139.72 16.86 138.86 16.49 137.84 16.49C136.82 16.49 135.95 16.86 135.23 17.6C134.53 18.32 134.18 19.32 134.18 20.6C134.18 21.88 134.53 22.9 135.23 23.66C135.95 24.4 136.82 24.77 137.84 24.77C138.86 24.77 139.72 24.4 140.42 23.66C141.14 22.92 141.5 21.91 141.5 20.63ZM156.162 12.02C157.342 12.02 158.372 12.26 159.252 12.74C160.152 13.22 160.842 13.85 161.322 14.63V12.26H166.452V28.97C166.452 30.51 166.142 31.9 165.522 33.14C164.922 34.4 163.992 35.4 162.732 36.14C161.492 36.88 159.942 37.25 158.082 37.25C155.602 37.25 153.592 36.66 152.052 35.48C150.512 34.32 149.632 32.74 149.412 30.74H154.482C154.642 31.38 155.022 31.88 155.622 32.24C156.222 32.62 156.962 32.81 157.842 32.81C158.902 32.81 159.742 32.5 160.362 31.88C161.002 31.28 161.322 30.31 161.322 28.97V26.6C160.822 27.38 160.132 28.02 159.252 28.52C158.372 29 157.342 29.24 156.162 29.24C154.782 29.24 153.532 28.89 152.412 28.19C151.292 27.47 150.402 26.46 149.742 25.16C149.102 23.84 148.782 22.32 148.782 20.6C148.782 18.88 149.102 17.37 149.742 16.07C150.402 14.77 151.292 13.77 152.412 13.07C153.532 12.37 154.782 12.02 156.162 12.02ZM161.322 20.63C161.322 19.35 160.962 18.34 160.242 17.6C159.542 16.86 158.682 16.49 157.662 16.49C156.642 16.49 155.772 16.86 155.052 17.6C154.352 18.32 154.002 19.32 154.002 20.6C154.002 21.88 154.352 22.9 155.052 23.66C155.772 24.4 156.642 24.77 157.662 24.77C158.682 24.77 159.542 24.4 160.242 23.66C160.962 22.92 161.322 21.91 161.322 20.63ZM185.403 20.36C185.403 20.84 185.373 21.34 185.313 21.86H173.703C173.783 22.9 174.113 23.7 174.693 24.26C175.293 24.8 176.023 25.07 176.883 25.07C178.163 25.07 179.053 24.53 179.553 23.45H185.013C184.733 24.55 184.223 25.54 183.483 26.42C182.763 27.3 181.853 27.99 180.753 28.49C179.653 28.99 178.423 29.24 177.063 29.24C175.423 29.24 173.963 28.89 172.683 28.19C171.403 27.49 170.403 26.49 169.683 25.19C168.963 23.89 168.603 22.37 168.603 20.63C168.603 18.89 168.953 17.37 169.653 16.07C170.373 14.77 171.373 13.77 172.653 13.07C173.933 12.37 175.403 12.02 177.063 12.02C178.683 12.02 180.123 12.36 181.383 13.04C182.643 13.72 183.623 14.69 184.323 15.95C185.043 17.21 185.403 18.68 185.403 20.36ZM180.153 19.01C180.153 18.13 179.853 17.43 179.253 16.91C178.653 16.39 177.903 16.13 177.003 16.13C176.143 16.13 175.413 16.38 174.813 16.88C174.233 17.38 173.873 18.09 173.733 19.01H180.153Z" fill="#05091D"/>
</svg>
