<svg width="329" height="67" viewBox="0 0 329 67" fill="none" xmlns="http://www.w3.org/2000/svg">
<path d="M37.6796 44.7368C34.4653 47.9511 29.7435 48.9142 25.1235 47.7194L32.4486 40.3942C33.6078 40.8283 34.9637 40.5821 35.8959 39.6495C37.1683 38.3772 37.1683 36.312 35.8959 35.0392C34.6236 33.7665 32.5593 33.7665 31.2857 35.0397C30.3531 35.9722 30.1068 37.3283 30.5406 38.4878L22.3129 46.7156C20.7973 46.0185 19.331 45.0794 17.9737 43.901L38.6997 23.3569C39.8597 23.7901 41.2157 23.5439 42.1479 22.6113C43.4202 21.3389 43.4202 19.2738 42.1479 18.0015C40.8747 16.7287 38.8105 16.7287 37.5377 18.0015C36.6056 18.9332 36.3588 20.2896 36.7922 21.4496L16.0644 41.9959C14.8852 40.642 13.9439 39.1775 13.2456 37.6615L21.4806 29.427C22.6397 29.8602 23.9957 29.614 24.9283 28.6818C26.2011 27.4086 26.2011 25.3448 24.9283 24.0715C23.6546 22.7988 21.5913 22.7988 20.3181 24.0715C19.3864 25.0046 19.1393 26.3598 19.573 27.5197L12.2409 34.8518C11.0342 30.1952 12.0093 25.4228 15.239 22.1931C20.4648 16.9673 -1.37696 32.0322 10.6408 47.5757C24.8231 65.9201 42.9054 39.511 37.6796 44.7368Z" fill="#FF3B00"/>
<path d="M49.2473 20.1812L41.3701 28.058C41.9895 29.7559 42.3266 31.5889 42.3266 33.5013C42.3266 42.2829 35.2082 49.4017 26.4262 49.4017C17.6446 49.4017 10.5262 42.2829 10.5262 33.5013C10.5262 24.7193 17.6446 17.6004 26.4262 17.6004C28.4116 17.6004 30.3097 17.9676 32.0612 18.6316L39.9141 10.7763C35.965 8.42722 31.3547 7.07422 26.4262 7.07422C11.8311 7.07422 0 18.9058 0 33.5013C0 48.096 11.8312 59.9276 26.4262 59.9276C41.0212 59.9276 52.8534 48.096 52.8534 33.5013C52.8534 28.6423 51.5355 24.0926 49.2473 20.1812Z" fill="#FF3B00"/>
<path d="M100.437 14.8969V22.1378H90.6059V52H81.568V22.1378H71.7372V14.8969H100.437ZM131.822 36.7782C131.822 37.6239 131.769 38.5048 131.663 39.4209H111.209C111.35 41.2531 111.932 42.6626 112.953 43.6492C114.01 44.6005 115.297 45.0762 116.812 45.0762C119.067 45.0762 120.635 44.1248 121.516 42.2221H131.135C130.642 44.1601 129.743 45.9042 128.439 47.4546C127.171 49.005 125.568 50.2206 123.63 51.1015C121.692 51.9824 119.525 52.4228 117.129 52.4228C114.239 52.4228 111.667 51.8062 109.412 50.573C107.157 49.3397 105.395 47.5779 104.127 45.2876C102.858 42.9973 102.224 40.3194 102.224 37.2539C102.224 34.1884 102.841 31.5105 104.074 29.2202C105.342 26.9299 107.104 25.1681 109.359 23.9349C111.614 22.7016 114.204 22.085 117.129 22.085C119.983 22.085 122.52 22.684 124.74 23.882C126.96 25.08 128.686 26.7889 129.919 29.0088C131.188 31.2286 131.822 33.8184 131.822 36.7782ZM122.573 34.3998C122.573 32.8495 122.044 31.6162 120.987 30.7001C119.93 29.784 118.609 29.3259 117.023 29.3259C115.508 29.3259 114.222 29.7663 113.165 30.6472C112.143 31.5281 111.509 32.779 111.262 34.3998H122.573ZM133.842 37.2539C133.842 34.1884 134.458 31.5105 135.691 29.2202C136.96 26.9299 138.704 25.1681 140.924 23.9349C143.179 22.7016 145.751 22.085 148.641 22.085C152.34 22.085 155.423 23.054 157.89 24.9919C160.392 26.9299 162.03 29.6606 162.805 33.1842H153.186C152.376 30.9291 150.808 29.8016 148.482 29.8016C146.826 29.8016 145.505 30.4534 144.518 31.7572C143.531 33.0256 143.038 34.8579 143.038 37.2539C143.038 39.6499 143.531 41.4998 144.518 42.8035C145.505 44.072 146.826 44.7062 148.482 44.7062C150.808 44.7062 152.376 43.5787 153.186 41.3236H162.805C162.03 44.7767 160.392 47.4898 157.89 49.463C155.388 51.4362 152.305 52.4228 148.641 52.4228C145.751 52.4228 143.179 51.8062 140.924 50.573C138.704 49.3397 136.96 47.5779 135.691 45.2876C134.458 42.9973 133.842 40.3194 133.842 37.2539ZM184.817 22.1907C188.2 22.1907 190.913 23.3182 192.956 25.5733C195 27.7932 196.022 30.8587 196.022 34.7698V52H187.037V35.9854C187.037 34.0122 186.526 32.4795 185.504 31.3872C184.482 30.2949 183.108 29.7487 181.382 29.7487C179.655 29.7487 178.281 30.2949 177.259 31.3872C176.237 32.4795 175.726 34.0122 175.726 35.9854V52H166.688V12.8885H175.726V26.4718C176.642 25.1681 177.893 24.1287 179.479 23.3535C181.064 22.5783 182.844 22.1907 184.817 22.1907ZM210.389 22.1378V29.643H222.492V36.6197H210.389V44.7591H224.078V52H201.351V14.8969H224.078V22.1378H210.389ZM227.197 37.2011C227.197 34.1708 227.761 31.5105 228.888 29.2202C230.051 26.9299 231.619 25.1681 233.592 23.9349C235.566 22.7016 237.768 22.085 240.199 22.085C242.137 22.085 243.899 22.4902 245.484 23.3006C247.105 24.111 248.374 25.2033 249.29 26.5775V12.8885H258.328V52H249.29V47.7717C248.444 49.1812 247.229 50.3087 245.643 51.1543C244.093 52 242.278 52.4228 240.199 52.4228C237.768 52.4228 235.566 51.8062 233.592 50.573C231.619 49.3045 230.051 47.5251 228.888 45.2348C227.761 42.9092 227.197 40.2313 227.197 37.2011ZM249.29 37.2539C249.29 34.9988 248.656 33.2194 247.387 31.9157C246.154 30.612 244.639 29.9601 242.842 29.9601C241.045 29.9601 239.512 30.612 238.244 31.9157C237.01 33.1842 236.394 34.946 236.394 37.2011C236.394 39.4561 237.01 41.2531 238.244 42.5921C239.512 43.8958 241.045 44.5477 242.842 44.5477C244.639 44.5477 246.154 43.8958 247.387 42.5921C248.656 41.2884 249.29 39.509 249.29 37.2539ZM275.12 22.085C277.199 22.085 279.013 22.5078 280.564 23.3535C282.149 24.1991 283.365 25.309 284.211 26.6832V22.5078H293.249V51.9471C293.249 54.6603 292.702 57.1092 291.61 59.2938C290.553 61.5136 288.915 63.2754 286.695 64.5791C284.51 65.8828 281.779 66.5347 278.502 66.5347C274.133 66.5347 270.592 65.4952 267.879 63.4163C265.166 61.3727 263.615 58.5891 263.228 55.0655H272.16C272.442 56.193 273.111 57.0739 274.169 57.7082C275.226 58.3776 276.529 58.7124 278.08 58.7124C279.947 58.7124 281.427 58.1662 282.519 57.0739C283.647 56.0169 284.211 54.3079 284.211 51.9471V47.7717C283.33 49.1459 282.114 50.2735 280.564 51.1543C279.013 52 277.199 52.4228 275.12 52.4228C272.689 52.4228 270.486 51.8062 268.513 50.573C266.54 49.3045 264.972 47.5251 263.809 45.2348C262.682 42.9092 262.118 40.2313 262.118 37.2011C262.118 34.1708 262.682 31.5105 263.809 29.2202C264.972 26.9299 266.54 25.1681 268.513 23.9349C270.486 22.7016 272.689 22.085 275.12 22.085ZM284.211 37.2539C284.211 34.9988 283.576 33.2194 282.308 31.9157C281.075 30.612 279.56 29.9601 277.763 29.9601C275.966 29.9601 274.433 30.612 273.164 31.9157C271.931 33.1842 271.314 34.946 271.314 37.2011C271.314 39.4561 271.931 41.2531 273.164 42.5921C274.433 43.8958 275.966 44.5477 277.763 44.5477C279.56 44.5477 281.075 43.8958 282.308 42.5921C283.576 41.2884 284.211 39.509 284.211 37.2539ZM326.637 36.7782C326.637 37.6239 326.584 38.5048 326.478 39.4209H306.024C306.165 41.2531 306.746 42.6626 307.768 43.6492C308.825 44.6005 310.111 45.0762 311.626 45.0762C313.881 45.0762 315.449 44.1248 316.33 42.2221H325.95C325.456 44.1601 324.558 45.9042 323.254 47.4546C321.986 49.005 320.382 50.2206 318.444 51.1015C316.506 51.9824 314.339 52.4228 311.943 52.4228C309.054 52.4228 306.482 51.8062 304.227 50.573C301.972 49.3397 300.21 47.5779 298.941 45.2876C297.673 42.9973 297.039 40.3194 297.039 37.2539C297.039 34.1884 297.655 31.5105 298.889 29.2202C300.157 26.9299 301.919 25.1681 304.174 23.9349C306.429 22.7016 309.019 22.085 311.943 22.085C314.797 22.085 317.334 22.684 319.554 23.882C321.774 25.08 323.501 26.7889 324.734 29.0088C326.002 31.2286 326.637 33.8184 326.637 36.7782ZM317.387 34.3998C317.387 32.8495 316.859 31.6162 315.802 30.7001C314.745 29.784 313.423 29.3259 311.838 29.3259C310.323 29.3259 309.036 29.7663 307.979 30.6472C306.958 31.5281 306.323 32.779 306.077 34.3998H317.387Z" fill="#05091D"/>
</svg>
