<svg width="60" height="60" viewBox="0 0 60 60" fill="none" xmlns="http://www.w3.org/2000/svg">
<path d="M7.73438 7.73438H10.0781V10.0781H7.73438V7.73438Z" fill="#FF3B00"/>
<path d="M11.25 7.73438H13.5938V10.0781H11.25V7.73438Z" fill="#FF3B00"/>
<path d="M14.7656 7.73438H17.1094V10.0781H14.7656V7.73438Z" fill="#FF3B00"/>
<path d="M12.4219 26.4844H26.4845V28.8281H12.4219V26.4844Z" fill="#FF3B00"/>
<path d="M12.4219 30H35.8595V32.3438H12.4219V30Z" fill="#FF3B00"/>
<path d="M12.4219 33.5156H35.8595V35.8594H12.4219V33.5156Z" fill="#FF3B00"/>
<path d="M48.7504 51.0939H34.5395C34.1145 49.4489 32.8167 48.1516 31.1723 47.7266V44.0626H48.7505C49.2712 44.0626 49.7295 43.7186 49.8755 43.2186C55.6793 23.3196 52.2639 35.031 58.0786 15.0935C58.2978 14.344 57.7337 13.5938 56.9536 13.5938H49.9224V8.90625C49.9224 8.25914 49.3975 7.73438 48.7505 7.73438H25.6675L18.9314 3.24375C18.7391 3.11496 18.5126 3.04688 18.2814 3.04688H4.2189C3.57179 3.04688 3.04702 3.57164 3.04702 4.21875C3.04702 44.3391 3.04644 42.8937 3.04761 42.9308C3.05675 43.1959 3.15401 43.4408 3.31315 43.6341C3.31374 43.6346 3.31374 43.6346 3.31374 43.6346V43.6354C3.54835 43.9204 3.89851 44.0702 4.23495 44.0626H28.8284V47.7266C27.1839 48.1516 25.8862 49.4489 25.461 51.0939H11.2501C10.603 51.0939 10.0783 51.6188 10.0783 52.2659C10.0783 52.913 10.603 53.4377 11.2501 53.4377H25.461C25.9828 55.457 27.8202 56.9534 30.0003 56.9534C32.1804 56.9534 34.0176 55.457 34.5394 53.4377H48.7504C49.3974 53.4377 49.9223 52.913 49.9223 52.2659C49.9223 51.6188 49.3976 51.0939 48.7504 51.0939ZM5.39077 5.39062H17.9267L24.6627 9.88137C24.855 10.0096 25.0816 10.0782 25.3128 10.0782H47.5785V13.5939H12.4484C11.9266 13.5813 11.4458 13.9229 11.2971 14.4379L5.39077 34.6876V5.39062ZM13.3009 15.9375H55.3908L54.3654 19.4531H20.6253C19.9782 19.4531 19.4534 19.9779 19.4534 20.625C19.4534 21.2721 19.9782 21.7969 20.6253 21.7969H53.6822L47.8715 41.7189H5.78101L13.3009 15.9375ZM30.0003 54.6096C28.7083 54.6096 27.6565 53.5579 27.6565 52.2659C27.6565 50.9733 28.7083 49.922 30.0003 49.922C31.2927 49.922 32.344 50.9733 32.344 52.2659C32.344 53.5579 31.2927 54.6096 30.0003 54.6096Z" fill="#FF3B00"/>
<path d="M54.6094 42.8906C52.6707 42.8906 51.0938 44.4676 51.0938 46.4062C51.0938 48.3449 52.6707 49.9219 54.6094 49.9219C56.548 49.9219 58.125 48.3449 58.125 46.4062C58.125 44.4676 56.548 42.8906 54.6094 42.8906ZM54.6094 47.5781C53.9633 47.5781 53.4375 47.0524 53.4375 46.4062C53.4375 45.7601 53.9633 45.2344 54.6094 45.2344C55.2554 45.2344 55.7812 45.7601 55.7812 46.4062C55.7812 47.0524 55.2554 47.5781 54.6094 47.5781Z" fill="#FF3B00"/>
<path d="M54.0234 10.0781C55.6388 10.0781 56.9531 8.76375 56.9531 7.14844C56.9531 5.53312 55.6388 4.21875 54.0234 4.21875C52.4081 4.21875 51.0938 5.53312 51.0938 7.14844C51.0938 8.76375 52.4081 10.0781 54.0234 10.0781ZM54.0234 6.5625C54.3468 6.5625 54.6094 6.82512 54.6094 7.14844C54.6094 7.47176 54.3468 7.73438 54.0234 7.73438C53.7001 7.73438 53.4375 7.47176 53.4375 7.14844C53.4375 6.82512 53.7001 6.5625 54.0234 6.5625Z" fill="#FF3B00"/>
<path d="M4.80469 46.4062C3.18937 46.4062 1.875 47.7206 1.875 49.3359C1.875 50.9514 3.18937 52.2657 4.80469 52.2657C6.42 52.2657 7.73437 50.9514 7.73437 49.3359C7.73437 47.7206 6.42 46.4062 4.80469 46.4062ZM4.80469 49.9219C4.48195 49.9219 4.21875 49.6587 4.21875 49.3359C4.21875 49.0126 4.48195 48.75 4.80469 48.75C5.12742 48.75 5.39062 49.0126 5.39062 49.3359C5.39062 49.6587 5.12742 49.9219 4.80469 49.9219Z" fill="#FF3B00"/>
<path d="M42.8906 48.75C43.5378 48.75 44.0625 48.2253 44.0625 47.5781C44.0625 46.9309 43.5378 46.4062 42.8906 46.4062C42.2434 46.4062 41.7188 46.9309 41.7188 47.5781C41.7188 48.2253 42.2434 48.75 42.8906 48.75Z" fill="#FF3B00"/>
<path d="M12.4219 47.5781C13.0691 47.5781 13.5938 47.0535 13.5938 46.4062C13.5938 45.759 13.0691 45.2344 12.4219 45.2344C11.7747 45.2344 11.25 45.759 11.25 46.4062C11.25 47.0535 11.7747 47.5781 12.4219 47.5781Z" fill="#FF3B00"/>
<path d="M32.3438 5.39062C32.991 5.39062 33.5156 4.86596 33.5156 4.21875C33.5156 3.57154 32.991 3.04688 32.3438 3.04688C31.6965 3.04688 31.1719 3.57154 31.1719 4.21875C31.1719 4.86596 31.6965 5.39062 32.3438 5.39062Z" fill="#FF3B00"/>
<path d="M17.1094 21.7969C17.7566 21.7969 18.2812 21.2722 18.2812 20.625C18.2812 19.9778 17.7566 19.4531 17.1094 19.4531C16.4622 19.4531 15.9375 19.9778 15.9375 20.625C15.9375 21.2722 16.4622 21.7969 17.1094 21.7969Z" fill="#FF3B00"/>
<path d="M46.4062 6.5625C47.0535 6.5625 47.5781 6.03783 47.5781 5.39062C47.5781 4.74342 47.0535 4.21875 46.4062 4.21875C45.759 4.21875 45.2344 4.74342 45.2344 5.39062C45.2344 6.03783 45.759 6.5625 46.4062 6.5625Z" fill="#FF3B00"/>
</svg>
