<svg width="60" height="60" viewBox="0 0 60 60" fill="none" xmlns="http://www.w3.org/2000/svg">
<path d="M27.6562 21.2109H31.1719C31.819 21.2109 32.3438 20.6862 32.3438 20.0391C32.3438 19.392 31.819 18.8672 31.1719 18.8672H27.6562C27.0091 18.8672 26.4844 19.392 26.4844 20.0391C26.4844 20.6862 27.0091 21.2109 27.6562 21.2109Z" fill="#FF3B00"/>
<path d="M51.094 52.8518H46.4065V19.9218C46.4065 17.4018 44.3563 15.3516 41.8362 15.3516H16.9922C14.4722 15.3516 12.4219 17.4018 12.4219 19.9218V52.8518H7.73438C7.08727 52.8518 6.5625 53.3766 6.5625 54.0237C6.5625 54.6708 7.08727 55.1955 7.73438 55.1955H51.094C51.7411 55.1955 52.2659 54.6708 52.2659 54.0237C52.2659 53.3766 51.7411 52.8518 51.094 52.8518ZM14.7657 19.9218C14.7657 18.6938 15.7648 17.6953 16.9922 17.6953H41.8362C43.0637 17.6953 44.0627 18.6939 44.0627 19.9218V52.8518H41.719V23.5548C41.719 22.9077 41.1941 22.3829 40.5471 22.3829H18.2814C17.6343 22.3829 17.1095 22.9077 17.1095 23.5548V52.8518H14.7657V19.9218ZM39.3751 52.8518H19.4532V24.7267H39.3751V52.8518Z" fill="#FF3B00"/>
<path d="M22.9688 8.32031C23.616 8.32031 24.1406 7.79565 24.1406 7.14844C24.1406 6.50123 23.616 5.97656 22.9688 5.97656C22.3215 5.97656 21.7969 6.50123 21.7969 7.14844C21.7969 7.79565 22.3215 8.32031 22.9688 8.32031Z" fill="#FF3B00"/>
<path d="M35.8594 10.6641C36.5066 10.6641 37.0312 10.1394 37.0312 9.49219C37.0312 8.84498 36.5066 8.32031 35.8594 8.32031C35.2122 8.32031 34.6875 8.84498 34.6875 9.49219C34.6875 10.1394 35.2122 10.6641 35.8594 10.6641Z" fill="#FF3B00"/>
<path d="M52.2656 27.0703C52.9128 27.0703 53.4375 26.5456 53.4375 25.8984C53.4375 25.2512 52.9128 24.7266 52.2656 24.7266C51.6184 24.7266 51.0938 25.2512 51.0938 25.8984C51.0938 26.5456 51.6184 27.0703 52.2656 27.0703Z" fill="#FF3B00"/>
<path d="M6.5625 35.2734C7.20971 35.2734 7.73438 34.7488 7.73438 34.1016C7.73438 33.4544 7.20971 32.9297 6.5625 32.9297C5.91529 32.9297 5.39062 33.4544 5.39062 34.1016C5.39062 34.7488 5.91529 35.2734 6.5625 35.2734Z" fill="#FF3B00"/>
<path d="M22.9688 28.2422H25.3125V30.5859H22.9688V28.2422Z" fill="#FF3B00"/>
<path d="M26.4844 28.2422H28.8281V30.5859H26.4844V28.2422Z" fill="#FF3B00"/>
<path d="M30 28.2422H32.3438V30.5859H30V28.2422Z" fill="#FF3B00"/>
<path d="M33.5156 28.2422H35.8594V30.5859H33.5156V28.2422Z" fill="#FF3B00"/>
<path d="M22.9688 31.7578H25.3125V34.1016H22.9688V31.7578Z" fill="#FF3B00"/>
<path d="M26.4844 31.7578H28.8281V34.1016H26.4844V31.7578Z" fill="#FF3B00"/>
<path d="M30 31.7578H32.3438V34.1016H30V31.7578Z" fill="#FF3B00"/>
<path d="M33.5156 31.7578H35.8594V34.1016H33.5156V31.7578Z" fill="#FF3B00"/>
<path d="M22.9688 35.2734H25.3125V37.6172H22.9688V35.2734Z" fill="#FF3B00"/>
<path d="M26.4844 35.2734H28.8281V37.6172H26.4844V35.2734Z" fill="#FF3B00"/>
<path d="M30 35.2734H32.3438V37.6172H30V35.2734Z" fill="#FF3B00"/>
<path d="M33.5156 35.2734H35.8594V37.6172H33.5156V35.2734Z" fill="#FF3B00"/>
<path d="M22.9688 38.7891H25.3125V41.1328H22.9688V38.7891Z" fill="#FF3B00"/>
<path d="M26.4844 38.7891H28.8281V41.1328H26.4844V38.7891Z" fill="#FF3B00"/>
<path d="M30 38.7891H32.3438V41.1328H30V38.7891Z" fill="#FF3B00"/>
<path d="M33.5156 38.7891H35.8594V41.1328H33.5156V38.7891Z" fill="#FF3B00"/>
<path d="M22.9688 42.3047H25.3125V44.6484H22.9688V42.3047Z" fill="#FF3B00"/>
<path d="M26.4844 42.3047H28.8281V44.6484H26.4844V42.3047Z" fill="#FF3B00"/>
<path d="M30 42.3047H32.3438V44.6484H30V42.3047Z" fill="#FF3B00"/>
<path d="M33.5156 42.3047H35.8594V44.6484H33.5156V42.3047Z" fill="#FF3B00"/>
<path d="M10.0781 20.0391C10.0781 18.1004 8.50113 16.5234 6.5625 16.5234C4.62387 16.5234 3.04688 18.1004 3.04688 20.0391C3.04688 21.9771 4.62387 23.5547 6.5625 23.5547C8.50113 23.5547 10.0781 21.9771 10.0781 20.0391ZM5.39063 20.0391C5.39063 19.393 5.91586 18.8672 6.5625 18.8672C7.20914 18.8672 7.73438 19.393 7.73438 20.0391C7.73438 20.6851 7.20914 21.2109 6.5625 21.2109C5.91586 21.2109 5.39063 20.6851 5.39063 20.0391Z" fill="#FF3B00"/>
<path d="M53.4375 36.4453C51.4989 36.4453 49.9219 38.0223 49.9219 39.9609C49.9219 41.8996 51.4989 43.4766 53.4375 43.4766C55.3761 43.4766 56.9531 41.8996 56.9531 39.9609C56.9531 38.0223 55.3761 36.4453 53.4375 36.4453ZM53.4375 41.1328C52.7914 41.1328 52.2656 40.6071 52.2656 39.9609C52.2656 39.3148 52.7914 38.7891 53.4375 38.7891C54.0836 38.7891 54.6094 39.3148 54.6094 39.9609C54.6094 40.6071 54.0836 41.1328 53.4375 41.1328Z" fill="#FF3B00"/>
<path d="M49.3359 13.0078C51.5973 13.0078 53.4375 11.1676 53.4375 8.90625C53.4375 6.6443 51.5973 4.80469 49.3359 4.80469C47.0746 4.80469 45.2344 6.6443 45.2344 8.90625C45.2344 11.1676 47.0746 13.0078 49.3359 13.0078ZM49.3359 7.14844C50.3052 7.14844 51.0938 7.93699 51.0938 8.90625C51.0938 9.87551 50.3052 10.6641 49.3359 10.6641C48.3667 10.6641 47.5781 9.87551 47.5781 8.90625C47.5781 7.93687 48.3667 7.14844 49.3359 7.14844Z" fill="#FF3B00"/>
</svg>
