<svg width="36" height="36" viewBox="0 0 36 36" fill="none" xmlns="http://www.w3.org/2000/svg">
<path d="M5.5 12.1406H7.0625V13.7031H5.5V12.1406Z" fill="white"/>
<path d="M7.84375 12.1406H9.40625V13.7031H7.84375V12.1406Z" fill="white"/>
<path d="M10.1875 12.1406H11.75V13.7031H10.1875V12.1406Z" fill="white"/>
<path d="M12.5312 12.1406H14.0938V13.7031H12.5312V12.1406Z" fill="white"/>
<path d="M14.875 12.1406H16.4375V13.7031H14.875V12.1406Z" fill="white"/>
<path d="M17.2188 12.1406H18.7812V13.7031H17.2188V12.1406Z" fill="white"/>
<path d="M24.25 12.1406H25.8126V13.7031H24.25V12.1406Z" fill="white"/>
<path d="M28.9375 12.1406H30.5V13.7031H28.9375V12.1406Z" fill="white"/>
<path d="M26.5938 12.1406H28.1562V13.7031H26.5938V12.1406Z" fill="white"/>
<path d="M26.5938 14.4844H28.1562V16.0469H26.5938V14.4844Z" fill="white"/>
<path d="M26.5938 16.8281H28.1562V18.3906H26.5938V16.8281Z" fill="white"/>
<path d="M26.5938 19.1719H28.1562V20.7344H26.5938V19.1719Z" fill="white"/>
<path d="M5.5 14.4844H7.0625V16.0469H5.5V14.4844Z" fill="white"/>
<path d="M7.84375 14.4844H9.40625V16.0469H7.84375V14.4844Z" fill="white"/>
<path d="M10.1875 14.4844H11.75V16.0469H10.1875V14.4844Z" fill="white"/>
<path d="M12.5312 14.4844H14.0938V16.0469H12.5312V14.4844Z" fill="white"/>
<path d="M14.875 14.4844H16.4375V16.0469H14.875V14.4844Z" fill="white"/>
<path d="M17.2188 14.4844H18.7812V16.0469H17.2188V14.4844Z" fill="white"/>
<path d="M24.25 14.4844H25.8126V16.0469H24.25V14.4844Z" fill="white"/>
<path d="M28.9375 14.4844H30.5V16.0469H28.9375V14.4844Z" fill="white"/>
<path d="M5.5 16.8281H7.0625V18.3906H5.5V16.8281Z" fill="white"/>
<path d="M7.84375 16.8281H9.40625V18.3906H7.84375V16.8281Z" fill="white"/>
<path d="M10.1875 16.8281H11.75V18.3906H10.1875V16.8281Z" fill="white"/>
<path d="M12.5312 16.8281H14.0938V18.3906H12.5312V16.8281Z" fill="white"/>
<path d="M14.875 16.8281H16.4375V18.3906H14.875V16.8281Z" fill="white"/>
<path d="M24.25 16.8281H25.8126V18.3906H24.25V16.8281Z" fill="white"/>
<path d="M5.5 19.1719H7.0625V20.7344H5.5V19.1719Z" fill="white"/>
<path d="M7.84375 19.1719H9.40625V20.7344H7.84375V19.1719Z" fill="white"/>
<path d="M10.1875 19.1719H18.7812V20.7344H10.1875V19.1719Z" fill="white"/>
<path d="M24.25 19.1719H25.8126V20.7344H24.25V19.1719Z" fill="white"/>
<path d="M28.9375 16.8281H30.5V20.7344H28.9375V16.8281Z" fill="white"/>
<path d="M32.0626 9.79687H28.1563V7.45312C28.1563 5.29898 26.4038 3.54688 24.25 3.54688C22.0963 3.54688 20.3438 5.29898 20.3438 7.45312V9.79687H16.4375V7.45312C16.4375 5.29898 14.6852 3.54688 12.5312 3.54688C10.3773 3.54688 8.625 5.29898 8.625 7.45312V9.79687H3.9375C3.50609 9.79687 3.15625 10.1467 3.15625 10.5781V22.297C3.15625 22.7283 3.50609 23.0782 3.9375 23.0782H8.625V26.9845C8.625 27.4158 8.97484 27.7657 9.40625 27.7657C9.83766 27.7657 10.1875 27.4158 10.1875 26.9845V23.0782H14.875V25.8126C14.875 27.7512 16.4522 29.3282 18.3906 29.3282C20.3291 29.3282 21.9062 27.7512 21.9062 25.8126V23.0782H26.5938V25.422H24.25C23.8186 25.422 23.4688 25.7719 23.4688 26.2032V31.672C23.4688 33.8258 25.2213 35.5783 27.3751 35.5783C29.5288 35.5783 31.2813 33.8258 31.2813 31.672V26.2032C31.2813 25.7719 30.9315 25.422 30.5001 25.422H28.1563V23.0782H32.0626C32.494 23.0782 32.8438 22.7283 32.8438 22.297V10.5781C32.8438 10.1467 32.494 9.79687 32.0626 9.79687ZM29.7188 26.9845V31.672C29.7188 32.9645 28.6675 34.0158 27.3751 34.0158C26.0827 34.0158 25.0313 32.9645 25.0313 31.672V26.9845H26.5938V29.3282C26.5938 29.7595 26.9437 30.1095 27.3751 30.1095C27.8065 30.1095 28.1563 29.7595 28.1563 29.3282V26.9845H29.7188ZM21.9062 7.45312C21.9062 6.1607 22.9576 5.10938 24.25 5.10938C25.5425 5.10938 26.5938 6.1607 26.5938 7.45312V9.79687H21.9062V7.45312ZM10.1875 7.45312C10.1875 6.1607 11.2388 5.10938 12.5312 5.10938C13.8237 5.10938 14.875 6.1607 14.875 7.45312V9.79687H10.1875V7.45312ZM4.71867 11.3594H20.3438V16.8281H17.2188V18.3906H20.3438V19.1719H19.5625V20.7344H20.3438V21.5156C18.4795 21.5156 6.37008 21.5156 4.71867 21.5156V11.3594ZM20.3438 25.8126C20.3438 26.8895 19.4675 27.7657 18.3906 27.7657C17.3138 27.7657 16.4375 26.8895 16.4375 25.8126V23.0782H20.3438V25.8126ZM31.2813 21.5157H21.9062V20.7345H23.4688V19.172H21.9062V11.3594H31.2813V21.5157Z" fill="white"/>
<path d="M3.15625 28.5469C1.86383 28.5469 0.8125 29.5982 0.8125 30.8906C0.8125 32.183 1.86383 33.2345 3.15625 33.2345C4.44867 33.2345 5.5 32.183 5.5 30.8906C5.5 29.5982 4.44867 28.5469 3.15625 28.5469ZM3.15625 31.6719C2.72539 31.6719 2.375 31.3214 2.375 30.8906C2.375 30.4598 2.72539 30.1094 3.15625 30.1094C3.58711 30.1094 3.9375 30.4598 3.9375 30.8906C3.9375 31.3214 3.58711 31.6719 3.15625 31.6719Z" fill="white"/>
<path d="M3.54688 5.10938C4.62375 5.10938 5.5 4.23312 5.5 3.15625C5.5 2.07937 4.62375 1.20312 3.54688 1.20312C2.47 1.20312 1.59375 2.07937 1.59375 3.15625C1.59375 4.23312 2.47 5.10938 3.54688 5.10938ZM3.54688 2.76562C3.76219 2.76562 3.9375 2.9407 3.9375 3.15625C3.9375 3.3718 3.76219 3.54688 3.54688 3.54688C3.33156 3.54688 3.15625 3.3718 3.15625 3.15625C3.15625 2.9407 3.33156 2.76562 3.54688 2.76562Z" fill="white"/>
<path d="M32.4531 5.89062C33.9607 5.89062 35.1875 4.66383 35.1875 3.15625C35.1875 1.64828 33.9607 0.421875 32.4531 0.421875C30.9455 0.421875 29.7188 1.64828 29.7188 3.15625C29.7188 4.66383 30.9455 5.89062 32.4531 5.89062ZM32.4531 1.98438C33.0993 1.98438 33.625 2.51008 33.625 3.15625C33.625 3.8025 33.0993 4.32812 32.4531 4.32812C31.807 4.32812 31.2812 3.80242 31.2812 3.15625C31.2812 2.51 31.807 1.98438 32.4531 1.98438Z" fill="white"/>
<path d="M16.4375 1.98438C16.869 1.98438 17.2188 1.6346 17.2188 1.20312C17.2188 0.771653 16.869 0.421875 16.4375 0.421875C16.006 0.421875 15.6562 0.771653 15.6562 1.20312C15.6562 1.6346 16.006 1.98438 16.4375 1.98438Z" fill="white"/>
<path d="M27.375 2.76562C27.8065 2.76562 28.1562 2.41585 28.1562 1.98438C28.1562 1.5529 27.8065 1.20312 27.375 1.20312C26.9435 1.20312 26.5938 1.5529 26.5938 1.98438C26.5938 2.41585 26.9435 2.76562 27.375 2.76562Z" fill="white"/>
<path d="M7.0625 7.45312C7.49397 7.45312 7.84375 7.10335 7.84375 6.67188C7.84375 6.2404 7.49397 5.89062 7.0625 5.89062C6.63103 5.89062 6.28125 6.2404 6.28125 6.67188C6.28125 7.10335 6.63103 7.45312 7.0625 7.45312Z" fill="white"/>
<path d="M6.28125 26.9844C6.71272 26.9844 7.0625 26.6346 7.0625 26.2031C7.0625 25.7717 6.71272 25.4219 6.28125 25.4219C5.84978 25.4219 5.5 25.7717 5.5 26.2031C5.5 26.6346 5.84978 26.9844 6.28125 26.9844Z" fill="white"/>
<path d="M13.3125 30.8906C13.744 30.8906 14.0938 30.5408 14.0938 30.1094C14.0938 29.6779 13.744 29.3281 13.3125 29.3281C12.881 29.3281 12.5312 29.6779 12.5312 30.1094C12.5312 30.5408 12.881 30.8906 13.3125 30.8906Z" fill="white"/>
<path d="M34.4062 26.9844C34.8377 26.9844 35.1875 26.6346 35.1875 26.2031C35.1875 25.7717 34.8377 25.4219 34.4062 25.4219C33.9748 25.4219 33.625 25.7717 33.625 26.2031C33.625 26.6346 33.9748 26.9844 34.4062 26.9844Z" fill="white"/>
</svg>
