<svg width="40" height="40" viewBox="0 0 40 40" fill="none" xmlns="http://www.w3.org/2000/svg">
<path d="M6.71875 34.4531H8.28125V36.0157H6.71875V34.4531Z" fill="white"/>
<path d="M9.0625 32.1094H10.625V33.6719H9.0625V32.1094Z" fill="white"/>
<path d="M11.4062 32.1094H12.9688V33.6719H11.4062V32.1094Z" fill="white"/>
<path d="M13.75 32.1094H15.3125V33.6719H13.75V32.1094Z" fill="white"/>
<path d="M9.84375 34.4531H11.4062V36.0157H9.84375V34.4531Z" fill="white"/>
<path d="M18.4375 32.1094H20V33.6719H18.4375V32.1094Z" fill="white"/>
<path d="M16.0938 34.4531H17.6562V36.0157H16.0938V34.4531Z" fill="white"/>
<path d="M18.4375 34.4531H20V36.0157H18.4375V34.4531Z" fill="white"/>
<path d="M20.7812 32.1094H22.3438V33.6719H20.7812V32.1094Z" fill="white"/>
<path d="M20.7812 34.4531H22.3438V36.0157H20.7812V34.4531Z" fill="white"/>
<path d="M23.125 32.1094H24.6875V33.6719H23.125V32.1094Z" fill="white"/>
<path d="M25.4688 32.1094H27.0313V33.6719H25.4688V32.1094Z" fill="white"/>
<path d="M23.125 34.4531H24.6875V36.0157H23.125V34.4531Z" fill="white"/>
<path d="M28.5938 32.8906C28.5938 33.3221 28.9436 33.6719 29.375 33.6719H33.2812C33.7127 33.6719 34.0625 33.3221 34.0625 32.8906C34.0625 32.4593 33.7127 32.1094 33.2812 32.1094H29.375C28.9436 32.1094 28.5938 32.4593 28.5938 32.8906Z" fill="white"/>
<path d="M33.2812 34.4531H29.375C28.9436 34.4531 28.5938 34.803 28.5938 35.2345C28.5938 35.6659 28.9436 36.0157 29.375 36.0157H33.2812C33.7127 36.0157 34.0625 35.6659 34.0625 35.2345C34.0625 34.803 33.7127 34.4531 33.2812 34.4531Z" fill="white"/>
<path d="M6.71875 25.0781H8.28125V26.6406H6.71875V25.0781Z" fill="white"/>
<path d="M9.0625 22.7344H10.625V24.2969H9.0625V22.7344Z" fill="white"/>
<path d="M11.4062 22.7344H12.9688V24.2969H11.4062V22.7344Z" fill="white"/>
<path d="M13.75 22.7344H15.3125V24.2969H13.75V22.7344Z" fill="white"/>
<path d="M13.75 25.0781H15.3125V26.6406H13.75V25.0781Z" fill="white"/>
<path d="M16.0938 22.7344H17.6562V24.2969H16.0938V22.7344Z" fill="white"/>
<path d="M16.0938 25.0781H17.6562V26.6406H16.0938V25.0781Z" fill="white"/>
<path d="M18.4375 25.0781H20V26.6406H18.4375V25.0781Z" fill="white"/>
<path d="M20.7812 22.7344H22.3438V24.2969H20.7812V22.7344Z" fill="white"/>
<path d="M20.7812 25.0781H22.3438V26.6406H20.7812V25.0781Z" fill="white"/>
<path d="M23.125 22.7344H24.6875V24.2969H23.125V22.7344Z" fill="white"/>
<path d="M25.4688 22.7344H27.0313V24.2969H25.4688V22.7344Z" fill="white"/>
<path d="M25.4688 25.0781H27.0313V26.6406H25.4688V25.0781Z" fill="white"/>
<path d="M28.5938 23.5156C28.5938 23.947 28.9436 24.2969 29.375 24.2969H33.2812C33.7127 24.2969 34.0625 23.947 34.0625 23.5156C34.0625 23.0843 33.7127 22.7344 33.2812 22.7344H29.375C28.9436 22.7344 28.5938 23.0843 28.5938 23.5156Z" fill="white"/>
<path d="M33.2812 25.0781H29.375C28.9436 25.0781 28.5938 25.428 28.5938 25.8594C28.5938 26.2907 28.9436 26.6406 29.375 26.6406H33.2812C33.7127 26.6406 34.0625 26.2907 34.0625 25.8594C34.0625 25.428 33.7127 25.0781 33.2812 25.0781Z" fill="white"/>
<path d="M25.4688 13.3594H27.0313V14.9219H25.4688V13.3594Z" fill="white"/>
<path d="M23.125 15.7031H24.6875V17.2656H23.125V15.7031Z" fill="white"/>
<path d="M20.7812 15.7031H22.3438V17.2656H20.7812V15.7031Z" fill="white"/>
<path d="M18.4375 15.7031H20V17.2656H18.4375V15.7031Z" fill="white"/>
<path d="M18.4375 13.3594H20V14.9219H18.4375V13.3594Z" fill="white"/>
<path d="M16.0938 15.7031H17.6562V17.2656H16.0938V15.7031Z" fill="white"/>
<path d="M16.0938 13.3594H17.6562V14.9219H16.0938V13.3594Z" fill="white"/>
<path d="M13.75 13.3594H15.3125V14.9219H13.75V13.3594Z" fill="white"/>
<path d="M11.4062 15.7031H12.9688V17.2656H11.4062V15.7031Z" fill="white"/>
<path d="M11.4062 13.3594H12.9688V14.9219H11.4062V13.3594Z" fill="white"/>
<path d="M9.0625 15.7031H10.625V17.2656H9.0625V15.7031Z" fill="white"/>
<path d="M6.71875 15.7031H8.28125V17.2656H6.71875V15.7031Z" fill="white"/>
<path d="M6.71875 13.3594H8.28125V14.9219H6.71875V13.3594Z" fill="white"/>
<path d="M28.5938 14.1406C28.5938 14.572 28.9436 14.9219 29.375 14.9219H33.2812C33.7127 14.9219 34.0625 14.572 34.0625 14.1406C34.0625 13.7092 33.7127 13.3594 33.2812 13.3594H29.375C28.9436 13.3594 28.5938 13.7092 28.5938 14.1406Z" fill="white"/>
<path d="M33.2812 15.7031H29.375C28.9436 15.7031 28.5938 16.053 28.5938 16.4844C28.5938 16.9158 28.9436 17.2656 29.375 17.2656H33.2812C33.7127 17.2656 34.0625 16.9158 34.0625 16.4844C34.0625 16.053 33.7127 15.7031 33.2812 15.7031Z" fill="white"/>
<path d="M35.6252 10.2344C36.0566 10.2344 36.4064 9.88453 36.4064 9.45312V2.42188C36.4064 1.99047 36.0566 1.64062 35.6252 1.64062H4.375C3.94359 1.64062 3.59375 1.99047 3.59375 2.42188V9.45312C3.59375 9.88453 3.94359 10.2344 4.375 10.2344H7.5V11.0156H4.375C3.94359 11.0156 3.59375 11.3655 3.59375 11.7969V18.8281C3.59375 19.2595 3.94359 19.6094 4.375 19.6094H7.5V20.3906H4.375C3.94359 20.3906 3.59375 20.7405 3.59375 21.1719V28.2031C3.59375 28.6345 3.94359 28.9844 4.375 28.9844H7.5V29.7656H4.375C3.94359 29.7656 3.59375 30.1155 3.59375 30.5469V37.5782C3.59375 38.0096 3.94359 38.3595 4.375 38.3595H35.6252C36.0566 38.3595 36.4064 38.0096 36.4064 37.5782V30.547C36.4064 30.1156 36.0566 29.7657 35.6252 29.7657H32.5002V28.9845H35.6252C36.0566 28.9845 36.4064 28.6345 36.4064 28.2032V21.172C36.4064 20.7406 36.0566 20.3907 35.6252 20.3907H32.5002V19.6095H35.6252C36.0566 19.6095 36.4064 19.2596 36.4064 18.8282V11.797C36.4064 11.3655 36.0566 11.0157 35.6252 11.0157H32.5002V10.2345L35.6252 10.2344ZM5.15625 3.20312H34.8439V8.67188H5.15625V3.20312ZM34.8439 36.797H5.15625V31.3282H34.8439V36.797ZM30.9377 29.7657H9.0625V28.9845H30.9377V29.7657ZM34.8439 27.422H5.15625V21.9532H34.8439V27.422ZM30.9377 20.3907H9.0625V19.6095H30.9377V20.3907ZM34.8439 18.047H5.15625V12.5782H34.8439V18.047ZM30.9377 11.0156H9.0625V10.2344H30.9377V11.0156Z" fill="white"/>
<path d="M6.71875 6.32812H8.28125V7.89062H6.71875V6.32812Z" fill="white"/>
<path d="M9.0625 3.98438H10.625V5.54688H9.0625V3.98438Z" fill="white"/>
<path d="M11.4062 3.98438H12.9688V5.54688H11.4062V3.98438Z" fill="white"/>
<path d="M13.75 3.98438H15.3125V5.54688H13.75V3.98438Z" fill="white"/>
<path d="M13.75 6.32812H15.3125V7.89062H13.75V6.32812Z" fill="white"/>
<path d="M16.0938 3.98438H17.6562V5.54688H16.0938V3.98438Z" fill="white"/>
<path d="M16.0938 6.32812H17.6562V7.89062H16.0938V6.32812Z" fill="white"/>
<path d="M18.4375 6.32812H20V7.89062H18.4375V6.32812Z" fill="white"/>
<path d="M20.7812 3.98438H22.3438V5.54688H20.7812V3.98438Z" fill="white"/>
<path d="M20.7812 6.32812H22.3438V7.89062H20.7812V6.32812Z" fill="white"/>
<path d="M23.125 3.98438H24.6875V5.54688H23.125V3.98438Z" fill="white"/>
<path d="M25.4688 3.98438H27.0313V5.54688H25.4688V3.98438Z" fill="white"/>
<path d="M25.4688 6.32812H27.0313V7.89062H25.4688V6.32812Z" fill="white"/>
<path d="M29.375 5.54688H33.2812C33.7127 5.54688 34.0625 5.19703 34.0625 4.76562C34.0625 4.33422 33.7127 3.98438 33.2812 3.98438H29.375C28.9436 3.98438 28.5938 4.33422 28.5938 4.76562C28.5938 5.19703 28.9436 5.54688 29.375 5.54688Z" fill="white"/>
<path d="M29.375 7.89062H33.2812C33.7127 7.89062 34.0625 7.54078 34.0625 7.10938C34.0625 6.67797 33.7127 6.32812 33.2812 6.32812H29.375C28.9436 6.32812 28.5938 6.67797 28.5938 7.10938C28.5938 7.54078 28.9436 7.89062 29.375 7.89062Z" fill="white"/>
</svg>
