<svg width="54" height="54" viewBox="0 0 54 54" fill="none" xmlns="http://www.w3.org/2000/svg">
<path d="M25.4588 10.055C25.0011 9.59725 24.2589 9.59725 23.8011 10.055L22.9726 10.8835L15.515 3.42533C15.0572 2.9676 14.3151 2.9676 13.8578 3.42533L3.08549 14.1977C2.62775 14.6554 2.62775 15.3976 3.08549 15.8548L10.5425 23.313L9.71397 24.1415C9.25682 24.5992 9.25682 25.3414 9.71397 25.7992L30.8443 46.9292C35.1851 51.2699 42.248 51.2699 46.5891 46.9292C50.9396 42.5786 50.9402 35.5365 46.5891 31.1848L25.4588 10.055ZM12.2002 21.6558L5.57115 15.0262L14.6865 5.91158L21.3155 12.5405C20.23 13.626 13.2788 20.5767 12.2002 21.6558ZM24.6303 12.5406L44.1031 32.014L38.7169 37.4001L32.8454 31.5282V25.3844C32.8454 25.0737 32.7216 24.7756 32.5019 24.5559L29.1871 21.2417C28.7294 20.784 27.9878 20.784 27.53 21.2417C27.0721 21.6994 27.0722 22.441 27.53 22.8988L30.5013 25.8703V29.1846L23.3866 22.0703C22.9294 21.6126 22.1873 21.6126 21.7294 22.0703C21.2716 22.5281 21.2717 23.2696 21.7294 23.7275L33.454 35.4519L29.7251 35.0377L26.7015 32.014C26.2437 31.5564 25.5016 31.5564 25.0443 32.014C24.5866 32.4712 24.5866 33.2133 25.0443 33.6713L28.3584 36.9861C28.5466 37.1738 28.7933 37.2928 29.0578 37.3218L36.1066 38.1047L37.0594 39.0575L31.6733 44.4437L12.2002 24.9701C15.012 22.1582 22.1899 14.9805 24.6303 12.5406ZM44.9316 45.2719C41.7855 48.4181 36.8302 48.6731 33.3871 46.0438C33.9492 45.4819 45.114 34.3177 45.7035 33.7277C48.3335 37.1705 48.0776 42.126 44.9316 45.2719Z" fill="#FF3B00"/>
<path d="M17.1797 11.7109L15.5228 13.3678L13.866 11.7109L15.5228 10.0541L17.1797 11.7109Z" fill="#FF3B00"/>
<path d="M9.71875 15.8564L11.3765 17.514L13.0335 15.8564L11.3765 14.1992L9.71875 15.8564Z" fill="#FF3B00"/>
<path d="M12.3516 41.9336C12.3516 39.995 10.7745 38.418 8.83594 38.418C6.89742 38.418 5.32031 39.995 5.32031 41.9336C5.32031 43.8722 6.8973 45.4492 8.83594 45.4492C10.7746 45.4492 12.3516 43.8722 12.3516 41.9336ZM7.66395 41.9336C7.66395 41.2874 8.18918 40.7617 8.83582 40.7617C9.48246 40.7617 10.0077 41.2874 10.0077 41.9336C10.0077 42.5798 9.48246 43.1055 8.83582 43.1055C8.18918 43.1055 7.66395 42.5798 7.66395 41.9336Z" fill="#FF3B00"/>
<path d="M48.6797 12.6367C46.095 12.6367 43.9922 14.7395 43.9922 17.3242C43.9922 19.9089 46.095 22.0117 48.6797 22.0117C51.2644 22.0117 53.3672 19.9088 53.3672 17.3242C53.3672 14.7396 51.2644 12.6367 48.6797 12.6367ZM48.6797 19.668C47.3871 19.668 46.3359 18.6168 46.3359 17.3242C46.3359 16.0316 47.3871 14.9805 48.6797 14.9805C49.9723 14.9805 51.0234 16.0316 51.0234 17.3242C51.0234 18.6168 49.9723 19.668 48.6797 19.668Z" fill="#FF3B00"/>
<path d="M34.0312 9.12109C36.2926 9.12109 38.1329 7.2809 38.1329 5.01953C38.1329 2.75758 36.2926 0.917969 34.0312 0.917969C31.7699 0.917969 29.9297 2.75758 29.9297 5.01953C29.9297 7.2809 31.7699 9.12109 34.0312 9.12109ZM34.0312 3.26172C35.0005 3.26172 35.7891 4.05027 35.7891 5.01953C35.7891 5.98891 35.0005 6.77734 34.0312 6.77734C33.062 6.77734 32.2734 5.98879 32.2734 5.01953C32.2734 4.05016 33.062 3.26172 34.0312 3.26172Z" fill="#FF3B00"/>
<path d="M2.97656 33.7305C3.62377 33.7305 4.14844 33.2058 4.14844 32.5586C4.14844 31.9114 3.62377 31.3867 2.97656 31.3867C2.32935 31.3867 1.80469 31.9114 1.80469 32.5586C1.80469 33.2058 2.32935 33.7305 2.97656 33.7305Z" fill="#FF3B00"/>
<path d="M21.7266 46.6211C22.3738 46.6211 22.8984 46.0964 22.8984 45.4492C22.8984 44.802 22.3738 44.2773 21.7266 44.2773C21.0794 44.2773 20.5547 44.802 20.5547 45.4492C20.5547 46.0964 21.0794 46.6211 21.7266 46.6211Z" fill="#FF3B00"/>
<path d="M49.8516 27.8711C50.4988 27.8711 51.0234 27.3464 51.0234 26.6992C51.0234 26.052 50.4988 25.5273 49.8516 25.5273C49.2044 25.5273 48.6797 26.052 48.6797 26.6992C48.6797 27.3464 49.2044 27.8711 49.8516 27.8711Z" fill="#FF3B00"/>
<path d="M45.1641 6.77734C45.8113 6.77734 46.3359 6.25268 46.3359 5.60547C46.3359 4.95826 45.8113 4.43359 45.1641 4.43359C44.5169 4.43359 43.9922 4.95826 43.9922 5.60547C43.9922 6.25268 44.5169 6.77734 45.1641 6.77734Z" fill="#FF3B00"/>
<path d="M22.8984 31.3867C23.5456 31.3867 24.0703 30.8621 24.0703 30.2148C24.0703 29.5676 23.5456 29.043 22.8984 29.043C22.2512 29.043 21.7266 29.5676 21.7266 30.2148C21.7266 30.8621 22.2512 31.3867 22.8984 31.3867Z" fill="#FF3B00"/>
<path d="M21.7266 3.26172C22.3738 3.26172 22.8984 2.73705 22.8984 2.08984C22.8984 1.44264 22.3738 0.917969 21.7266 0.917969C21.0794 0.917969 20.5547 1.44264 20.5547 2.08984C20.5547 2.73705 21.0794 3.26172 21.7266 3.26172Z" fill="#FF3B00"/>
<path d="M47.508 51.3086H6.49219C5.84508 51.3086 5.32031 51.8335 5.32031 52.4805C5.32031 53.1276 5.84508 53.6523 6.49219 53.6523H47.508C48.1552 53.6523 48.6799 53.1276 48.6799 52.4805C48.6799 51.8334 48.1552 51.3086 47.508 51.3086Z" fill="#FF3B00"/>
<path d="M15.8672 48.9648C15.8672 48.3179 15.3424 47.793 14.6953 47.793H1.80469C1.15758 47.793 0.632812 48.3179 0.632812 48.9648C0.632812 49.6121 1.15758 50.1368 1.80469 50.1368H14.6953C15.3424 50.1368 15.8672 49.6121 15.8672 48.9648Z" fill="#FF3B00"/>
</svg>
