<svg width="41" height="40" viewBox="0 0 41 40" fill="none" xmlns="http://www.w3.org/2000/svg">
<path d="M8 14.1406H9.5625V15.7031H8V14.1406Z" fill="#05091D"/>
<path d="M10.3438 14.1406H11.9062V15.7031H10.3438V14.1406Z" fill="#05091D"/>
<path d="M12.6875 14.1406H14.25V15.7031H12.6875V14.1406Z" fill="#05091D"/>
<path d="M15.0312 14.1406H16.5938V15.7031H15.0312V14.1406Z" fill="#05091D"/>
<path d="M17.375 14.1406H18.9375V15.7031H17.375V14.1406Z" fill="#05091D"/>
<path d="M19.7188 14.1406H21.2812V15.7031H19.7188V14.1406Z" fill="#05091D"/>
<path d="M26.75 14.1406H28.3126V15.7031H26.75V14.1406Z" fill="#05091D"/>
<path d="M31.4375 14.1406H33V15.7031H31.4375V14.1406Z" fill="#05091D"/>
<path d="M29.0938 14.1406H30.6562V15.7031H29.0938V14.1406Z" fill="#05091D"/>
<path d="M29.0938 16.4844H30.6562V18.0469H29.0938V16.4844Z" fill="#05091D"/>
<path d="M29.0938 18.8281H30.6562V20.3906H29.0938V18.8281Z" fill="#05091D"/>
<path d="M29.0938 21.1719H30.6562V22.7344H29.0938V21.1719Z" fill="#05091D"/>
<path d="M8 16.4844H9.5625V18.0469H8V16.4844Z" fill="#05091D"/>
<path d="M10.3438 16.4844H11.9062V18.0469H10.3438V16.4844Z" fill="#05091D"/>
<path d="M12.6875 16.4844H14.25V18.0469H12.6875V16.4844Z" fill="#05091D"/>
<path d="M15.0312 16.4844H16.5938V18.0469H15.0312V16.4844Z" fill="#05091D"/>
<path d="M17.375 16.4844H18.9375V18.0469H17.375V16.4844Z" fill="#05091D"/>
<path d="M19.7188 16.4844H21.2812V18.0469H19.7188V16.4844Z" fill="#05091D"/>
<path d="M26.75 16.4844H28.3126V18.0469H26.75V16.4844Z" fill="#05091D"/>
<path d="M31.4375 16.4844H33V18.0469H31.4375V16.4844Z" fill="#05091D"/>
<path d="M8 18.8281H9.5625V20.3906H8V18.8281Z" fill="#05091D"/>
<path d="M10.3438 18.8281H11.9062V20.3906H10.3438V18.8281Z" fill="#05091D"/>
<path d="M12.6875 18.8281H14.25V20.3906H12.6875V18.8281Z" fill="#05091D"/>
<path d="M15.0312 18.8281H16.5938V20.3906H15.0312V18.8281Z" fill="#05091D"/>
<path d="M17.375 18.8281H18.9375V20.3906H17.375V18.8281Z" fill="#05091D"/>
<path d="M26.75 18.8281H28.3126V20.3906H26.75V18.8281Z" fill="#05091D"/>
<path d="M8 21.1719H9.5625V22.7344H8V21.1719Z" fill="#05091D"/>
<path d="M10.3438 21.1719H11.9062V22.7344H10.3438V21.1719Z" fill="#05091D"/>
<path d="M12.6875 21.1719H21.2812V22.7344H12.6875V21.1719Z" fill="#05091D"/>
<path d="M26.75 21.1719H28.3126V22.7344H26.75V21.1719Z" fill="#05091D"/>
<path d="M31.4375 18.8281H33V22.7344H31.4375V18.8281Z" fill="#05091D"/>
<path d="M34.5626 11.7969H30.6563V9.45312C30.6563 7.29898 28.9038 5.54688 26.75 5.54688C24.5963 5.54688 22.8438 7.29898 22.8438 9.45312V11.7969H18.9375V9.45312C18.9375 7.29898 17.1852 5.54688 15.0312 5.54688C12.8773 5.54688 11.125 7.29898 11.125 9.45312V11.7969H6.4375C6.00609 11.7969 5.65625 12.1467 5.65625 12.5781V24.297C5.65625 24.7283 6.00609 25.0782 6.4375 25.0782H11.125V28.9845C11.125 29.4158 11.4748 29.7657 11.9062 29.7657C12.3377 29.7657 12.6875 29.4158 12.6875 28.9845V25.0782H17.375V27.8126C17.375 29.7512 18.9522 31.3282 20.8906 31.3282C22.8291 31.3282 24.4062 29.7512 24.4062 27.8126V25.0782H29.0938V27.422H26.75C26.3186 27.422 25.9688 27.7719 25.9688 28.2032V33.672C25.9688 35.8258 27.7213 37.5783 29.8751 37.5783C32.0288 37.5783 33.7813 35.8258 33.7813 33.672V28.2032C33.7813 27.7719 33.4315 27.422 33.0001 27.422H30.6563V25.0782H34.5626C34.994 25.0782 35.3438 24.7283 35.3438 24.297V12.5781C35.3438 12.1467 34.994 11.7969 34.5626 11.7969ZM32.2188 28.9845V33.672C32.2188 34.9645 31.1675 36.0158 29.8751 36.0158C28.5827 36.0158 27.5313 34.9645 27.5313 33.672V28.9845H29.0938V31.3282C29.0938 31.7595 29.4437 32.1095 29.8751 32.1095C30.3065 32.1095 30.6563 31.7595 30.6563 31.3282V28.9845H32.2188ZM24.4062 9.45312C24.4062 8.1607 25.4576 7.10938 26.75 7.10938C28.0425 7.10938 29.0938 8.1607 29.0938 9.45312V11.7969H24.4062V9.45312ZM12.6875 9.45312C12.6875 8.1607 13.7388 7.10938 15.0312 7.10938C16.3237 7.10938 17.375 8.1607 17.375 9.45312V11.7969H12.6875V9.45312ZM7.21867 13.3594H22.8438V18.8281H19.7188V20.3906H22.8438V21.1719H22.0625V22.7344H22.8438V23.5156C20.9795 23.5156 8.87008 23.5156 7.21867 23.5156V13.3594ZM22.8438 27.8126C22.8438 28.8895 21.9675 29.7657 20.8906 29.7657C19.8138 29.7657 18.9375 28.8895 18.9375 27.8126V25.0782H22.8438V27.8126ZM33.7813 23.5157H24.4062V22.7345H25.9688V21.172H24.4062V13.3594H33.7813V23.5157Z" fill="#05091D"/>
<path d="M5.65625 30.5469C4.36383 30.5469 3.3125 31.5982 3.3125 32.8906C3.3125 34.183 4.36383 35.2345 5.65625 35.2345C6.94867 35.2345 8 34.183 8 32.8906C8 31.5982 6.94867 30.5469 5.65625 30.5469ZM5.65625 33.6719C5.22539 33.6719 4.875 33.3214 4.875 32.8906C4.875 32.4598 5.22539 32.1094 5.65625 32.1094C6.08711 32.1094 6.4375 32.4598 6.4375 32.8906C6.4375 33.3214 6.08711 33.6719 5.65625 33.6719Z" fill="#05091D"/>
<path d="M6.04688 7.10938C7.12375 7.10938 8 6.23312 8 5.15625C8 4.07937 7.12375 3.20312 6.04688 3.20312C4.97 3.20312 4.09375 4.07937 4.09375 5.15625C4.09375 6.23312 4.97 7.10938 6.04688 7.10938ZM6.04688 4.76562C6.26219 4.76562 6.4375 4.9407 6.4375 5.15625C6.4375 5.3718 6.26219 5.54688 6.04688 5.54688C5.83156 5.54688 5.65625 5.3718 5.65625 5.15625C5.65625 4.9407 5.83156 4.76562 6.04688 4.76562Z" fill="#05091D"/>
<path d="M34.9531 7.89062C36.4607 7.89062 37.6875 6.66383 37.6875 5.15625C37.6875 3.64828 36.4607 2.42188 34.9531 2.42188C33.4455 2.42188 32.2188 3.64828 32.2188 5.15625C32.2188 6.66383 33.4455 7.89062 34.9531 7.89062ZM34.9531 3.98438C35.5993 3.98438 36.125 4.51008 36.125 5.15625C36.125 5.8025 35.5993 6.32812 34.9531 6.32812C34.307 6.32812 33.7812 5.80242 33.7812 5.15625C33.7812 4.51 34.307 3.98438 34.9531 3.98438Z" fill="#05091D"/>
<path d="M18.9375 3.98438C19.369 3.98438 19.7188 3.6346 19.7188 3.20312C19.7188 2.77165 19.369 2.42188 18.9375 2.42188C18.506 2.42188 18.1562 2.77165 18.1562 3.20312C18.1562 3.6346 18.506 3.98438 18.9375 3.98438Z" fill="#05091D"/>
<path d="M29.875 4.76562C30.3065 4.76562 30.6562 4.41585 30.6562 3.98438C30.6562 3.5529 30.3065 3.20312 29.875 3.20312C29.4435 3.20312 29.0938 3.5529 29.0938 3.98438C29.0938 4.41585 29.4435 4.76562 29.875 4.76562Z" fill="#05091D"/>
<path d="M9.5625 9.45312C9.99397 9.45312 10.3438 9.10335 10.3438 8.67188C10.3438 8.2404 9.99397 7.89062 9.5625 7.89062C9.13103 7.89062 8.78125 8.2404 8.78125 8.67188C8.78125 9.10335 9.13103 9.45312 9.5625 9.45312Z" fill="#05091D"/>
<path d="M8.78125 28.9844C9.21272 28.9844 9.5625 28.6346 9.5625 28.2031C9.5625 27.7717 9.21272 27.4219 8.78125 27.4219C8.34978 27.4219 8 27.7717 8 28.2031C8 28.6346 8.34978 28.9844 8.78125 28.9844Z" fill="#05091D"/>
<path d="M15.8125 32.8906C16.244 32.8906 16.5938 32.5408 16.5938 32.1094C16.5938 31.6779 16.244 31.3281 15.8125 31.3281C15.381 31.3281 15.0312 31.6779 15.0312 32.1094C15.0312 32.5408 15.381 32.8906 15.8125 32.8906Z" fill="#05091D"/>
<path d="M36.9062 28.9844C37.3377 28.9844 37.6875 28.6346 37.6875 28.2031C37.6875 27.7717 37.3377 27.4219 36.9062 27.4219C36.4748 27.4219 36.125 27.7717 36.125 28.2031C36.125 28.6346 36.4748 28.9844 36.9062 28.9844Z" fill="#05091D"/>
</svg>
