<svg width="41" height="40" viewBox="0 0 41 40" fill="none" xmlns="http://www.w3.org/2000/svg">
<path d="M7.21875 34.4531H8.78125V36.0157H7.21875V34.4531Z" fill="#05091D"/>
<path d="M9.5625 32.1094H11.125V33.6719H9.5625V32.1094Z" fill="#05091D"/>
<path d="M11.9062 32.1094H13.4688V33.6719H11.9062V32.1094Z" fill="#05091D"/>
<path d="M14.25 32.1094H15.8125V33.6719H14.25V32.1094Z" fill="#05091D"/>
<path d="M10.3438 34.4531H11.9062V36.0157H10.3438V34.4531Z" fill="#05091D"/>
<path d="M18.9375 32.1094H20.5V33.6719H18.9375V32.1094Z" fill="#05091D"/>
<path d="M16.5938 34.4531H18.1562V36.0157H16.5938V34.4531Z" fill="#05091D"/>
<path d="M18.9375 34.4531H20.5V36.0157H18.9375V34.4531Z" fill="#05091D"/>
<path d="M21.2812 32.1094H22.8438V33.6719H21.2812V32.1094Z" fill="#05091D"/>
<path d="M21.2812 34.4531H22.8438V36.0157H21.2812V34.4531Z" fill="#05091D"/>
<path d="M23.625 32.1094H25.1875V33.6719H23.625V32.1094Z" fill="#05091D"/>
<path d="M25.9688 32.1094H27.5313V33.6719H25.9688V32.1094Z" fill="#05091D"/>
<path d="M23.625 34.4531H25.1875V36.0157H23.625V34.4531Z" fill="#05091D"/>
<path d="M29.0938 32.8906C29.0938 33.3221 29.4436 33.6719 29.875 33.6719H33.7812C34.2127 33.6719 34.5625 33.3221 34.5625 32.8906C34.5625 32.4593 34.2127 32.1094 33.7812 32.1094H29.875C29.4436 32.1094 29.0938 32.4593 29.0938 32.8906Z" fill="#05091D"/>
<path d="M33.7812 34.4531H29.875C29.4436 34.4531 29.0938 34.803 29.0938 35.2345C29.0938 35.6659 29.4436 36.0157 29.875 36.0157H33.7812C34.2127 36.0157 34.5625 35.6659 34.5625 35.2345C34.5625 34.803 34.2127 34.4531 33.7812 34.4531Z" fill="#05091D"/>
<path d="M7.21875 25.0781H8.78125V26.6406H7.21875V25.0781Z" fill="#05091D"/>
<path d="M9.5625 22.7344H11.125V24.2969H9.5625V22.7344Z" fill="#05091D"/>
<path d="M11.9062 22.7344H13.4688V24.2969H11.9062V22.7344Z" fill="#05091D"/>
<path d="M14.25 22.7344H15.8125V24.2969H14.25V22.7344Z" fill="#05091D"/>
<path d="M14.25 25.0781H15.8125V26.6406H14.25V25.0781Z" fill="#05091D"/>
<path d="M16.5938 22.7344H18.1562V24.2969H16.5938V22.7344Z" fill="#05091D"/>
<path d="M16.5938 25.0781H18.1562V26.6406H16.5938V25.0781Z" fill="#05091D"/>
<path d="M18.9375 25.0781H20.5V26.6406H18.9375V25.0781Z" fill="#05091D"/>
<path d="M21.2812 22.7344H22.8438V24.2969H21.2812V22.7344Z" fill="#05091D"/>
<path d="M21.2812 25.0781H22.8438V26.6406H21.2812V25.0781Z" fill="#05091D"/>
<path d="M23.625 22.7344H25.1875V24.2969H23.625V22.7344Z" fill="#05091D"/>
<path d="M25.9688 22.7344H27.5313V24.2969H25.9688V22.7344Z" fill="#05091D"/>
<path d="M25.9688 25.0781H27.5313V26.6406H25.9688V25.0781Z" fill="#05091D"/>
<path d="M29.0938 23.5156C29.0938 23.947 29.4436 24.2969 29.875 24.2969H33.7812C34.2127 24.2969 34.5625 23.947 34.5625 23.5156C34.5625 23.0843 34.2127 22.7344 33.7812 22.7344H29.875C29.4436 22.7344 29.0938 23.0843 29.0938 23.5156Z" fill="#05091D"/>
<path d="M33.7812 25.0781H29.875C29.4436 25.0781 29.0938 25.428 29.0938 25.8594C29.0938 26.2907 29.4436 26.6406 29.875 26.6406H33.7812C34.2127 26.6406 34.5625 26.2907 34.5625 25.8594C34.5625 25.428 34.2127 25.0781 33.7812 25.0781Z" fill="#05091D"/>
<path d="M25.9688 13.3594H27.5313V14.9219H25.9688V13.3594Z" fill="#05091D"/>
<path d="M23.625 15.7031H25.1875V17.2656H23.625V15.7031Z" fill="#05091D"/>
<path d="M21.2812 15.7031H22.8438V17.2656H21.2812V15.7031Z" fill="#05091D"/>
<path d="M18.9375 15.7031H20.5V17.2656H18.9375V15.7031Z" fill="#05091D"/>
<path d="M18.9375 13.3594H20.5V14.9219H18.9375V13.3594Z" fill="#05091D"/>
<path d="M16.5938 15.7031H18.1562V17.2656H16.5938V15.7031Z" fill="#05091D"/>
<path d="M16.5938 13.3594H18.1562V14.9219H16.5938V13.3594Z" fill="#05091D"/>
<path d="M14.25 13.3594H15.8125V14.9219H14.25V13.3594Z" fill="#05091D"/>
<path d="M11.9062 15.7031H13.4688V17.2656H11.9062V15.7031Z" fill="#05091D"/>
<path d="M11.9062 13.3594H13.4688V14.9219H11.9062V13.3594Z" fill="#05091D"/>
<path d="M9.5625 15.7031H11.125V17.2656H9.5625V15.7031Z" fill="#05091D"/>
<path d="M7.21875 15.7031H8.78125V17.2656H7.21875V15.7031Z" fill="#05091D"/>
<path d="M7.21875 13.3594H8.78125V14.9219H7.21875V13.3594Z" fill="#05091D"/>
<path d="M29.0938 14.1406C29.0938 14.572 29.4436 14.9219 29.875 14.9219H33.7812C34.2127 14.9219 34.5625 14.572 34.5625 14.1406C34.5625 13.7092 34.2127 13.3594 33.7812 13.3594H29.875C29.4436 13.3594 29.0938 13.7092 29.0938 14.1406Z" fill="#05091D"/>
<path d="M33.7812 15.7031H29.875C29.4436 15.7031 29.0938 16.053 29.0938 16.4844C29.0938 16.9158 29.4436 17.2656 29.875 17.2656H33.7812C34.2127 17.2656 34.5625 16.9158 34.5625 16.4844C34.5625 16.053 34.2127 15.7031 33.7812 15.7031Z" fill="#05091D"/>
<path d="M36.1252 10.2344C36.5566 10.2344 36.9064 9.88453 36.9064 9.45312V2.42188C36.9064 1.99047 36.5566 1.64062 36.1252 1.64062H4.875C4.44359 1.64062 4.09375 1.99047 4.09375 2.42188V9.45312C4.09375 9.88453 4.44359 10.2344 4.875 10.2344H8V11.0156H4.875C4.44359 11.0156 4.09375 11.3655 4.09375 11.7969V18.8281C4.09375 19.2595 4.44359 19.6094 4.875 19.6094H8V20.3906H4.875C4.44359 20.3906 4.09375 20.7405 4.09375 21.1719V28.2031C4.09375 28.6345 4.44359 28.9844 4.875 28.9844H8V29.7656H4.875C4.44359 29.7656 4.09375 30.1155 4.09375 30.5469V37.5782C4.09375 38.0096 4.44359 38.3595 4.875 38.3595H36.1252C36.5566 38.3595 36.9064 38.0096 36.9064 37.5782V30.547C36.9064 30.1156 36.5566 29.7657 36.1252 29.7657H33.0002V28.9845H36.1252C36.5566 28.9845 36.9064 28.6345 36.9064 28.2032V21.172C36.9064 20.7406 36.5566 20.3907 36.1252 20.3907H33.0002V19.6095H36.1252C36.5566 19.6095 36.9064 19.2596 36.9064 18.8282V11.797C36.9064 11.3655 36.5566 11.0157 36.1252 11.0157H33.0002V10.2345L36.1252 10.2344ZM5.65625 3.20312H35.3439V8.67188H5.65625V3.20312ZM35.3439 36.797H5.65625V31.3282H35.3439V36.797ZM31.4377 29.7657H9.5625V28.9845H31.4377V29.7657ZM35.3439 27.422H5.65625V21.9532H35.3439V27.422ZM31.4377 20.3907H9.5625V19.6095H31.4377V20.3907ZM35.3439 18.047H5.65625V12.5782H35.3439V18.047ZM31.4377 11.0156H9.5625V10.2344H31.4377V11.0156Z" fill="#05091D"/>
<path d="M7.21875 6.32812H8.78125V7.89062H7.21875V6.32812Z" fill="#05091D"/>
<path d="M9.5625 3.98438H11.125V5.54688H9.5625V3.98438Z" fill="#05091D"/>
<path d="M11.9062 3.98438H13.4688V5.54688H11.9062V3.98438Z" fill="#05091D"/>
<path d="M14.25 3.98438H15.8125V5.54688H14.25V3.98438Z" fill="#05091D"/>
<path d="M14.25 6.32812H15.8125V7.89062H14.25V6.32812Z" fill="#05091D"/>
<path d="M16.5938 3.98438H18.1562V5.54688H16.5938V3.98438Z" fill="#05091D"/>
<path d="M16.5938 6.32812H18.1562V7.89062H16.5938V6.32812Z" fill="#05091D"/>
<path d="M18.9375 6.32812H20.5V7.89062H18.9375V6.32812Z" fill="#05091D"/>
<path d="M21.2812 3.98438H22.8438V5.54688H21.2812V3.98438Z" fill="#05091D"/>
<path d="M21.2812 6.32812H22.8438V7.89062H21.2812V6.32812Z" fill="#05091D"/>
<path d="M23.625 3.98438H25.1875V5.54688H23.625V3.98438Z" fill="#05091D"/>
<path d="M25.9688 3.98438H27.5313V5.54688H25.9688V3.98438Z" fill="#05091D"/>
<path d="M25.9688 6.32812H27.5313V7.89062H25.9688V6.32812Z" fill="#05091D"/>
<path d="M29.875 5.54688H33.7812C34.2127 5.54688 34.5625 5.19703 34.5625 4.76562C34.5625 4.33422 34.2127 3.98438 33.7812 3.98438H29.875C29.4436 3.98438 29.0938 4.33422 29.0938 4.76562C29.0938 5.19703 29.4436 5.54688 29.875 5.54688Z" fill="#05091D"/>
<path d="M29.875 7.89062H33.7812C34.2127 7.89062 34.5625 7.54078 34.5625 7.10938C34.5625 6.67797 34.2127 6.32812 33.7812 6.32812H29.875C29.4436 6.32812 29.0938 6.67797 29.0938 7.10938C29.0938 7.54078 29.4436 7.89062 29.875 7.89062Z" fill="#05091D"/>
</svg>
