<svg width="30" height="30" viewBox="0 0 30 30" fill="none" xmlns="http://www.w3.org/2000/svg">
<g clip-path="url(#clip0_8874_1764)">
<path d="M26.0682 11.1497C24.8927 7.78025 22.2198 5.1075 18.8503 3.93187C17.7806 1.98955 16.4417 0.9375 14.9999 0.9375C13.558 0.9375 12.2193 1.98949 11.1496 3.93187C7.78025 5.1075 5.10715 7.78025 3.93187 11.1497C1.98978 12.2194 0.9375 13.5584 0.9375 15.0001C0.9375 16.4418 1.98978 17.7808 3.93187 18.8505C5.10721 22.2199 7.78025 24.8927 11.1497 26.0684C12.2194 28.0105 13.5581 29.0628 15.0001 29.0628C16.4417 29.0628 17.7807 28.0105 18.8504 26.0684C22.2199 24.8929 24.8927 22.2199 26.0683 18.8505C28.0103 17.7807 29.0626 16.4418 29.0626 15.0001C29.0626 13.5584 28.0103 12.2194 26.0682 11.1497ZM25.1013 18.0345C23.8021 18.6791 22.2821 19.1276 20.8526 19.4198C21.2522 16.5663 21.2528 13.4372 20.8526 10.5804C22.2831 10.8728 23.8038 11.3217 25.1013 11.9654C25.6803 13.8892 25.7109 16.0093 25.1013 18.0345ZM18.0345 25.1013C16.111 25.6804 13.991 25.711 11.9657 25.1013C11.3219 23.8038 10.8727 22.2831 10.5803 20.8526C13.434 21.2523 16.563 21.2526 19.4198 20.8526C19.1276 22.2816 18.679 23.8021 18.0345 25.1013ZM10.3629 19.637C9.9177 16.7508 9.89227 13.4142 10.3629 10.3632C13.2494 9.91775 16.5857 9.89232 19.6372 10.3632C20.0825 13.2495 20.1079 16.5857 19.6369 19.637C16.7507 20.0824 13.4145 20.1079 10.3629 19.637ZM4.89885 11.9654C6.19717 11.3214 7.71814 10.8725 9.14748 10.5804C8.74811 13.4329 8.74723 16.5631 9.14748 19.4198C7.72154 19.1283 6.20062 18.6803 4.89885 18.0345C4.31982 16.1111 4.28918 13.991 4.89885 11.9654ZM11.9657 4.89867C13.8888 4.31988 16.0092 4.2893 18.0345 4.89867C18.6804 6.20127 19.1282 7.72166 19.4198 9.1473C16.5673 8.74793 13.4371 8.74734 10.5803 9.1473C10.8727 7.71674 11.3219 6.19641 11.9657 4.89867ZM24.4999 10.4204C23.3535 9.96984 22.0537 9.60961 20.652 9.34811C20.3905 7.94619 20.0303 6.6467 19.5797 5.50031C21.7221 6.53742 23.4628 8.27807 24.4999 10.4204ZM15.0001 2.10943C15.7393 2.10943 16.4863 2.59324 17.1698 3.48357C15.7355 3.21381 14.2648 3.21381 12.8302 3.48357C13.5138 2.59318 14.2608 2.10943 15.0001 2.10943ZM10.4204 5.50031C9.96979 6.6467 9.60955 7.94619 9.34805 9.34811C7.94643 9.60961 6.64664 9.96978 5.50025 10.4204C6.53707 8.27807 8.27807 6.53742 10.4204 5.50031ZM2.10938 15.0001C2.10938 14.2605 2.59289 13.5138 3.48352 12.83C3.21375 14.2645 3.21375 15.7354 3.48352 17.17C2.59289 16.4864 2.10938 15.7394 2.10938 15.0001ZM5.50025 19.5797C6.64664 20.0303 7.94648 20.3906 9.34805 20.6521C9.60955 22.0537 9.96973 23.3535 10.4204 24.4999C8.27807 23.4628 6.53736 21.7222 5.50025 19.5797ZM15.0001 27.8908C14.2608 27.8908 13.5138 27.407 12.8303 26.5167C14.2645 26.7862 15.7354 26.7864 17.1699 26.5167C16.4863 27.407 15.7393 27.8908 15.0001 27.8908ZM19.5797 24.4999C20.0302 23.3535 20.3905 22.0537 20.652 20.6521C22.0537 20.3906 23.3534 20.0304 24.4999 19.5797C23.4628 21.7222 21.7221 23.4628 19.5797 24.4999ZM26.5166 17.1699C26.7864 15.7356 26.7864 14.2648 26.5166 12.83C27.4069 13.5138 27.8907 14.2605 27.8907 15.0001C27.8907 15.7394 27.4069 16.4864 26.5166 17.1699Z" fill="#2B4DFF"/>
<path d="M3.86719 23.7891C2.89787 23.7891 2.10938 24.5776 2.10938 25.5469C2.10938 26.5163 2.89787 27.3047 3.86719 27.3047C4.8365 27.3047 5.625 26.5163 5.625 25.5469C5.625 24.5776 4.8365 23.7891 3.86719 23.7891ZM3.86719 26.1329C3.54387 26.1329 3.28125 25.87 3.28125 25.5469C3.28125 25.2239 3.54387 24.9609 3.86719 24.9609C4.19051 24.9609 4.45312 25.2239 4.45312 25.5469C4.45312 25.87 4.19051 26.1329 3.86719 26.1329Z" fill="#2B4DFF"/>
<path d="M5.03906 6.21094C6.00838 6.21094 6.79688 5.42215 6.79688 4.45312C6.79688 3.48381 6.00838 2.69531 5.03906 2.69531C4.06975 2.69531 3.28125 3.48381 3.28125 4.45312C3.28125 5.42215 4.06975 6.21094 5.03906 6.21094ZM5.03906 3.86719C5.36238 3.86719 5.625 4.13016 5.625 4.45312C5.625 4.77609 5.36238 5.03906 5.03906 5.03906C4.71574 5.03906 4.45312 4.77615 4.45312 4.45312C4.45312 4.1301 4.71574 3.86719 5.03906 3.86719Z" fill="#2B4DFF"/>
<path d="M25.8398 6.21094C26.9705 6.21094 27.8906 5.29084 27.8906 4.16016C27.8906 3.02918 26.9705 2.10938 25.8398 2.10938C24.7092 2.10938 23.7891 3.02918 23.7891 4.16016C23.7891 5.29084 24.7092 6.21094 25.8398 6.21094ZM25.8398 3.28125C26.3245 3.28125 26.7188 3.67553 26.7188 4.16016C26.7188 4.64479 26.3245 5.03906 25.8398 5.03906C25.3552 5.03906 24.9609 4.64479 24.9609 4.16016C24.9609 3.67547 25.3552 3.28125 25.8398 3.28125Z" fill="#2B4DFF"/>
<path d="M14.4141 14.4141H15.5859V15.5859H14.4141V14.4141Z" fill="#2B4DFF"/>
<path d="M16.1719 14.4141H17.3438V15.5859H16.1719V14.4141Z" fill="#2B4DFF"/>
<path d="M12.6562 14.4141H13.8281V15.5859H12.6562V14.4141Z" fill="#2B4DFF"/>
<path d="M7.96875 3.86719C8.29235 3.86719 8.55469 3.60485 8.55469 3.28125C8.55469 2.95765 8.29235 2.69531 7.96875 2.69531C7.64515 2.69531 7.38281 2.95765 7.38281 3.28125C7.38281 3.60485 7.64515 3.86719 7.96875 3.86719Z" fill="#2B4DFF"/>
<path d="M2.69531 9.14062C3.01892 9.14062 3.28125 8.87829 3.28125 8.55469C3.28125 8.23108 3.01892 7.96875 2.69531 7.96875C2.37171 7.96875 2.10938 8.23108 2.10938 8.55469C2.10938 8.87829 2.37171 9.14062 2.69531 9.14062Z" fill="#2B4DFF"/>
<path d="M24.375 27.3047C24.6986 27.3047 24.9609 27.0424 24.9609 26.7188C24.9609 26.3951 24.6986 26.1328 24.375 26.1328C24.0514 26.1328 23.7891 26.3951 23.7891 26.7188C23.7891 27.0424 24.0514 27.3047 24.375 27.3047Z" fill="#2B4DFF"/>
<path d="M26.7188 23.7891C27.0424 23.7891 27.3047 23.5267 27.3047 23.2031C27.3047 22.8795 27.0424 22.6172 26.7188 22.6172C26.3951 22.6172 26.1328 22.8795 26.1328 23.2031C26.1328 23.5267 26.3951 23.7891 26.7188 23.7891Z" fill="#2B4DFF"/>
<path d="M26.7188 9.14062C27.0424 9.14062 27.3047 8.87829 27.3047 8.55469C27.3047 8.23108 27.0424 7.96875 26.7188 7.96875C26.3951 7.96875 26.1328 8.23108 26.1328 8.55469C26.1328 8.87829 26.3951 9.14062 26.7188 9.14062Z" fill="#2B4DFF"/>
<path d="M7.96875 27.3047C8.29235 27.3047 8.55469 27.0424 8.55469 26.7188C8.55469 26.3951 8.29235 26.1328 7.96875 26.1328C7.64515 26.1328 7.38281 26.3951 7.38281 26.7188C7.38281 27.0424 7.64515 27.3047 7.96875 27.3047Z" fill="#2B4DFF"/>
</g>
<defs>
<clipPath id="clip0_8874_1764">
<rect width="30" height="30" fill="white"/>
</clipPath>
</defs>
</svg>
