<svg width="60" height="60" viewBox="0 0 60 60" fill="none" xmlns="http://www.w3.org/2000/svg">
<path d="M53.4377 1.875H6.5625C5.91539 1.875 5.39062 2.39977 5.39062 3.04688V56.9534C5.39062 57.6005 5.91539 58.1252 6.5625 58.1252H53.4377C54.0848 58.1252 54.6096 57.6005 54.6096 56.9534V3.04688C54.6096 2.39965 54.0848 1.875 53.4377 1.875ZM52.2659 4.21875V6.5625H26.4845C25.8374 6.5625 25.3126 7.08727 25.3126 7.73438C25.3126 8.3816 25.8374 8.90625 26.4845 8.90625H52.2659V11.25H7.73438V4.21875H52.2659ZM7.73438 55.7815V13.5938H52.2659V55.7815H7.73438Z" fill="white"/>
<path d="M48.7502 15.9375H11.25C10.6029 15.9375 10.0781 16.4623 10.0781 17.1094V52.2659C10.0781 52.913 10.6029 53.4377 11.25 53.4377H48.7502C49.3973 53.4377 49.9221 52.913 49.9221 52.2659V17.1094C49.9221 16.4623 49.3973 15.9375 48.7502 15.9375ZM47.5784 51.0939H12.4219V18.2812H47.5784V51.0939Z" fill="white"/>
<path d="M13.5938 19.4531H15.9375V21.7969H13.5938V19.4531Z" fill="white"/>
<path d="M17.1094 19.4531H42.8907V21.7969H17.1094V19.4531Z" fill="white"/>
<path d="M17.1094 47.5781H42.8907V49.9219H17.1094V47.5781Z" fill="white"/>
<path d="M10.0781 6.5625H12.4219V8.90625H10.0781V6.5625Z" fill="white"/>
<path d="M13.5938 6.5625H15.9375V8.90625H13.5938V6.5625Z" fill="white"/>
<path d="M17.1094 6.5625H19.4531V8.90625H17.1094V6.5625Z" fill="white"/>
<path d="M13.5938 47.5781H15.9375V49.9219H13.5938V47.5781Z" fill="white"/>
<path d="M13.5938 22.9688H15.9375V46.4062H13.5938V22.9688Z" fill="white"/>
<path d="M44.0625 19.4531H46.4062V21.7969H44.0625V19.4531Z" fill="white"/>
<path d="M44.0625 47.5781H46.4062V49.9219H44.0625V47.5781Z" fill="white"/>
<path d="M44.0625 22.9688H46.4062V46.4062H44.0625V22.9688Z" fill="white"/>
<path d="M19.4531 34.6875C19.4531 40.5028 24.1847 45.2344 30 45.2344C35.8153 45.2344 40.547 40.5028 40.547 34.6875C40.547 28.8716 35.8153 24.1406 30 24.1406C24.1847 24.1406 19.4531 28.8716 19.4531 34.6875ZM38.2031 34.6875C38.2031 39.2109 34.5233 42.8906 30 42.8906C25.4767 42.8906 21.7969 39.2109 21.7969 34.6875C21.7969 30.1641 25.4768 26.4844 30 26.4844C34.5233 26.4844 38.2031 30.1641 38.2031 34.6875Z" fill="white"/>
<path d="M25.8598 34.8295C25.4021 34.3724 24.6605 34.3724 24.2027 34.8295C23.7449 35.2872 23.7449 36.0294 24.2027 36.4872L27.5169 39.8014C27.9746 40.259 28.7167 40.259 29.1746 39.8014L35.8035 33.1723C36.2613 32.7147 36.2613 31.9726 35.8035 31.5152C35.3464 31.0574 34.6042 31.0574 34.1464 31.5152L28.3458 37.3156L25.8598 34.8295Z" fill="white"/>
</svg>
