<svg width="30" height="30" viewBox="0 0 30 30" fill="none" xmlns="http://www.w3.org/2000/svg">
<path d="M24.0782 21.4454C23.7547 21.4454 23.4923 21.7078 23.4923 22.0313V24.961H6.5V2.69531H19.9766V5.625C19.9766 5.94855 20.239 6.21094 20.5626 6.21094H23.4923V9.72656C23.4923 10.0501 23.7547 10.3125 24.0782 10.3125C24.4018 10.3125 24.6642 10.0501 24.6642 9.72656C24.663 5.35922 24.6705 5.59869 24.6528 5.50969C24.6382 5.43703 24.611 5.37123 24.5724 5.31111C24.5701 5.30713 24.5679 5.30309 24.5652 5.2991C24.5592 5.28996 24.5335 5.25592 24.5309 5.25275C24.5215 5.24133 24.5111 5.23043 24.5008 5.21959C24.4979 5.21672 24.4954 5.21355 24.4925 5.21045C20.7577 1.4768 20.9564 1.66559 20.8773 1.61555C20.7797 1.5532 20.6685 1.52344 20.5626 1.52344H5.91406C5.59051 1.52344 5.32812 1.78582 5.32812 2.10938V27.8907C5.32812 28.2143 5.59051 28.4767 5.91406 28.4767H24.0782C24.4018 28.4767 24.6642 28.2143 24.6642 27.8907V22.0313C24.6642 21.7078 24.4018 21.4454 24.0782 21.4454ZM21.1486 3.52383L22.6637 5.03906H21.1486V3.52383ZM6.5 27.3048V26.1329H23.4923V27.3048H6.5Z" fill="#2B4DFF"/>
<path d="M10.6016 10.8984H11.7734V12.0703H10.6016V10.8984Z" fill="#2B4DFF"/>
<path d="M7.67188 3.86719H13.5312V5.03906H7.67188V3.86719Z" fill="#2B4DFF"/>
<path d="M7.67188 5.625H17.6328V6.79688H7.67188V5.625Z" fill="#2B4DFF"/>
<path d="M12.3594 10.8984H13.5312V12.0703H12.3594V10.8984Z" fill="#2B4DFF"/>
<path d="M14.1172 10.8984H15.2891V12.0703H14.1172V10.8984Z" fill="#2B4DFF"/>
<path d="M15.875 10.8984H17.0469V12.0703H15.875V10.8984Z" fill="#2B4DFF"/>
<path d="M17.6328 10.8984H18.8047V12.0703H17.6328V10.8984Z" fill="#2B4DFF"/>
<path d="M19.3906 10.8984H20.5626V12.0703H19.3906V10.8984Z" fill="#2B4DFF"/>
<path d="M21.1484 10.8984H22.3203V12.0703H21.1484V10.8984Z" fill="#2B4DFF"/>
<path d="M22.9062 10.8984H24.0781V12.0703H22.9062V10.8984Z" fill="#2B4DFF"/>
<path d="M24.6641 10.8984H25.8359V12.0703H24.6641V10.8984Z" fill="#2B4DFF"/>
<path d="M10.6016 12.6562H11.7734V13.8281H10.6016V12.6562Z" fill="#2B4DFF"/>
<path d="M12.3594 12.6562H13.5312V13.8281H12.3594V12.6562Z" fill="#2B4DFF"/>
<path d="M14.1172 12.6562H15.2891V13.8281H14.1172V12.6562Z" fill="#2B4DFF"/>
<path d="M15.875 12.6562H17.0469V13.8281H15.875V12.6562Z" fill="#2B4DFF"/>
<path d="M17.6328 12.6562H18.8047V13.8281H17.6328V12.6562Z" fill="#2B4DFF"/>
<path d="M19.3906 12.6562H20.5626V13.8281H19.3906V12.6562Z" fill="#2B4DFF"/>
<path d="M21.1484 12.6562H22.3203V13.8281H21.1484V12.6562Z" fill="#2B4DFF"/>
<path d="M24.6641 12.6562H25.8359V13.8281H24.6641V12.6562Z" fill="#2B4DFF"/>
<path d="M10.6016 14.4141H11.7734V15.5859H10.6016V14.4141Z" fill="#2B4DFF"/>
<path d="M12.3594 14.4141H13.5312V15.5859H12.3594V14.4141Z" fill="#2B4DFF"/>
<path d="M14.1172 14.4141H15.2891V15.5859H14.1172V14.4141Z" fill="#2B4DFF"/>
<path d="M15.875 14.4141H17.0469V15.5859H15.875V14.4141Z" fill="#2B4DFF"/>
<path d="M17.6328 14.4141H18.8047V15.5859H17.6328V14.4141Z" fill="#2B4DFF"/>
<path d="M19.3906 14.4141H20.5626V15.5859H19.3906V14.4141Z" fill="#2B4DFF"/>
<path d="M21.1484 14.4141H22.3203V15.5859H21.1484V14.4141Z" fill="#2B4DFF"/>
<path d="M22.9062 14.4141H24.0781V15.5859H22.9062V14.4141Z" fill="#2B4DFF"/>
<path d="M24.6641 14.4141H25.8359V15.5859H24.6641V14.4141Z" fill="#2B4DFF"/>
<path d="M26.4219 14.4141H27.5938V15.5859H26.4219V14.4141Z" fill="#2B4DFF"/>
<path d="M10.6016 16.1719H11.7734V17.3438H10.6016V16.1719Z" fill="#2B4DFF"/>
<path d="M12.3594 16.1719H13.5312V17.3438H12.3594V16.1719Z" fill="#2B4DFF"/>
<path d="M14.1172 16.1719H15.2891V17.3438H14.1172V16.1719Z" fill="#2B4DFF"/>
<path d="M15.875 16.1719H17.0469V17.3438H15.875V16.1719Z" fill="#2B4DFF"/>
<path d="M17.6328 16.1719H18.8047V17.3438H17.6328V16.1719Z" fill="#2B4DFF"/>
<path d="M19.3906 16.1719H20.5626V17.3438H19.3906V16.1719Z" fill="#2B4DFF"/>
<path d="M21.1484 16.1719H22.3203V17.3438H21.1484V16.1719Z" fill="#2B4DFF"/>
<path d="M22.9062 16.1719H24.0781V17.3438H22.9062V16.1719Z" fill="#2B4DFF"/>
<path d="M26.4219 16.1719H27.5938V17.3438H26.4219V16.1719Z" fill="#2B4DFF"/>
<path d="M10.6016 17.9297H11.7734V19.1016H10.6016V17.9297Z" fill="#2B4DFF"/>
<path d="M12.3594 17.9297H13.5312V19.1016H12.3594V17.9297Z" fill="#2B4DFF"/>
<path d="M14.1172 17.9297H15.2891V19.1016H14.1172V17.9297Z" fill="#2B4DFF"/>
<path d="M15.875 17.9297H17.0469V19.1016H15.875V17.9297Z" fill="#2B4DFF"/>
<path d="M17.6328 17.9297H18.8047V19.1016H17.6328V17.9297Z" fill="#2B4DFF"/>
<path d="M19.3906 17.9297H20.5626V19.1016H19.3906V17.9297Z" fill="#2B4DFF"/>
<path d="M22.9062 17.9297H24.0781V19.1016H22.9062V17.9297Z" fill="#2B4DFF"/>
<path d="M24.6641 17.9297H25.8359V19.1016H24.6641V17.9297Z" fill="#2B4DFF"/>
<path d="M10.6016 19.6875H11.7734V20.8594H10.6016V19.6875Z" fill="#2B4DFF"/>
<path d="M12.3594 19.6875H13.5312V20.8594H12.3594V19.6875Z" fill="#2B4DFF"/>
<path d="M14.1172 19.6875H15.2891V20.8594H14.1172V19.6875Z" fill="#2B4DFF"/>
<path d="M15.875 19.6875H17.0469V20.8594H15.875V19.6875Z" fill="#2B4DFF"/>
<path d="M17.6328 19.6875H18.8047V20.8594H17.6328V19.6875Z" fill="#2B4DFF"/>
<path d="M19.3906 19.6875H20.5626V20.8594H19.3906V19.6875Z" fill="#2B4DFF"/>
<path d="M21.1484 19.6875H22.3203V20.8594H21.1484V19.6875Z" fill="#2B4DFF"/>
<path d="M22.9062 19.6875H24.0781V20.8594H22.9062V19.6875Z" fill="#2B4DFF"/>
<path d="M26.4219 19.6875H27.5938V20.8594H26.4219V19.6875Z" fill="#2B4DFF"/>
<path d="M2.98438 20.8594C2.01506 20.8594 1.22656 21.6479 1.22656 22.6172C1.22656 23.5865 2.01506 24.375 2.98438 24.375C3.95369 24.375 4.74219 23.5865 4.74219 22.6172C4.74219 21.6479 3.95369 20.8594 2.98438 20.8594ZM2.98438 23.2031C2.66135 23.2031 2.39844 22.9403 2.39844 22.6172C2.39844 22.2941 2.66135 22.0312 2.98438 22.0312C3.3074 22.0312 3.57031 22.2941 3.57031 22.6172C3.57031 22.9403 3.3074 23.2031 2.98438 23.2031Z" fill="#2B4DFF"/>
<path d="M26.7148 1.52344C25.5842 1.52344 24.6641 2.44324 24.6641 3.57422C24.6641 4.7049 25.5842 5.625 26.7148 5.625C27.8455 5.625 28.7656 4.7049 28.7656 3.57422C28.7656 2.44324 27.8455 1.52344 26.7148 1.52344ZM26.7148 4.45312C26.2302 4.45312 25.8359 4.05885 25.8359 3.57422C25.8359 3.08959 26.2302 2.69531 26.7148 2.69531C27.1995 2.69531 27.5938 3.08959 27.5938 3.57422C27.5938 4.05891 27.1995 4.45312 26.7148 4.45312Z" fill="#2B4DFF"/>
<path d="M27.0078 26.1328C27.3314 26.1328 27.5938 25.8705 27.5938 25.5469C27.5938 25.2233 27.3314 24.9609 27.0078 24.9609C26.6842 24.9609 26.4219 25.2233 26.4219 25.5469C26.4219 25.8705 26.6842 26.1328 27.0078 26.1328Z" fill="#2B4DFF"/>
<path d="M27.0078 7.96875C27.3314 7.96875 27.5938 7.70642 27.5938 7.38281C27.5938 7.05921 27.3314 6.79688 27.0078 6.79688C26.6842 6.79688 26.4219 7.05921 26.4219 7.38281C26.4219 7.70642 26.6842 7.96875 27.0078 7.96875Z" fill="#2B4DFF"/>
<path d="M2.98438 10.8984C3.30798 10.8984 3.57031 10.6361 3.57031 10.3125C3.57031 9.9889 3.30798 9.72656 2.98438 9.72656C2.66077 9.72656 2.39844 9.9889 2.39844 10.3125C2.39844 10.6361 2.66077 10.8984 2.98438 10.8984Z" fill="#2B4DFF"/>
<path d="M3.57031 17.3438C3.89392 17.3438 4.15625 17.0814 4.15625 16.7578C4.15625 16.4342 3.89392 16.1719 3.57031 16.1719C3.24671 16.1719 2.98438 16.4342 2.98438 16.7578C2.98438 17.0814 3.24671 17.3438 3.57031 17.3438Z" fill="#2B4DFF"/>
</svg>
