<svg width="46" height="48" viewBox="0 0 46 48" fill="none" xmlns="http://www.w3.org/2000/svg">
<path d="M23.4844 25.9531C25.6383 25.9531 27.3906 24.2009 27.3906 22.0469C27.3906 19.893 25.6383 18.1406 23.4844 18.1406C21.3305 18.1406 19.5781 19.893 19.5781 22.0469C19.5781 24.2009 21.3305 25.9531 23.4844 25.9531ZM23.4844 20.0938C24.5615 20.0938 25.4375 20.9697 25.4375 22.0469C25.4375 23.1235 24.5615 24 23.4844 24C22.4077 24 21.5312 23.1235 21.5312 22.0469C21.5312 20.9696 22.4077 20.0938 23.4844 20.0938Z" fill="#05091D"/>
<path d="M42.0393 33.7657C40.7661 33.7657 39.6809 34.582 39.2774 35.7188H31.297V33.7657H34.2268C34.766 33.7657 35.2033 33.3283 35.2033 32.7892V13.2578C35.2033 12.7186 34.766 12.2812 34.2268 12.2812H32.2736V9.35156C32.2736 4.50537 28.3306 0.5625 23.4845 0.5625C18.6379 0.5625 14.6954 4.50547 14.6954 9.35156V12.2812H12.7423C12.203 12.2812 11.7657 12.7186 11.7657 13.2578V32.7892C11.7657 33.3283 12.203 33.7657 12.7423 33.7657H15.672V36.6954C15.672 37.2346 16.1093 37.672 16.6485 37.672H19.5782V39.6251H5.73838C5.33496 38.4883 4.24971 37.672 2.97656 37.672C1.36104 37.672 0.046875 38.9861 0.046875 40.6017C0.046875 42.2172 1.36104 43.5314 2.97656 43.5314C4.24971 43.5314 5.33496 42.7146 5.73838 41.5782H20.5548C21.094 41.5782 21.5313 41.141 21.5313 40.6017V37.672H24.461V46.4611C24.461 47.0004 24.8983 47.4377 25.4376 47.4377C25.9769 47.4377 26.4142 47.0004 26.4142 46.4611V37.672H29.3438V39.793C28.207 40.1964 27.3907 41.2816 27.3907 42.5549C27.3907 44.1704 28.7049 45.4846 30.3204 45.4846C31.936 45.4846 33.2502 44.1704 33.2502 42.5549C33.2502 41.2816 32.4339 40.1964 31.297 39.793V37.672H39.2774C39.6809 38.8083 40.7661 39.6251 42.0393 39.6251C43.6548 39.6251 44.9689 38.3109 44.9689 36.6954C44.9689 35.0799 43.6548 33.7657 42.0393 33.7657ZM2.97656 41.5782C2.4377 41.5782 2 41.1401 2 40.6017C2 40.0634 2.4377 39.6251 2.97656 39.6251C3.51543 39.6251 3.95312 40.0634 3.95312 40.6017C3.95312 41.1401 3.51543 41.5782 2.97656 41.5782ZM30.3204 43.5314C29.782 43.5314 29.3438 43.0933 29.3438 42.5549C29.3438 42.0165 29.782 41.5782 30.3204 41.5782C30.8588 41.5782 31.297 42.0165 31.297 42.5549C31.297 43.0933 30.8588 43.5314 30.3204 43.5314ZM16.6485 9.35156C16.6485 5.58213 19.7151 2.51562 23.4845 2.51562C27.2538 2.51562 30.3204 5.58213 30.3204 9.35156V12.2812H16.6485V9.35156ZM13.7188 31.8126V14.2344H33.2502V31.8126H31.297V28.8829C31.297 28.3437 30.8597 27.9063 30.3204 27.9063C29.7812 27.9063 29.3438 28.3437 29.3438 28.8829V31.8126H26.4142V28.8829C26.4142 28.3437 25.9769 27.9063 25.4376 27.9063C24.8983 27.9063 24.461 28.3437 24.461 28.8829V31.8126H21.5313V28.8829C21.5313 28.3437 21.094 27.9063 20.5548 27.9063C20.0155 27.9063 19.5782 28.3437 19.5782 28.8829V31.8126H17.6251V28.8829C17.6251 28.3437 17.1878 27.9063 16.6485 27.9063C16.1093 27.9063 15.672 28.3437 15.672 28.8829V31.8126H13.7188ZM17.6251 35.7188V33.7657H19.5782V35.7188H17.6251ZM21.5313 35.7188V33.7657H24.461V35.7188H21.5313ZM26.4142 35.7188V33.7657H29.3438V35.7188H26.4142ZM42.0393 37.672C41.5009 37.672 41.0627 37.2339 41.0627 36.6954C41.0627 36.1569 41.5009 35.7188 42.0393 35.7188C42.5776 35.7188 43.0158 36.1569 43.0158 36.6954C43.0158 37.2339 42.5776 37.672 42.0393 37.672Z" fill="#05091D"/>
<path d="M3.95313 23.0234C5.56865 23.0234 6.88281 21.7088 6.88281 20.0938C6.88281 18.4782 5.56865 17.1641 3.95313 17.1641C2.3376 17.1641 1.02344 18.4783 1.02344 20.0938C1.02344 21.7088 2.3376 23.0234 3.95313 23.0234ZM3.95313 19.1172C4.49199 19.1172 4.92969 19.5554 4.92969 20.0938C4.92969 20.6321 4.49199 21.0703 3.95313 21.0703C3.41426 21.0703 2.97656 20.6321 2.97656 20.0938C2.97656 19.5554 3.41426 19.1172 3.95313 19.1172Z" fill="#05091D"/>
<path d="M39.1094 15.6992C39.1094 17.5837 40.6429 19.1172 42.5273 19.1172C44.4118 19.1172 45.9453 17.5836 45.9453 15.6992C45.9453 13.8143 44.4118 12.2812 42.5273 12.2812C40.6429 12.2812 39.1094 13.8143 39.1094 15.6992ZM42.5273 14.2344C43.3351 14.2344 43.9922 14.8915 43.9922 15.6992C43.9922 16.5069 43.3351 17.1641 42.5273 17.1641C41.7196 17.1641 41.0625 16.5069 41.0625 15.6992C41.0625 14.8915 41.7196 14.2344 42.5273 14.2344Z" fill="#05091D"/>
<path d="M37.1562 11.3047C37.6956 11.3047 38.1328 10.8675 38.1328 10.3281C38.1328 9.78878 37.6956 9.35156 37.1562 9.35156C36.6169 9.35156 36.1797 9.78878 36.1797 10.3281C36.1797 10.8675 36.6169 11.3047 37.1562 11.3047Z" fill="#05091D"/>
<path d="M40.0859 24.9766C40.6253 24.9766 41.0625 24.5393 41.0625 24C41.0625 23.4607 40.6253 23.0234 40.0859 23.0234C39.5466 23.0234 39.1094 23.4607 39.1094 24C39.1094 24.5393 39.5466 24.9766 40.0859 24.9766Z" fill="#05091D"/>
<path d="M37.1562 43.5312C37.6956 43.5312 38.1328 43.094 38.1328 42.5547C38.1328 42.0153 37.6956 41.5781 37.1562 41.5781C36.6169 41.5781 36.1797 42.0153 36.1797 42.5547C36.1797 43.094 36.6169 43.5312 37.1562 43.5312Z" fill="#05091D"/>
<path d="M12.7422 45.4844C13.2815 45.4844 13.7188 45.0472 13.7188 44.5078C13.7188 43.9685 13.2815 43.5312 12.7422 43.5312C12.2028 43.5312 11.7656 43.9685 11.7656 44.5078C11.7656 45.0472 12.2028 45.4844 12.7422 45.4844Z" fill="#05091D"/>
<path d="M30.3203 26.9297C30.8597 26.9297 31.2969 26.4925 31.2969 25.9531C31.2969 25.4138 30.8597 24.9766 30.3203 24.9766C29.781 24.9766 29.3438 25.4138 29.3438 25.9531C29.3438 26.4925 29.781 26.9297 30.3203 26.9297Z" fill="#05091D"/>
<path d="M16.6484 26.9297C17.1878 26.9297 17.625 26.4925 17.625 25.9531C17.625 25.4138 17.1878 24.9766 16.6484 24.9766C16.1091 24.9766 15.6719 25.4138 15.6719 25.9531C15.6719 26.4925 16.1091 26.9297 16.6484 26.9297Z" fill="#05091D"/>
<path d="M30.3203 24C30.8597 24 31.2969 23.5628 31.2969 23.0234C31.2969 22.4841 30.8597 22.0469 30.3203 22.0469C29.781 22.0469 29.3438 22.4841 29.3438 23.0234C29.3438 23.5628 29.781 24 30.3203 24Z" fill="#05091D"/>
<path d="M16.6484 24C17.1878 24 17.625 23.5628 17.625 23.0234C17.625 22.4841 17.1878 22.0469 16.6484 22.0469C16.1091 22.0469 15.6719 22.4841 15.6719 23.0234C15.6719 23.5628 16.1091 24 16.6484 24Z" fill="#05091D"/>
<path d="M30.3203 21.0703C30.8597 21.0703 31.2969 20.6331 31.2969 20.0938C31.2969 19.5544 30.8597 19.1172 30.3203 19.1172C29.781 19.1172 29.3438 19.5544 29.3438 20.0938C29.3438 20.6331 29.781 21.0703 30.3203 21.0703Z" fill="#05091D"/>
<path d="M16.6484 21.0703C17.1878 21.0703 17.625 20.6331 17.625 20.0938C17.625 19.5544 17.1878 19.1172 16.6484 19.1172C16.1091 19.1172 15.6719 19.5544 15.6719 20.0938C15.6719 20.6331 16.1091 21.0703 16.6484 21.0703Z" fill="#05091D"/>
<path d="M4.92969 29.8594C5.46903 29.8594 5.90625 29.4222 5.90625 28.8828C5.90625 28.3435 5.46903 27.9062 4.92969 27.9062C4.39035 27.9062 3.95312 28.3435 3.95312 28.8828C3.95312 29.4222 4.39035 29.8594 4.92969 29.8594Z" fill="#05091D"/>
<path d="M7.85938 12.2812C8.39872 12.2812 8.83594 11.844 8.83594 11.3047C8.83594 10.7653 8.39872 10.3281 7.85938 10.3281C7.32003 10.3281 6.88281 10.7653 6.88281 11.3047C6.88281 11.844 7.32003 12.2812 7.85938 12.2812Z" fill="#05091D"/>
<path d="M4.92969 2.51562H12.7422V4.46875H4.92969V2.51562Z" fill="#05091D"/>
<path d="M4.92969 5.44531H12.7422V7.39844H4.92969V5.44531Z" fill="#05091D"/>
<path d="M34.2266 2.51562H42.0391V4.46875H34.2266V2.51562Z" fill="#05091D"/>
<path d="M34.2266 5.44531H42.0391V7.39844H34.2266V5.44531Z" fill="#05091D"/>
</svg>
