<svg width="46" height="42" viewBox="0 0 46 42" fill="none" xmlns="http://www.w3.org/2000/svg">
<path d="M38.1329 0.00390625C32.7208 0.00390625 18.552 0.00390625 12.7422 0.00390625C12.2029 0.00390625 11.7656 0.441211 11.7656 0.980469V19.5353H6.88281C6.34355 19.5353 5.90625 19.9726 5.90625 20.5118V38.0899C5.90625 40.2439 7.65859 41.9963 9.8125 41.9963H34.5195C37.0506 41.9963 39.1096 39.9373 39.1096 37.4061V0.980371C39.1095 0.441113 38.6722 0.00390625 38.1329 0.00390625ZM33.2501 1.95703V5.86328H17.625V1.95703H33.2501ZM7.85928 38.0899V21.4884H11.7655V38.0899C11.7655 39.1666 10.8891 40.0432 9.8124 40.0432C8.73574 40.0432 7.85928 39.1666 7.85928 38.0899ZM37.1563 37.4061C37.1563 38.8602 35.9733 40.0432 34.5194 40.0432H13.1933C13.527 39.4681 13.7187 38.801 13.7187 38.0899C13.7187 34.465 13.7187 5.25439 13.7187 1.95703H15.6719V6.83984C15.6719 7.3791 16.1092 7.81641 16.6484 7.81641H34.2267C34.7659 7.81641 35.2032 7.3791 35.2032 6.83984V1.95703H37.1563V37.4061Z" fill="#05091D"/>
<path d="M18.6016 2.93359H20.5547V4.88672H18.6016V2.93359Z" fill="#05091D"/>
<path d="M15.6719 10.7461H24.4609V12.6992H15.6719V10.7461Z" fill="#05091D"/>
<path d="M0.046875 37.1133H4.92969V39.0664H0.046875V37.1133Z" fill="#05091D"/>
<path d="M0.046875 34.1836H4.92969V36.1367H0.046875V34.1836Z" fill="#05091D"/>
<path d="M0.046875 31.2539H4.92969V33.207H0.046875V31.2539Z" fill="#05091D"/>
<path d="M0.046875 28.3242H4.92969V30.2773H0.046875V28.3242Z" fill="#05091D"/>
<path d="M0.046875 25.3945H4.92969V27.3477H0.046875V25.3945Z" fill="#05091D"/>
<path d="M15.6719 13.6758H28.3672V15.6289H15.6719V13.6758Z" fill="#05091D"/>
<path d="M15.6719 16.6055H35.2032V18.5586H15.6719V16.6055Z" fill="#05091D"/>
<path d="M15.6719 19.5352H35.2032V21.4883H15.6719V19.5352Z" fill="#05091D"/>
<path d="M15.6719 22.4648H35.2032V24.418H15.6719V22.4648Z" fill="#05091D"/>
<path d="M15.6719 25.3945H35.2032V27.3477H15.6719V25.3945Z" fill="#05091D"/>
<path d="M15.6719 28.3242H35.2032V30.2773H15.6719V28.3242Z" fill="#05091D"/>
<path d="M15.6719 31.2539H35.2032V33.207H15.6719V31.2539Z" fill="#05091D"/>
<path d="M21.5312 2.93359H23.4844V4.88672H21.5312V2.93359Z" fill="#05091D"/>
<path d="M24.4609 2.93359H26.4141V4.88672H24.4609V2.93359Z" fill="#05091D"/>
<path d="M21.5312 36.1367H23.4844V38.0898H21.5312V36.1367Z" fill="#05091D"/>
<path d="M24.4609 36.1367H26.4141V38.0898H24.4609V36.1367Z" fill="#05091D"/>
<path d="M27.3906 36.1367H29.3438V38.0898H27.3906V36.1367Z" fill="#05091D"/>
<path d="M4.44141 15.6289C6.32588 15.6289 7.85938 14.0953 7.85938 12.2109C7.85938 10.326 6.32588 8.79297 4.44141 8.79297C2.55693 8.79297 1.02344 10.326 1.02344 12.2109C1.02344 14.0953 2.55693 15.6289 4.44141 15.6289ZM4.44141 10.746C5.24912 10.746 5.90625 11.4031 5.90625 12.2108C5.90625 13.0186 5.24912 13.6757 4.44141 13.6757C3.63369 13.6757 2.97656 13.0186 2.97656 12.2108C2.97656 11.4031 3.63369 10.746 4.44141 10.746Z" fill="#05091D"/>
<path d="M43.0156 9.76953C41.4001 9.76953 40.0859 11.0837 40.0859 12.6992C40.0859 14.3143 41.4001 15.6289 43.0156 15.6289C44.6312 15.6289 45.9453 14.3143 45.9453 12.6992C45.9453 11.0837 44.6312 9.76953 43.0156 9.76953ZM43.0156 13.6758C42.4772 13.6758 42.0391 13.2376 42.0391 12.6992C42.0391 12.1608 42.4772 11.7227 43.0156 11.7227C43.554 11.7227 43.9922 12.1608 43.9922 12.6992C43.9922 13.2376 43.554 13.6758 43.0156 13.6758Z" fill="#05091D"/>
<path d="M43.0156 24.418C43.555 24.418 43.9922 23.9807 43.9922 23.4414C43.9922 22.9021 43.555 22.4648 43.0156 22.4648C42.4763 22.4648 42.0391 22.9021 42.0391 23.4414C42.0391 23.9807 42.4763 24.418 43.0156 24.418Z" fill="#05091D"/>
<path d="M6.88281 5.86328C7.42215 5.86328 7.85938 5.42606 7.85938 4.88672C7.85938 4.34738 7.42215 3.91016 6.88281 3.91016C6.34347 3.91016 5.90625 4.34738 5.90625 4.88672C5.90625 5.42606 6.34347 5.86328 6.88281 5.86328Z" fill="#05091D"/>
<path d="M2.97656 20.5117C3.5159 20.5117 3.95312 20.0745 3.95312 19.5352C3.95312 18.9958 3.5159 18.5586 2.97656 18.5586C2.43722 18.5586 2 18.9958 2 19.5352C2 20.0745 2.43722 20.5117 2.97656 20.5117Z" fill="#05091D"/>
<path d="M41.0625 38.0898C41.6018 38.0898 42.0391 37.6526 42.0391 37.1133C42.0391 36.5739 41.6018 36.1367 41.0625 36.1367C40.5232 36.1367 40.0859 36.5739 40.0859 37.1133C40.0859 37.6526 40.5232 38.0898 41.0625 38.0898Z" fill="#05091D"/>
<path d="M42.0391 5.86328C42.5784 5.86328 43.0156 5.42606 43.0156 4.88672C43.0156 4.34738 42.5784 3.91016 42.0391 3.91016C41.4997 3.91016 41.0625 4.34738 41.0625 4.88672C41.0625 5.42606 41.4997 5.86328 42.0391 5.86328Z" fill="#05091D"/>
</svg>
