<svg width="46" height="44" viewBox="0 0 46 44" fill="none" xmlns="http://www.w3.org/2000/svg">
<path d="M23.0001 2.46875C12.2302 2.46875 3.46875 11.2307 3.46875 22.0001C3.46875 32.7695 12.2302 41.5314 23.0001 41.5314C33.7694 41.5314 42.5314 32.7693 42.5314 22.0001C42.5314 11.2308 33.7694 2.46875 23.0001 2.46875ZM23.0001 39.5782C13.3074 39.5782 5.42187 31.6928 5.42187 22.0001C5.42187 12.3074 13.3074 4.42197 23.0001 4.42197C32.6928 4.42187 40.5783 12.3073 40.5783 22.0001C40.5783 31.6929 32.6928 39.5782 23.0001 39.5782Z" fill="#05091D"/>
<path d="M23.0001 6.375C14.3846 6.375 7.375 13.384 7.375 22C7.375 30.6156 14.3846 37.625 23.0001 37.625C31.6157 37.6251 38.6252 30.6156 38.6252 22.0001C38.6252 13.384 31.6157 6.375 23.0001 6.375ZM23.0001 35.672C15.4612 35.672 9.32812 29.5389 9.32812 22.0001C9.32812 14.4613 15.4612 8.32822 23.0001 8.32822C30.5389 8.32822 36.6721 14.4613 36.6721 22.0001C36.6721 29.5389 30.5389 35.672 23.0001 35.672Z" fill="#05091D"/>
<path d="M27.1452 16.4775C26.7638 16.859 26.7638 17.4769 27.1452 17.8585C29.4349 20.1482 29.4354 23.8547 27.1452 26.145C24.8555 28.4348 21.149 28.4352 18.8587 26.145C16.5688 23.8554 16.5683 20.1487 18.8587 17.8585C19.2401 17.477 19.2401 16.8591 18.8587 16.4775C18.4772 16.096 17.8588 16.0961 17.4772 16.4775C14.4245 19.5303 14.424 24.4723 17.4772 27.5258C20.5309 30.5791 25.4723 30.5796 28.5262 27.5258C31.5794 24.4725 31.5799 19.5311 28.5262 16.4775C28.1446 16.0961 27.5266 16.0961 27.1452 16.4775Z" fill="#05091D"/>
<path d="M23 22.9766C23.5393 22.9766 23.9766 22.5392 23.9766 22V14.1875C23.9766 13.6482 23.5393 13.2109 23 13.2109C22.4607 13.2109 22.0234 13.6482 22.0234 14.1875V22C22.0234 22.5392 22.4607 22.9766 23 22.9766Z" fill="#05091D"/>
<path d="M5.42188 35.6719C3.80635 35.6719 2.49219 36.986 2.49219 38.6016C2.49219 40.2171 3.80635 41.5313 5.42188 41.5313C7.0374 41.5313 8.35156 40.2171 8.35156 38.6016C8.35156 36.986 7.0374 35.6719 5.42188 35.6719ZM5.42188 39.5781C4.88301 39.5781 4.44531 39.14 4.44531 38.6016C4.44531 38.0633 4.88301 37.625 5.42188 37.625C5.96074 37.625 6.39844 38.0633 6.39844 38.6016C6.39844 39.14 5.96074 39.5781 5.42188 39.5781Z" fill="#05091D"/>
<path d="M3.95703 8.32812C5.30313 8.32812 6.39844 7.23281 6.39844 5.88672C6.39844 4.54062 5.30313 3.44531 3.95703 3.44531C2.61094 3.44531 1.51562 4.54062 1.51562 5.88672C1.51562 7.23281 2.61094 8.32812 3.95703 8.32812ZM3.95703 5.39844C4.22598 5.39844 4.44531 5.61729 4.44531 5.88672C4.44531 6.15615 4.22598 6.375 3.95703 6.375C3.68809 6.375 3.46875 6.15615 3.46875 5.88672C3.46875 5.61729 3.68809 5.39844 3.95703 5.39844Z" fill="#05091D"/>
<path d="M42.043 7.35156C43.9274 7.35156 45.4609 5.81807 45.4609 3.93359C45.4609 2.04863 43.9274 0.515625 42.043 0.515625C40.1585 0.515625 38.625 2.04863 38.625 3.93359C38.625 5.81807 40.1585 7.35156 42.043 7.35156ZM42.043 2.46875C42.8507 2.46875 43.5078 3.12588 43.5078 3.93359C43.5078 4.74131 42.8507 5.39844 42.043 5.39844C41.2353 5.39844 40.5781 4.74131 40.5781 3.93359C40.5781 3.12578 41.2353 2.46875 42.043 2.46875Z" fill="#05091D"/>
<path d="M11.2812 2.46875C11.8206 2.46875 12.2578 2.03153 12.2578 1.49219C12.2578 0.952847 11.8206 0.515625 11.2812 0.515625C10.7419 0.515625 10.3047 0.952847 10.3047 1.49219C10.3047 2.03153 10.7419 2.46875 11.2812 2.46875Z" fill="#05091D"/>
<path d="M43.5078 12.2344C44.0472 12.2344 44.4844 11.7972 44.4844 11.2578C44.4844 10.7185 44.0472 10.2812 43.5078 10.2812C42.9685 10.2812 42.5312 10.7185 42.5312 11.2578C42.5312 11.7972 42.9685 12.2344 43.5078 12.2344Z" fill="#05091D"/>
<path d="M42.5312 38.6016C43.0706 38.6016 43.5078 38.1643 43.5078 37.625C43.5078 37.0857 43.0706 36.6484 42.5312 36.6484C41.9919 36.6484 41.5547 37.0857 41.5547 37.625C41.5547 38.1643 41.9919 38.6016 42.5312 38.6016Z" fill="#05091D"/>
<path d="M33.7422 43.4844C34.2815 43.4844 34.7188 43.0472 34.7188 42.5078C34.7188 41.9685 34.2815 41.5312 33.7422 41.5312C33.2028 41.5312 32.7656 41.9685 32.7656 42.5078C32.7656 43.0472 33.2028 43.4844 33.7422 43.4844Z" fill="#05091D"/>
<path d="M1.51563 31.7656C2.05497 31.7656 2.49219 31.3284 2.49219 30.7891C2.49219 30.2497 2.05497 29.8125 1.51563 29.8125C0.976285 29.8125 0.539062 30.2497 0.539062 30.7891C0.539062 31.3284 0.976285 31.7656 1.51563 31.7656Z" fill="#05091D"/>
</svg>
