<svg width="50" height="50" viewBox="0 0 50 50" fill="none" xmlns="http://www.w3.org/2000/svg">
<path d="M35.2501 17.1875C35.2501 11.8025 30.8693 7.42188 25.4844 7.42188C20.0999 7.42188 15.7188 11.8025 15.7188 17.1875C15.7188 22.5725 20.1 26.9532 25.4844 26.9532C30.8693 26.9532 35.2501 22.5725 35.2501 17.1875ZM25.4844 25.0001C21.1767 25.0001 17.6719 21.4953 17.6719 17.1876C17.6719 12.8794 21.1767 9.3751 25.4844 9.3751C29.7921 9.3751 33.2969 12.8794 33.2969 17.1876C33.2969 21.4953 29.7921 25.0001 25.4844 25.0001Z" fill="#05091D"/>
<path d="M25.4844 14.2578C23.8688 14.2578 22.5547 15.572 22.5547 17.1875C22.5547 18.8025 23.8688 20.1172 25.4844 20.1172C27.0999 20.1172 28.4141 18.8025 28.4141 17.1875C28.4141 15.572 27.0999 14.2578 25.4844 14.2578ZM25.4844 18.1641C24.946 18.1641 24.5078 17.7259 24.5078 17.1875C24.5078 16.6491 24.946 16.2109 25.4844 16.2109C26.0228 16.2109 26.4609 16.6491 26.4609 17.1875C26.4609 17.7259 26.0228 18.1641 25.4844 18.1641Z" fill="#05091D"/>
<path d="M46.9689 42.5782H30.8556V39.6485H39.1564C39.6957 39.6485 40.133 39.2111 40.133 38.672V9.375C40.133 9.11611 40.03 8.86768 39.8469 8.68408L33.9875 2.82471C33.8044 2.6416 33.5559 2.53906 33.297 2.53906H11.8126C11.2732 2.53906 10.836 2.97637 10.836 3.51562V38.672C10.836 39.2111 11.2733 39.6485 11.8126 39.6485H20.1134V42.5782H4C3.46074 42.5782 3.02344 43.0156 3.02344 43.5549C3.02344 44.0941 3.46074 44.5314 4 44.5314H21.0899C21.6292 44.5314 22.0665 44.0941 22.0665 43.5549V39.6485H28.9024V43.5549C28.9024 44.0941 29.3397 44.5314 29.879 44.5314H46.9689C47.5082 44.5314 47.9455 44.0941 47.9455 43.5549C47.9455 43.0156 47.5082 42.5782 46.9689 42.5782ZM22.0665 37.6954V36.5758C23.477 36.1546 24.5079 34.8463 24.5079 33.3009C24.5079 31.4159 22.9744 29.8829 21.0899 29.8829C19.2055 29.8829 17.672 31.4159 17.672 33.3009C17.672 34.8463 18.7029 36.1549 20.1134 36.5758V37.6954H12.7892V35.7423H15.7188C16.2581 35.7423 16.6954 35.3049 16.6954 34.7657C16.6954 34.2266 16.2581 33.7892 15.7188 33.7892H12.7892V4.49219H32.8927L38.1799 9.77939V33.7892H35.2502C34.7108 33.7892 34.2736 34.2266 34.2736 34.7657C34.2736 35.3049 34.7108 35.7423 35.2502 35.7423H38.1799V37.6954H30.8556V36.5758C32.2655 36.1546 33.297 34.8463 33.297 33.3009C33.297 31.4159 31.7635 29.8829 29.879 29.8829C27.9945 29.8829 26.461 31.4159 26.461 33.3009C26.461 34.8463 27.4925 36.1549 28.9024 36.5758V37.6954H22.0665ZM21.0899 34.7657C20.2822 34.7657 19.6251 34.1086 19.6251 33.3009C19.6251 32.4932 20.2822 31.836 21.0899 31.836C21.8977 31.836 22.5548 32.4932 22.5548 33.3009C22.5548 34.1086 21.8978 34.7657 21.0899 34.7657ZM29.879 34.7657C29.0713 34.7657 28.4142 34.1086 28.4142 33.3009C28.4142 32.4932 29.0713 31.836 29.879 31.836C30.6867 31.836 31.3438 32.4932 31.3438 33.3009C31.3438 34.1086 30.6868 34.7657 29.879 34.7657Z" fill="#05091D"/>
<path d="M42.0859 26.9532C42.6252 26.9532 43.0625 26.5158 43.0625 25.9767V11.3281C43.0625 10.7889 42.6252 10.3516 42.0859 10.3516C41.5467 10.3516 41.1094 10.7889 41.1094 11.3281V25.9767C41.1094 26.5158 41.5467 26.9532 42.0859 26.9532Z" fill="#05091D"/>
<path d="M8.88281 26.9532C9.42207 26.9532 9.85938 26.5158 9.85938 25.9767V7.42187C9.85938 6.88262 9.42207 6.44531 8.88281 6.44531C8.34355 6.44531 7.90625 6.88262 7.90625 7.42187V25.9767C7.90625 26.5158 8.34355 26.9532 8.88281 26.9532Z" fill="#05091D"/>
<path d="M7.90625 35.7422C7.90625 34.1267 6.59209 32.8125 4.97656 32.8125C3.36104 32.8125 2.04688 34.1267 2.04688 35.7422C2.04688 37.3577 3.36104 38.6719 4.97656 38.6719C6.59209 38.6719 7.90625 37.3577 7.90625 35.7422ZM4 35.7422C4 35.2037 4.4377 34.7656 4.97656 34.7656C5.51543 34.7656 5.95312 35.2037 5.95312 35.7422C5.95312 36.2807 5.51543 36.7188 4.97656 36.7188C4.4377 36.7188 4 36.2807 4 35.7422Z" fill="#05091D"/>
<path d="M45.5039 32.8125C46.85 32.8125 47.9453 31.7172 47.9453 30.3711C47.9453 29.025 46.85 27.9297 45.5039 27.9297C44.1578 27.9297 43.0625 29.025 43.0625 30.3711C43.0625 31.7172 44.1578 32.8125 45.5039 32.8125ZM45.5039 29.8828C45.7733 29.8828 45.9922 30.1017 45.9922 30.3711C45.9922 30.64 45.7733 30.8594 45.5039 30.8594C45.2345 30.8594 45.0156 30.64 45.0156 30.3711C45.0156 30.1017 45.2345 29.8828 45.5039 29.8828Z" fill="#05091D"/>
<path d="M42.0859 9.375C42.6253 9.375 43.0625 8.93778 43.0625 8.39844C43.0625 7.8591 42.6253 7.42188 42.0859 7.42188C41.5466 7.42188 41.1094 7.8591 41.1094 8.39844C41.1094 8.93778 41.5466 9.375 42.0859 9.375Z" fill="#05091D"/>
<path d="M45.9922 21.0938C46.5315 21.0938 46.9688 20.6565 46.9688 20.1172C46.9688 19.5778 46.5315 19.1406 45.9922 19.1406C45.4528 19.1406 45.0156 19.5778 45.0156 20.1172C45.0156 20.6565 45.4528 21.0938 45.9922 21.0938Z" fill="#05091D"/>
<path d="M5.95312 23.0469C6.49247 23.0469 6.92969 22.6097 6.92969 22.0703C6.92969 21.531 6.49247 21.0938 5.95312 21.0938C5.41378 21.0938 4.97656 21.531 4.97656 22.0703C4.97656 22.6097 5.41378 23.0469 5.95312 23.0469Z" fill="#05091D"/>
<path d="M7.90625 41.6016C8.44559 41.6016 8.88281 41.1643 8.88281 40.625C8.88281 40.0857 8.44559 39.6484 7.90625 39.6484C7.36691 39.6484 6.92969 40.0857 6.92969 40.625C6.92969 41.1643 7.36691 41.6016 7.90625 41.6016Z" fill="#05091D"/>
<path d="M4.97656 6.44531C5.5159 6.44531 5.95312 6.00809 5.95312 5.46875C5.95312 4.92941 5.5159 4.49219 4.97656 4.49219C4.43722 4.49219 4 4.92941 4 5.46875C4 6.00809 4.43722 6.44531 4.97656 6.44531Z" fill="#05091D"/>
<path d="M8.88281 29.8828C9.42215 29.8828 9.85938 29.4456 9.85938 28.9062C9.85938 28.3669 9.42215 27.9297 8.88281 27.9297C8.34347 27.9297 7.90625 28.3669 7.90625 28.9062C7.90625 29.4456 8.34347 29.8828 8.88281 29.8828Z" fill="#05091D"/>
<path d="M42.0859 37.6953C42.6253 37.6953 43.0625 37.2581 43.0625 36.7188C43.0625 36.1794 42.6253 35.7422 42.0859 35.7422C41.5466 35.7422 41.1094 36.1794 41.1094 36.7188C41.1094 37.2581 41.5466 37.6953 42.0859 37.6953Z" fill="#05091D"/>
<path d="M17.6719 25.9766H19.625V27.9297H17.6719V25.9766Z" fill="#05091D"/>
<path d="M31.3438 25.9766H33.2969V27.9297H31.3438V25.9766Z" fill="#05091D"/>
<path d="M17.6719 6.44531H19.625V8.39844H17.6719V6.44531Z" fill="#05091D"/>
<path d="M31.3438 6.44531H33.2969V8.39844H31.3438V6.44531Z" fill="#05091D"/>
<path d="M46.9689 45.5078H4C3.46074 45.5078 3.02344 45.9452 3.02344 46.4844C3.02344 47.0236 3.46074 47.4609 4 47.4609H46.9689C47.5082 47.4609 47.9455 47.0236 47.9455 46.4844C47.9455 45.9451 47.5082 45.5078 46.9689 45.5078Z" fill="#05091D"/>
</svg>
