<svg width="50" height="50" viewBox="0 0 50 50" fill="none" xmlns="http://www.w3.org/2000/svg">
<path d="M25.4844 7.42188C21.7149 7.42188 18.6484 10.4884 18.6484 14.2578C18.6484 14.7971 19.0857 15.2344 19.625 15.2344C20.1643 15.2344 20.6016 14.7971 20.6016 14.2578C20.6016 11.5651 22.7922 9.375 25.4844 9.375C28.1765 9.375 30.3672 11.5651 30.3672 14.2578C30.3672 14.7971 30.8045 15.2344 31.3438 15.2344C31.883 15.2344 32.3203 14.7971 32.3203 14.2578C32.3203 10.4884 29.2538 7.42188 25.4844 7.42188Z" fill="#05091D"/>
<path d="M25.4844 4.49219C20.0999 4.49219 15.7188 8.87295 15.7188 14.2578C15.7188 14.7971 16.1561 15.2344 16.6953 15.2344C17.2346 15.2344 17.6719 14.7971 17.6719 14.2578C17.6719 9.94961 21.1767 6.44531 25.4844 6.44531C29.7921 6.44531 33.2969 9.94961 33.2969 14.2578C33.2969 14.7971 33.7342 15.2344 34.2735 15.2344C34.8127 15.2344 35.2501 14.7971 35.2501 14.2578C35.2501 8.87285 30.8693 4.49219 25.4844 4.49219Z" fill="#05091D"/>
<path d="M13.7656 15.2344C14.3049 15.2344 14.7422 14.7971 14.7422 14.2578C14.7422 8.33457 19.5611 3.51562 25.4844 3.51562C31.4076 3.51562 36.2267 8.33457 36.2267 14.2578C36.2267 14.7971 36.664 15.2344 37.2032 15.2344C37.7425 15.2344 38.1798 14.7971 38.1798 14.2578C38.1798 7.25732 32.4849 1.5625 25.4844 1.5625C18.4844 1.5625 12.7891 7.25742 12.7891 14.2578C12.7891 14.7971 13.2263 15.2344 13.7656 15.2344Z" fill="#05091D"/>
<path d="M45.9924 46.4846H41.7295C38.7608 40.1759 29.3003 20.0725 27.9775 17.2624C28.8406 16.5452 29.3909 15.4647 29.3909 14.2578C29.3909 12.1039 27.6387 10.3516 25.4847 10.3516C23.3308 10.3516 21.5784 12.1039 21.5784 14.2578C21.5784 15.4646 22.1287 16.5452 22.9918 17.2624L9.23945 46.4846H4.97656C4.4373 46.4846 4 46.922 4 47.4611C4 48.0004 4.4373 48.4377 4.97656 48.4377H45.9924C46.5316 48.4377 46.9689 48.0004 46.9689 47.4611C46.9689 46.9219 46.5316 46.4846 45.9924 46.4846ZM20.8764 26.3444L23.6453 28.0609L18.5855 31.2114L20.8764 26.3444ZM32.3619 31.1662L27.3466 28.0572L30.0942 26.3462L32.3619 31.1662ZM24.5079 37.2L18.2236 33.7377L24.5079 29.8244V37.2ZM26.461 29.8062L32.719 33.6853L26.461 37.1509V29.8062ZM34.2098 35.0925L38.9442 45.1532L27.4638 38.8283L34.2098 35.0925ZM16.7335 35.1466L23.4245 38.8325L12.0295 45.1428L16.7335 35.1466ZM24.5079 40.4653V46.4846H13.6389L24.5079 40.4653ZM26.461 40.5059L37.313 46.4846H26.461V40.5059ZM25.4845 12.3047C26.5616 12.3047 27.4376 13.1807 27.4376 14.2578C27.4376 15.335 26.5616 16.2109 25.4845 16.2109C24.4078 16.2109 23.5313 15.335 23.5313 14.2578C23.5313 13.1807 24.4078 12.3047 25.4845 12.3047ZM26.211 18.0949L29.2563 24.5666L26.461 26.3076V23.047C26.461 22.5077 26.0237 22.0704 25.4845 22.0704C24.9452 22.0704 24.5079 22.5077 24.5079 23.047V26.2977L21.7132 24.5652L24.7578 18.095C25.237 18.1855 25.7186 18.1884 26.211 18.0949Z" fill="#05091D"/>
<path d="M8.88281 33.7891C8.88281 32.1735 7.56865 30.8594 5.95313 30.8594C4.3376 30.8594 3.02344 32.1735 3.02344 33.7891C3.02344 35.4046 4.3376 36.7188 5.95313 36.7188C7.56865 36.7188 8.88281 35.4046 8.88281 33.7891ZM4.97656 33.7891C4.97656 33.2506 5.41426 32.8125 5.95313 32.8125C6.49199 32.8125 6.92969 33.2506 6.92969 33.7891C6.92969 34.3275 6.49199 34.7656 5.95313 34.7656C5.41426 34.7656 4.97656 34.3275 4.97656 33.7891Z" fill="#05091D"/>
<path d="M7.41797 10.3516C8.76406 10.3516 9.85938 9.25625 9.85938 7.91016C9.85938 6.56396 8.76406 5.46875 7.41797 5.46875C6.07187 5.46875 4.97656 6.56406 4.97656 7.91016C4.97656 9.25625 6.07187 10.3516 7.41797 10.3516ZM7.41797 7.42188C7.68691 7.42188 7.90625 7.64072 7.90625 7.91016C7.90625 8.17959 7.68691 8.39844 7.41797 8.39844C7.14902 8.39844 6.92969 8.17959 6.92969 7.91016C6.92969 7.64072 7.14902 7.42188 7.41797 7.42188Z" fill="#05091D"/>
<path d="M43.5508 26.9531C45.4353 26.9531 46.9688 25.4196 46.9688 23.5352C46.9688 21.6502 45.4353 20.1172 43.5508 20.1172C41.6663 20.1172 40.1328 21.6502 40.1328 23.5352C40.1328 25.4196 41.6663 26.9531 43.5508 26.9531ZM43.5508 22.0703C44.3585 22.0703 45.0156 22.7274 45.0156 23.5352C45.0156 24.3429 44.3585 25 43.5508 25C42.7431 25 42.0859 24.3429 42.0859 23.5352C42.0859 22.7274 42.7431 22.0703 43.5508 22.0703Z" fill="#05091D"/>
<path d="M13.7656 18.1641C14.305 18.1641 14.7422 17.7268 14.7422 17.1875C14.7422 16.6482 14.305 16.2109 13.7656 16.2109C13.2263 16.2109 12.7891 16.6482 12.7891 17.1875C12.7891 17.7268 13.2263 18.1641 13.7656 18.1641Z" fill="#05091D"/>
<path d="M16.6953 18.1641C17.2347 18.1641 17.6719 17.7268 17.6719 17.1875C17.6719 16.6482 17.2347 16.2109 16.6953 16.2109C16.156 16.2109 15.7188 16.6482 15.7188 17.1875C15.7188 17.7268 16.156 18.1641 16.6953 18.1641Z" fill="#05091D"/>
<path d="M19.625 18.1641C20.1643 18.1641 20.6016 17.7268 20.6016 17.1875C20.6016 16.6482 20.1643 16.2109 19.625 16.2109C19.0857 16.2109 18.6484 16.6482 18.6484 17.1875C18.6484 17.7268 19.0857 18.1641 19.625 18.1641Z" fill="#05091D"/>
<path d="M45.9922 31.8359C46.5315 31.8359 46.9688 31.3987 46.9688 30.8594C46.9688 30.32 46.5315 29.8828 45.9922 29.8828C45.4528 29.8828 45.0156 30.32 45.0156 30.8594C45.0156 31.3987 45.4528 31.8359 45.9922 31.8359Z" fill="#05091D"/>
<path d="M42.0859 39.6484C42.6253 39.6484 43.0625 39.2112 43.0625 38.6719C43.0625 38.1325 42.6253 37.6953 42.0859 37.6953C41.5466 37.6953 41.1094 38.1325 41.1094 38.6719C41.1094 39.2112 41.5466 39.6484 42.0859 39.6484Z" fill="#05091D"/>
<path d="M9.85938 26.9531C10.3987 26.9531 10.8359 26.5159 10.8359 25.9766C10.8359 25.4372 10.3987 25 9.85938 25C9.32003 25 8.88281 25.4372 8.88281 25.9766C8.88281 26.5159 9.32003 26.9531 9.85938 26.9531Z" fill="#05091D"/>
<path d="M4.97656 41.6016C5.5159 41.6016 5.95312 41.1643 5.95312 40.625C5.95312 40.0857 5.5159 39.6484 4.97656 39.6484C4.43722 39.6484 4 40.0857 4 40.625C4 41.1643 4.43722 41.6016 4.97656 41.6016Z" fill="#05091D"/>
<path d="M42.0859 7.42188C42.6253 7.42188 43.0625 6.98465 43.0625 6.44531C43.0625 5.90597 42.6253 5.46875 42.0859 5.46875C41.5466 5.46875 41.1094 5.90597 41.1094 6.44531C41.1094 6.98465 41.5466 7.42188 42.0859 7.42188Z" fill="#05091D"/>
<path d="M12.7891 5.46875C13.3284 5.46875 13.7656 5.03153 13.7656 4.49219C13.7656 3.95285 13.3284 3.51562 12.7891 3.51562C12.2497 3.51562 11.8125 3.95285 11.8125 4.49219C11.8125 5.03153 12.2497 5.46875 12.7891 5.46875Z" fill="#05091D"/>
<path d="M4.97656 15.2344C5.5159 15.2344 5.95312 14.7972 5.95312 14.2578C5.95312 13.7185 5.5159 13.2812 4.97656 13.2812C4.43722 13.2812 4 13.7185 4 14.2578C4 14.7972 4.43722 15.2344 4.97656 15.2344Z" fill="#05091D"/>
<path d="M31.3438 18.1641C31.8831 18.1641 32.3203 17.7268 32.3203 17.1875C32.3203 16.6482 31.8831 16.2109 31.3438 16.2109C30.8044 16.2109 30.3672 16.6482 30.3672 17.1875C30.3672 17.7268 30.8044 18.1641 31.3438 18.1641Z" fill="#05091D"/>
<path d="M34.2734 18.1641C34.8128 18.1641 35.25 17.7268 35.25 17.1875C35.25 16.6482 34.8128 16.2109 34.2734 16.2109C33.7341 16.2109 33.2969 16.6482 33.2969 17.1875C33.2969 17.7268 33.7341 18.1641 34.2734 18.1641Z" fill="#05091D"/>
<path d="M37.2031 18.1641C37.7425 18.1641 38.1797 17.7268 38.1797 17.1875C38.1797 16.6482 37.7425 16.2109 37.2031 16.2109C36.6638 16.2109 36.2266 16.6482 36.2266 17.1875C36.2266 17.7268 36.6638 18.1641 37.2031 18.1641Z" fill="#05091D"/>
</svg>
