<svg width="42" height="42" viewBox="0 0 42 42" fill="none" xmlns="http://www.w3.org/2000/svg">
<path d="M37.504 0.492188H4.49619C2.28848 0.492188 0.492188 2.28848 0.492188 4.49619V37.504C0.492188 39.7117 2.28848 41.508 4.49619 41.508H37.504C39.7117 41.508 41.508 39.7117 41.508 37.504V4.49619C41.508 2.28838 39.7117 0.492188 37.504 0.492188ZM39.5549 37.504C39.5549 38.6345 38.6351 39.5549 37.504 39.5549H4.49619C3.36562 39.5549 2.44531 38.6345 2.44531 37.504V4.49619C2.44531 3.36514 3.36562 2.44531 4.49619 2.44531H37.504C38.6351 2.44531 39.5549 3.36514 39.5549 4.49619V37.504Z" fill="#05091D"/>
<path d="M21.0001 4.39844C11.8457 4.39844 4.39844 11.8457 4.39844 21C4.39844 30.1538 11.8457 37.6016 21.0001 37.6016C30.1545 37.6017 37.6018 30.1538 37.6018 21.0001C37.6018 11.8457 30.1545 4.39844 21.0001 4.39844ZM21.0001 35.6485C12.9229 35.6485 6.35156 29.0772 6.35156 21.0001C6.35156 12.9229 12.9229 6.35166 21.0001 6.35166C29.0772 6.35166 35.6486 12.9229 35.6486 21.0001C35.6486 29.0772 29.0772 35.6485 21.0001 35.6485Z" fill="#05091D"/>
<path d="M21 8.30469C14 8.30469 8.30469 13.9995 8.30469 21C8.30469 28.0001 14 33.6953 21 33.6953C28.0005 33.6954 33.6954 28.0001 33.6954 21.0001C33.6954 13.9995 28.0005 8.30469 21 8.30469ZM21 31.7423C15.0768 31.7423 10.2578 26.9233 10.2578 21.0001C10.2578 15.0769 15.0768 10.2579 21 10.2579C26.9232 10.2579 31.7423 15.0768 31.7423 21.0001C31.7423 26.9233 26.9232 31.7423 21 31.7423Z" fill="#05091D"/>
<path d="M23.6437 19.7378L27.2147 16.1663C27.5961 15.7849 27.5961 15.1664 27.2147 14.7854C26.8333 14.4039 26.2153 14.4039 25.8337 14.7854L22.2622 18.3569C22.1698 18.3121 22.0743 18.273 21.9766 18.2382V13.1875C21.9766 12.6482 21.5392 12.2109 21 12.2109C20.4607 12.2109 20.0234 12.6482 20.0234 13.1875V18.2382C19.9257 18.2729 19.8303 18.3121 19.7378 18.3564L16.1663 14.7854C15.7849 14.4039 15.1664 14.4039 14.7849 14.7854C14.4039 15.1664 14.4039 15.7849 14.7849 16.1663L18.3564 19.7378C18.3126 19.8303 18.273 19.9257 18.2382 20.0234H13.1875C12.6482 20.0234 12.2109 20.4607 12.2109 21C12.2109 21.5394 12.6482 21.9766 13.1875 21.9766H18.2382C18.273 22.0743 18.3126 22.1698 18.3564 22.2622L14.7849 25.8337C14.4039 26.215 14.4039 26.833 14.7849 27.2147C15.1664 27.5961 15.7849 27.5961 16.1663 27.2147L19.7378 23.6433C19.8303 23.6881 19.9257 23.727 20.0234 23.762V28.8125C20.0234 29.3517 20.4607 29.7891 21 29.7891C21.5392 29.7891 21.9766 29.3517 21.9766 28.8125V23.7618C22.0743 23.7271 22.1698 23.6878 22.2622 23.643L25.8337 27.2145C26.2151 27.5959 26.833 27.5959 27.2147 27.2145C27.5963 26.833 27.5961 26.215 27.2147 25.8335L23.6437 22.262C23.6881 22.1695 23.7271 22.0741 23.7619 21.9764H28.8127C29.3519 21.9764 29.7894 21.5391 29.7894 20.9998C29.7894 20.4605 29.352 20.0232 28.8127 20.0232H23.7619C23.7272 19.9257 23.6881 19.8303 23.6437 19.7378ZM20.0236 21C20.0236 20.4616 20.4618 20.0234 21.0002 20.0234C21.5386 20.0234 21.9768 20.4616 21.9768 21C21.9768 21.5385 21.5386 21.9766 21.0002 21.9766C20.4618 21.9766 20.0236 21.5385 20.0236 21Z" fill="#05091D"/>
<path d="M4.39844 35.6484H6.35156V37.6016H4.39844V35.6484Z" fill="#05091D"/>
<path d="M35.6484 35.6484H37.6016V37.6016H35.6484V35.6484Z" fill="#05091D"/>
<path d="M4.39844 4.39844H6.35156V6.35156H4.39844V4.39844Z" fill="#05091D"/>
<path d="M35.6484 4.39844H37.6016V6.35156H35.6484V4.39844Z" fill="#05091D"/>
</svg>
