<svg width="29" height="28" viewBox="0 0 29 28" fill="none" xmlns="http://www.w3.org/2000/svg">
<path d="M27.3829 26.5978H21.5236V25.4259H23.8673C24.1909 25.4259 24.4532 25.1635 24.4532 24.8399V7.84766H26.2111C26.5346 7.84766 26.797 7.58527 26.797 7.26172V2.57422C26.797 2.25066 26.5346 1.98828 26.2111 1.98828H24.4532V0.816406C24.4532 0.492852 24.1909 0.230469 23.8673 0.230469C23.5438 0.230469 23.2814 0.492852 23.2814 0.816406V1.98828H5.70312V0.816406C5.70312 0.492852 5.44074 0.230469 5.11719 0.230469C4.79363 0.230469 4.53125 0.492852 4.53125 0.816406V1.98828H2.77344C2.44988 1.98828 2.1875 2.25066 2.1875 2.57422V7.26172C2.1875 7.58527 2.44988 7.84766 2.77344 7.84766H4.53125V24.8399C4.53125 25.1635 4.79363 25.4259 5.11719 25.4259H7.46094V26.5978H1.60156C1.27801 26.5978 1.01562 26.8602 1.01562 27.1837C1.01562 27.5073 1.27801 27.7696 1.60156 27.7696H27.3829C27.7065 27.7696 27.9689 27.5073 27.9689 27.1837C27.9689 26.8602 27.7065 26.5978 27.3829 26.5978ZM25.6251 3.16016V6.67578H24.4532V3.16016H25.6251ZM23.2814 3.16016V6.67578H5.70312V3.16016H23.2814ZM3.35938 3.16016H4.53125V6.67578H3.35938V3.16016ZM5.70312 7.84766H23.2814V24.254C22.6307 24.254 6.60336 24.254 5.70312 24.254V7.84766ZM8.63287 26.5978V25.4259H20.3517V26.5978H8.63287Z" fill="#FF3B00"/>
<path d="M6.28906 4.33203H7.46094V5.50391H6.28906V4.33203Z" fill="#FF3B00"/>
<path d="M8.04688 4.33203H9.21875V5.50391H8.04688V4.33203Z" fill="#FF3B00"/>
<path d="M9.80469 4.33203H10.9766V5.50391H9.80469V4.33203Z" fill="#FF3B00"/>
<path d="M6.28906 10.1914H9.21875V11.3633H6.28906V10.1914Z" fill="#FF3B00"/>
<path d="M19.7656 10.1914H22.6953V11.3633H19.7656V10.1914Z" fill="#FF3B00"/>
<path d="M9.80469 10.1914H19.1797V11.3633H9.80469V10.1914Z" fill="#FF3B00"/>
<path d="M6.28906 11.9492H9.21875V13.1211H6.28906V11.9492Z" fill="#FF3B00"/>
<path d="M19.7656 11.9492H22.6953V13.1211H19.7656V11.9492Z" fill="#FF3B00"/>
<path d="M9.80469 11.9492H19.1797V13.1211H9.80469V11.9492Z" fill="#FF3B00"/>
<path d="M6.28906 13.707H9.21875V14.8789H6.28906V13.707Z" fill="#FF3B00"/>
<path d="M19.7656 13.707H22.6953V14.8789H19.7656V13.707Z" fill="#FF3B00"/>
<path d="M9.80469 13.707H19.1797V14.8789H9.80469V13.707Z" fill="#FF3B00"/>
<path d="M6.28906 15.4648H9.21875V16.6367H6.28906V15.4648Z" fill="#FF3B00"/>
<path d="M19.7656 15.4648H22.6953V16.6367H19.7656V15.4648Z" fill="#FF3B00"/>
<path d="M9.80469 15.4648H19.1797V16.6367H9.80469V15.4648Z" fill="#FF3B00"/>
<path d="M6.28906 17.2227H9.21875V18.3945H6.28906V17.2227Z" fill="#FF3B00"/>
<path d="M19.7656 17.2227H22.6953V18.3945H19.7656V17.2227Z" fill="#FF3B00"/>
<path d="M9.80469 17.2227H19.1797V18.3945H9.80469V17.2227Z" fill="#FF3B00"/>
<path d="M6.28906 18.9805H9.21875V20.1523H6.28906V18.9805Z" fill="#FF3B00"/>
<path d="M19.7656 18.9805H22.6953V20.1523H19.7656V18.9805Z" fill="#FF3B00"/>
<path d="M9.80469 18.9805H19.1797V20.1523H9.80469V18.9805Z" fill="#FF3B00"/>
<path d="M6.28906 20.7383H9.21875V21.9102H6.28906V20.7383Z" fill="#FF3B00"/>
<path d="M19.7656 20.7383H22.6953V21.9102H19.7656V20.7383Z" fill="#FF3B00"/>
<path d="M9.80469 20.7383H19.1797V21.9102H9.80469V20.7383Z" fill="#FF3B00"/>
<path d="M3.35938 19.8594C3.35938 19.0517 2.70219 18.3945 1.89453 18.3945C1.08687 18.3945 0.429688 19.0517 0.429688 19.8594C0.429688 20.667 1.08687 21.3242 1.89453 21.3242C2.70219 21.3242 3.35938 20.667 3.35938 19.8594ZM1.60156 19.8594C1.60156 19.6977 1.73305 19.5664 1.89453 19.5664C2.05602 19.5664 2.1875 19.6977 2.1875 19.8594C2.1875 20.0207 2.05602 20.1523 1.89453 20.1523C1.73305 20.1523 1.60156 20.0207 1.60156 19.8594Z" fill="#FF3B00"/>
<path d="M26.7969 9.60547C25.8276 9.60547 25.0391 10.394 25.0391 11.3633C25.0391 12.3323 25.8276 13.1211 26.7969 13.1211C27.7662 13.1211 28.5547 12.3323 28.5547 11.3633C28.5547 10.394 27.7662 9.60547 26.7969 9.60547ZM26.7969 11.9493C26.4738 11.9493 26.2109 11.6864 26.2109 11.3633C26.2109 11.0403 26.4738 10.7774 26.7969 10.7774C27.1199 10.7774 27.3828 11.0403 27.3828 11.3633C27.3828 11.6864 27.1199 11.9493 26.7969 11.9493Z" fill="#FF3B00"/>
<path d="M26.7969 21.3242C27.1205 21.3242 27.3828 21.0619 27.3828 20.7383C27.3828 20.4147 27.1205 20.1523 26.7969 20.1523C26.4733 20.1523 26.2109 20.4147 26.2109 20.7383C26.2109 21.0619 26.4733 21.3242 26.7969 21.3242Z" fill="#FF3B00"/>
<path d="M25.625 15.4648C25.9486 15.4648 26.2109 15.2025 26.2109 14.8789C26.2109 14.5553 25.9486 14.293 25.625 14.293C25.3014 14.293 25.0391 14.5553 25.0391 14.8789C25.0391 15.2025 25.3014 15.4648 25.625 15.4648Z" fill="#FF3B00"/>
<path d="M3.35938 11.3633C3.68298 11.3633 3.94531 11.1009 3.94531 10.7773C3.94531 10.4537 3.68298 10.1914 3.35938 10.1914C3.03577 10.1914 2.77344 10.4537 2.77344 10.7773C2.77344 11.1009 3.03577 11.3633 3.35938 11.3633Z" fill="#FF3B00"/>
<path d="M2.77344 25.4258C3.09704 25.4258 3.35938 25.1634 3.35938 24.8398C3.35938 24.5162 3.09704 24.2539 2.77344 24.2539C2.44983 24.2539 2.1875 24.5162 2.1875 24.8398C2.1875 25.1634 2.44983 25.4258 2.77344 25.4258Z" fill="#FF3B00"/>
</svg>
