<svg width="29" height="28" viewBox="0 0 29 28" fill="none" xmlns="http://www.w3.org/2000/svg">
<path d="M16.9356 25.0979C17.1645 24.869 17.1645 24.4981 16.9356 24.2693C16.7068 24.0404 16.336 24.0404 16.107 24.2693C15.2161 25.1603 13.7661 25.1603 12.8752 24.2693C12.6464 24.0404 12.2756 24.0404 12.0467 24.2693C11.8178 24.4979 11.8178 24.8689 12.0467 25.0979C13.3945 26.4458 15.5878 26.4458 16.9356 25.0979Z" fill="#05091D"/>
<path d="M17.3945 25.5545C15.7917 27.1573 13.1971 27.1575 11.594 25.5545C11.3652 25.3256 10.9941 25.3256 10.7652 25.5545C10.5366 25.7834 10.5366 26.1541 10.7652 26.3831C12.8263 28.4439 16.162 28.4442 18.2231 26.3831C18.4519 26.1542 18.4519 25.7835 18.2231 25.5545C17.9942 25.3256 17.6233 25.3256 17.3945 25.5545Z" fill="#05091D"/>
<path d="M27.9688 5.34766H19.1797V4.76172C19.1797 4.43816 18.9173 4.17578 18.5938 4.17578H18.0078V2.41797C18.0078 2.09441 17.7454 1.83203 17.4219 1.83203H11.5625C11.2389 1.83203 10.9766 2.09441 10.9766 2.41797V4.17578H10.3906C10.0671 4.17578 9.80469 4.43816 9.80469 4.76172V5.34766H1.01563C0.69207 5.34766 0.429688 5.61004 0.429688 5.93359V11.793C0.429688 12.1165 0.69207 12.3789 1.01563 12.3789H9.80469V14.7227C9.80469 15.0462 10.0671 15.3086 10.3906 15.3086H10.9766V16.8384C8.87656 18.056 7.46094 20.3285 7.46094 22.9258C7.46094 23.2493 7.72332 23.5117 8.04688 23.5117H20.9376C21.2611 23.5117 21.5235 23.2493 21.5235 22.9258C21.5235 20.3286 20.1079 18.0561 18.0078 16.8384V15.3086H18.5938C18.9173 15.3086 19.1797 15.0462 19.1797 14.7227V12.3789H27.9688C28.2924 12.3789 28.5547 12.1165 28.5547 11.793V5.93359C28.5547 5.61004 28.2924 5.34766 27.9688 5.34766ZM27.3829 8.27734H26.211V6.51953H27.3829V8.27734ZM22.6954 9.44922V11.207H21.5235V9.44922H22.6954ZM21.5235 8.27734V6.51953H22.6954V8.27734H21.5235ZM23.8672 9.44922H25.0391V11.207H23.8672V9.44922ZM23.8672 8.27734V6.51953H25.0391V8.27734H23.8672ZM20.3516 6.51953V8.27734H19.1797V6.51953H20.3516ZM10.9766 7.69141H18.0078V8.27734H10.9766V7.69141ZM12.1484 3.00391H16.8359V4.17578H12.1484V3.00391ZM10.9766 5.34766H18.0078V6.51953H10.9766C10.9766 6.10955 10.9766 5.7577 10.9766 5.34766ZM9.80469 8.27734H8.63281V6.51953H9.80469V8.27734ZM5.11713 9.44922V11.207H3.94525V9.44922H5.11713ZM3.94525 8.27734V6.51953H5.11713V8.27734H3.94525ZM6.289 9.44922H7.46088V11.207H6.289V9.44922ZM6.289 8.27734V6.51953H7.46088V8.27734H6.289ZM2.77338 6.51953V8.27734H1.6015V6.51953H2.77338ZM1.6015 9.44922H2.77338V11.207H1.6015V9.44922ZM8.63281 11.2071V9.44928H9.80469V11.2071H8.63281ZM20.3224 22.3399H8.66199C8.95666 19.383 11.459 17.0665 14.4922 17.0665C17.5252 17.0665 20.0274 19.3831 20.3224 22.3399ZM16.8359 16.2966C15.3653 15.7754 13.7025 15.7456 12.1484 16.2966V15.3087H16.8359V16.2966ZM18.0078 14.1368C17.2096 14.1368 11.909 14.1368 10.9766 14.1368C10.9766 13.5696 10.9766 10.02 10.9766 9.44922H18.0078V14.1368ZM19.1797 9.44922H20.3516V11.207H19.1797V9.44922ZM26.211 11.2071V9.44928H27.3829V11.2071H26.211Z" fill="#05091D"/>
<path d="M10.3906 20.582C10.3906 20.9055 10.653 21.168 10.9766 21.168H18.0078C18.3314 21.168 18.5938 20.9055 18.5938 20.582C18.5938 20.2585 18.3314 19.9961 18.0078 19.9961H10.9766C10.6529 19.9961 10.3906 20.2585 10.3906 20.582Z" fill="#05091D"/>
<path d="M5.70312 19.4102C5.70312 18.4408 4.91463 17.6523 3.94531 17.6523C2.976 17.6523 2.1875 18.4408 2.1875 19.4102C2.1875 20.3795 2.976 21.168 3.94531 21.168C4.91463 21.168 5.70312 20.3795 5.70312 19.4102ZM3.94531 19.9961C3.62199 19.9961 3.35938 19.7332 3.35938 19.4102C3.35938 19.0871 3.62199 18.8242 3.94531 18.8242C4.26863 18.8242 4.53125 19.0871 4.53125 19.4102C4.53125 19.7332 4.26863 19.9961 3.94531 19.9961Z" fill="#05091D"/>
<path d="M23.8672 3.58984C24.8365 3.58984 25.625 2.80105 25.625 1.83203C25.625 0.862715 24.8365 0.0742188 23.8672 0.0742188C22.8979 0.0742188 22.1094 0.862715 22.1094 1.83203C22.1094 2.80105 22.8979 3.58984 23.8672 3.58984ZM23.8672 1.24609C24.1902 1.24609 24.4531 1.509 24.4531 1.83203C24.4531 2.15506 24.1902 2.41797 23.8672 2.41797C23.5442 2.41797 23.2812 2.15506 23.2812 1.83203C23.2812 1.509 23.5442 1.24609 23.8672 1.24609Z" fill="#05091D"/>
<path d="M25.332 15.3086C24.2013 15.3086 23.2812 16.2283 23.2812 17.3594C23.2812 18.4901 24.2013 19.4102 25.332 19.4102C26.4627 19.4102 27.3828 18.4901 27.3828 17.3594C27.3828 16.2285 26.4627 15.3086 25.332 15.3086ZM25.332 18.2383C24.8474 18.2383 24.4531 17.844 24.4531 17.3594C24.4531 16.8747 24.8474 16.4805 25.332 16.4805C25.8167 16.4805 26.2109 16.8747 26.2109 17.3594C26.2109 17.844 25.8167 18.2383 25.332 18.2383Z" fill="#05091D"/>
<path d="M2.1875 3.00391C2.5111 3.00391 2.77344 2.74157 2.77344 2.41797C2.77344 2.09436 2.5111 1.83203 2.1875 1.83203C1.8639 1.83203 1.60156 2.09436 1.60156 2.41797C1.60156 2.74157 1.8639 3.00391 2.1875 3.00391Z" fill="#05091D"/>
<path d="M8.04688 3.58984C8.37048 3.58984 8.63281 3.32751 8.63281 3.00391C8.63281 2.6803 8.37048 2.41797 8.04688 2.41797C7.72327 2.41797 7.46094 2.6803 7.46094 3.00391C7.46094 3.32751 7.72327 3.58984 8.04688 3.58984Z" fill="#05091D"/>
<path d="M20.3516 3.00391C20.6752 3.00391 20.9375 2.74157 20.9375 2.41797C20.9375 2.09436 20.6752 1.83203 20.3516 1.83203C20.028 1.83203 19.7656 2.09436 19.7656 2.41797C19.7656 2.74157 20.028 3.00391 20.3516 3.00391Z" fill="#05091D"/>
<path d="M21.5234 15.8945C21.847 15.8945 22.1094 15.6322 22.1094 15.3086C22.1094 14.985 21.847 14.7227 21.5234 14.7227C21.1998 14.7227 20.9375 14.985 20.9375 15.3086C20.9375 15.6322 21.1998 15.8945 21.5234 15.8945Z" fill="#05091D"/>
<path d="M25.0391 24.0977C25.3627 24.0977 25.625 23.8353 25.625 23.5117C25.625 23.1881 25.3627 22.9258 25.0391 22.9258C24.7155 22.9258 24.4531 23.1881 24.4531 23.5117C24.4531 23.8353 24.7155 24.0977 25.0391 24.0977Z" fill="#05091D"/>
<path d="M5.70312 25.2695C6.02673 25.2695 6.28906 25.0072 6.28906 24.6836C6.28906 24.36 6.02673 24.0977 5.70312 24.0977C5.37952 24.0977 5.11719 24.36 5.11719 24.6836C5.11719 25.0072 5.37952 25.2695 5.70312 25.2695Z" fill="#05091D"/>
<path d="M8.04688 16.4805C8.37048 16.4805 8.63281 16.2181 8.63281 15.8945C8.63281 15.5709 8.37048 15.3086 8.04688 15.3086C7.72327 15.3086 7.46094 15.5709 7.46094 15.8945C7.46094 16.2181 7.72327 16.4805 8.04688 16.4805Z" fill="#05091D"/>
<path d="M2.1875 14.7227C2.5111 14.7227 2.77344 14.4603 2.77344 14.1367C2.77344 13.8131 2.5111 13.5508 2.1875 13.5508C1.8639 13.5508 1.60156 13.8131 1.60156 14.1367C1.60156 14.4603 1.8639 14.7227 2.1875 14.7227Z" fill="#05091D"/>
<path d="M12.1484 11.207H13.3203V12.3789H12.1484V11.207Z" fill="#05091D"/>
<path d="M13.9062 11.207H15.0781V12.3789H13.9062V11.207Z" fill="#05091D"/>
<path d="M15.6641 11.207H16.8359V12.3789H15.6641V11.207Z" fill="#05091D"/>
</svg>
