<svg width="60" height="60" viewBox="0 0 60 60" fill="none" xmlns="http://www.w3.org/2000/svg">
<path d="M34.8868 52.192C35.3445 51.7341 35.3445 50.9922 34.8868 50.5347C34.4292 50.077 33.6876 50.077 33.2297 50.5347C31.4478 52.3167 28.5479 52.3167 26.7661 50.5347C26.3083 50.077 25.5668 50.077 25.1089 50.5347C24.6512 50.9919 24.6512 51.7339 25.1089 52.192C27.8046 54.8876 32.1912 54.8876 34.8868 52.192Z" fill="#FF3B00"/>
<path d="M35.7968 53.1051C32.5912 56.3106 27.4019 56.3111 24.1959 53.1051C23.7382 52.6473 22.996 52.6473 22.5382 53.1051C22.081 53.5628 22.081 54.3044 22.5382 54.7622C26.6604 58.8838 33.3317 58.8845 37.4539 54.7622C37.9116 54.3046 37.9116 53.563 37.4539 53.1051C36.9962 52.6472 36.2545 52.6473 35.7968 53.1051Z" fill="#FF3B00"/>
<path d="M56.9532 12.6914H39.375V11.5195C39.375 10.8724 38.8502 10.3477 38.2031 10.3477H37.0313V6.83203C37.0313 6.18492 36.5065 5.66016 35.8594 5.66016H24.1406C23.4935 5.66016 22.9688 6.18492 22.9688 6.83203V10.3477H21.7969C21.1498 10.3477 20.625 10.8724 20.625 11.5195V12.6914H3.04688C2.39977 12.6914 1.875 13.2162 1.875 13.8633V25.582C1.875 26.2291 2.39977 26.7539 3.04688 26.7539H20.625V31.4414C20.625 32.0885 21.1498 32.6133 21.7969 32.6133H22.9688V35.6728C18.7688 38.1081 15.9375 42.6531 15.9375 47.8477C15.9375 48.4948 16.4623 49.0195 17.1094 49.0195H42.8907C43.5379 49.0195 44.0626 48.4948 44.0626 47.8477C44.0626 42.6532 41.2314 38.1083 37.0313 35.6728V32.6133H38.2031C38.8502 32.6133 39.375 32.0885 39.375 31.4414V26.7539H56.9532C57.6004 26.7539 58.1251 26.2291 58.1251 25.582V13.8633C58.1251 13.2162 57.6004 12.6914 56.9532 12.6914ZM55.7814 18.5508H53.4376V15.0352H55.7814V18.5508ZM46.4064 20.8945V24.4102H44.0626V20.8945H46.4064ZM44.0626 18.5508V15.0352H46.4064V18.5508H44.0626ZM48.7501 20.8945H51.0939V24.4102H48.7501V20.8945ZM48.7501 18.5508V15.0352H51.0939V18.5508H48.7501ZM41.7189 15.0352V18.5508H39.375V15.0352H41.7189ZM22.9688 17.3789H37.0313V18.5508H22.9688V17.3789ZM25.3125 8.00391H34.6875V10.3477H25.3125V8.00391ZM22.9688 12.6914H37.0313V15.0352H22.9688C22.9688 14.2152 22.9688 13.5115 22.9688 12.6914ZM20.625 18.5508H18.2813V15.0352H20.625V18.5508ZM11.2499 20.8945V24.4102H8.90613V20.8945H11.2499ZM8.90613 18.5508V15.0352H11.2499V18.5508H8.90613ZM13.5936 20.8945H15.9374V24.4102H13.5936V20.8945ZM13.5936 18.5508V15.0352H15.9374V18.5508H13.5936ZM6.56238 15.0352V18.5508H4.21863V15.0352H6.56238ZM4.21863 20.8945H6.56238V24.4102H4.21863V20.8945ZM18.2813 24.4103V20.8946H20.625V24.4103H18.2813ZM41.6605 46.6759H18.3396C18.9289 40.762 23.9336 36.129 30 36.129C36.066 36.129 41.0705 40.7624 41.6605 46.6759ZM34.6875 34.5893C31.7462 33.5468 28.4207 33.4874 25.3125 34.5893V32.6135H34.6875V34.5893ZM37.0313 30.2696C35.4348 30.2696 24.8336 30.2696 22.9688 30.2696C22.9688 29.1354 22.9688 22.0361 22.9688 20.8945H37.0313V30.2696ZM39.375 20.8945H41.7189V24.4102H39.375V20.8945ZM53.4376 24.4103V20.8946H55.7814V24.4103H53.4376Z" fill="#FF3B00"/>
<path d="M21.7969 43.1602C21.7969 43.8071 22.3216 44.332 22.9688 44.332H37.0312C37.6784 44.332 38.2031 43.8071 38.2031 43.1602C38.2031 42.513 37.6784 41.9883 37.0312 41.9883H22.9688C22.3215 41.9883 21.7969 42.513 21.7969 43.1602Z" fill="#FF3B00"/>
<path d="M12.4219 40.8164C12.4219 38.8778 10.8449 37.3008 8.90625 37.3008C6.96762 37.3008 5.39062 38.8778 5.39062 40.8164C5.39062 42.755 6.96762 44.332 8.90625 44.332C10.8449 44.332 12.4219 42.755 12.4219 40.8164ZM8.90625 41.9883C8.25961 41.9883 7.73438 41.4625 7.73438 40.8164C7.73438 40.1702 8.25961 39.6445 8.90625 39.6445C9.55289 39.6445 10.0781 40.1702 10.0781 40.8164C10.0781 41.4625 9.55289 41.9883 8.90625 41.9883Z" fill="#FF3B00"/>
<path d="M48.75 9.17578C50.6886 9.17578 52.2656 7.5982 52.2656 5.66016C52.2656 3.72152 50.6886 2.14453 48.75 2.14453C46.8114 2.14453 45.2344 3.72152 45.2344 5.66016C45.2344 7.5982 46.8114 9.17578 48.75 9.17578ZM48.75 4.48828C49.3961 4.48828 49.9219 5.0141 49.9219 5.66016C49.9219 6.30621 49.3961 6.83203 48.75 6.83203C48.1039 6.83203 47.5781 6.30621 47.5781 5.66016C47.5781 5.0141 48.1039 4.48828 48.75 4.48828Z" fill="#FF3B00"/>
<path d="M51.6797 32.6133C49.4183 32.6133 47.5781 34.4528 47.5781 36.7148C47.5781 38.9762 49.4183 40.8164 51.6797 40.8164C53.9411 40.8164 55.7812 38.9762 55.7812 36.7148C55.7812 34.4531 53.9411 32.6133 51.6797 32.6133ZM51.6797 38.4727C50.7104 38.4727 49.9219 37.6841 49.9219 36.7148C49.9219 35.7456 50.7104 34.957 51.6797 34.957C52.6489 34.957 53.4375 35.7456 53.4375 36.7148C53.4375 37.6841 52.6489 38.4727 51.6797 38.4727Z" fill="#FF3B00"/>
<path d="M5.39062 8.00391C6.03783 8.00391 6.5625 7.47924 6.5625 6.83203C6.5625 6.18482 6.03783 5.66016 5.39062 5.66016C4.74342 5.66016 4.21875 6.18482 4.21875 6.83203C4.21875 7.47924 4.74342 8.00391 5.39062 8.00391Z" fill="#FF3B00"/>
<path d="M17.1094 9.17578C17.7566 9.17578 18.2812 8.65112 18.2812 8.00391C18.2812 7.3567 17.7566 6.83203 17.1094 6.83203C16.4622 6.83203 15.9375 7.3567 15.9375 8.00391C15.9375 8.65112 16.4622 9.17578 17.1094 9.17578Z" fill="#FF3B00"/>
<path d="M41.7188 8.00391C42.366 8.00391 42.8906 7.47924 42.8906 6.83203C42.8906 6.18482 42.366 5.66016 41.7188 5.66016C41.0715 5.66016 40.5469 6.18482 40.5469 6.83203C40.5469 7.47924 41.0715 8.00391 41.7188 8.00391Z" fill="#FF3B00"/>
<path d="M44.0625 33.7852C44.7097 33.7852 45.2344 33.2605 45.2344 32.6133C45.2344 31.9661 44.7097 31.4414 44.0625 31.4414C43.4153 31.4414 42.8906 31.9661 42.8906 32.6133C42.8906 33.2605 43.4153 33.7852 44.0625 33.7852Z" fill="#FF3B00"/>
<path d="M51.0938 50.1914C51.741 50.1914 52.2656 49.6667 52.2656 49.0195C52.2656 48.3723 51.741 47.8477 51.0938 47.8477C50.4465 47.8477 49.9219 48.3723 49.9219 49.0195C49.9219 49.6667 50.4465 50.1914 51.0938 50.1914Z" fill="#FF3B00"/>
<path d="M12.4219 52.5352C13.0691 52.5352 13.5938 52.0105 13.5938 51.3633C13.5938 50.7161 13.0691 50.1914 12.4219 50.1914C11.7747 50.1914 11.25 50.7161 11.25 51.3633C11.25 52.0105 11.7747 52.5352 12.4219 52.5352Z" fill="#FF3B00"/>
<path d="M17.1094 34.957C17.7566 34.957 18.2812 34.4324 18.2812 33.7852C18.2812 33.1379 17.7566 32.6133 17.1094 32.6133C16.4622 32.6133 15.9375 33.1379 15.9375 33.7852C15.9375 34.4324 16.4622 34.957 17.1094 34.957Z" fill="#FF3B00"/>
<path d="M5.39062 31.4414C6.03783 31.4414 6.5625 30.9167 6.5625 30.2695C6.5625 29.6223 6.03783 29.0977 5.39062 29.0977C4.74342 29.0977 4.21875 29.6223 4.21875 30.2695C4.21875 30.9167 4.74342 31.4414 5.39062 31.4414Z" fill="#FF3B00"/>
<path d="M25.3125 24.4102H27.6562V26.7539H25.3125V24.4102Z" fill="#FF3B00"/>
<path d="M28.8281 24.4102H31.1719V26.7539H28.8281V24.4102Z" fill="#FF3B00"/>
<path d="M32.3438 24.4102H34.6875V26.7539H32.3438V24.4102Z" fill="#FF3B00"/>
</svg>
