<svg width="52" height="54" viewBox="0 0 52 54" fill="none" xmlns="http://www.w3.org/2000/svg">
<path d="M7.25 18.2109H9.59375V20.5547H7.25V18.2109Z" fill="#FF3B00"/>
<path d="M10.7656 18.2109H13.1094V20.5547H10.7656V18.2109Z" fill="#FF3B00"/>
<path d="M14.2812 18.2109H16.625V20.5547H14.2812V18.2109Z" fill="#FF3B00"/>
<path d="M17.7969 18.2109H20.1406V20.5547H17.7969V18.2109Z" fill="#FF3B00"/>
<path d="M21.3125 18.2109H23.6562V20.5547H21.3125V18.2109Z" fill="#FF3B00"/>
<path d="M24.8281 18.2109H27.1719V20.5547H24.8281V18.2109Z" fill="#FF3B00"/>
<path d="M35.375 18.2109H37.7189V20.5547H35.375V18.2109Z" fill="#FF3B00"/>
<path d="M42.4062 18.2109H44.75V20.5547H42.4062V18.2109Z" fill="#FF3B00"/>
<path d="M38.8906 18.2109H41.2344V20.5547H38.8906V18.2109Z" fill="#FF3B00"/>
<path d="M38.8906 21.7266H41.2344V24.0703H38.8906V21.7266Z" fill="#FF3B00"/>
<path d="M38.8906 25.2422H41.2344V27.5859H38.8906V25.2422Z" fill="#FF3B00"/>
<path d="M38.8906 28.7578H41.2344V31.1016H38.8906V28.7578Z" fill="#FF3B00"/>
<path d="M7.25 21.7266H9.59375V24.0703H7.25V21.7266Z" fill="#FF3B00"/>
<path d="M10.7656 21.7266H13.1094V24.0703H10.7656V21.7266Z" fill="#FF3B00"/>
<path d="M14.2812 21.7266H16.625V24.0703H14.2812V21.7266Z" fill="#FF3B00"/>
<path d="M17.7969 21.7266H20.1406V24.0703H17.7969V21.7266Z" fill="#FF3B00"/>
<path d="M21.3125 21.7266H23.6562V24.0703H21.3125V21.7266Z" fill="#FF3B00"/>
<path d="M24.8281 21.7266H27.1719V24.0703H24.8281V21.7266Z" fill="#FF3B00"/>
<path d="M35.375 21.7266H37.7189V24.0703H35.375V21.7266Z" fill="#FF3B00"/>
<path d="M42.4062 21.7266H44.75V24.0703H42.4062V21.7266Z" fill="#FF3B00"/>
<path d="M7.25 25.2422H9.59375V27.5859H7.25V25.2422Z" fill="#FF3B00"/>
<path d="M10.7656 25.2422H13.1094V27.5859H10.7656V25.2422Z" fill="#FF3B00"/>
<path d="M14.2812 25.2422H16.625V27.5859H14.2812V25.2422Z" fill="#FF3B00"/>
<path d="M17.7969 25.2422H20.1406V27.5859H17.7969V25.2422Z" fill="#FF3B00"/>
<path d="M21.3125 25.2422H23.6562V27.5859H21.3125V25.2422Z" fill="#FF3B00"/>
<path d="M35.375 25.2422H37.7189V27.5859H35.375V25.2422Z" fill="#FF3B00"/>
<path d="M7.25 28.7578H9.59375V31.1016H7.25V28.7578Z" fill="#FF3B00"/>
<path d="M10.7656 28.7578H13.1094V31.1016H10.7656V28.7578Z" fill="#FF3B00"/>
<path d="M14.2812 28.7578H27.1719V31.1016H14.2812V28.7578Z" fill="#FF3B00"/>
<path d="M35.375 28.7578H37.7189V31.1016H35.375V28.7578Z" fill="#FF3B00"/>
<path d="M42.4062 25.2422H44.75V31.1016H42.4062V25.2422Z" fill="#FF3B00"/>
<path d="M47.0939 14.6953H41.2345V11.1797C41.2345 7.94848 38.6057 5.32031 35.375 5.32031C32.1444 5.32031 29.5156 7.94848 29.5156 11.1797V14.6953H23.6562V11.1797C23.6562 7.94848 21.0277 5.32031 17.7969 5.32031C14.566 5.32031 11.9375 7.94848 11.9375 11.1797V14.6953H4.90625C4.25914 14.6953 3.73438 15.2201 3.73438 15.8672V33.4454C3.73438 34.0924 4.25914 34.6173 4.90625 34.6173H11.9375V40.4767C11.9375 41.1237 12.4623 41.6486 13.1094 41.6486C13.7565 41.6486 14.2812 41.1237 14.2812 40.4767V34.6173H21.3125V38.7189C21.3125 41.6268 23.6783 43.9923 26.5859 43.9923C29.4937 43.9923 31.8594 41.6268 31.8594 38.7189V34.6173H38.8907V38.1329H35.375C34.7279 38.1329 34.2031 38.6578 34.2031 39.3048V47.5079C34.2031 50.7387 36.832 53.3674 40.0626 53.3674C43.2932 53.3674 45.922 50.7387 45.922 47.5079V39.3048C45.922 38.6578 45.3972 38.1329 44.7501 38.1329H41.2345V34.6173H47.0939C47.741 34.6173 48.2657 34.0924 48.2657 33.4454V15.8672C48.2657 15.2201 47.741 14.6953 47.0939 14.6953ZM43.5782 40.4767V47.5079C43.5782 49.4467 42.0013 51.0237 40.0626 51.0237C38.124 51.0237 36.547 49.4467 36.547 47.5079V40.4767H38.8907V43.9923C38.8907 44.6393 39.4155 45.1642 40.0626 45.1642C40.7097 45.1642 41.2345 44.6393 41.2345 43.9923V40.4767H43.5782ZM31.8594 11.1797C31.8594 9.24105 33.4364 7.66406 35.375 7.66406C37.3138 7.66406 38.8907 9.24105 38.8907 11.1797V14.6953H31.8594V11.1797ZM14.2812 11.1797C14.2812 9.24105 15.8582 7.66406 17.7969 7.66406C19.7355 7.66406 21.3125 9.24105 21.3125 11.1797V14.6953H14.2812V11.1797ZM6.07801 17.0391H29.5156V25.2422H24.8281V27.5859H29.5156V28.7578H28.3438V31.1016H29.5156V32.2734C26.7193 32.2734 8.55512 32.2734 6.07801 32.2734V17.0391ZM29.5156 38.7189C29.5156 40.3342 28.2013 41.6486 26.5859 41.6486C24.9706 41.6486 23.6562 40.3342 23.6562 38.7189V34.6173H29.5156V38.7189ZM45.922 32.2736H31.8594V31.1017H34.2031V28.7579H31.8594V17.0391H45.922V32.2736Z" fill="#FF3B00"/>
<path d="M3.73438 42.8203C1.79574 42.8203 0.21875 44.3973 0.21875 46.3359C0.21875 48.2746 1.79574 49.8517 3.73438 49.8517C5.67301 49.8517 7.25 48.2746 7.25 46.3359C7.25 44.3973 5.67301 42.8203 3.73438 42.8203ZM3.73438 47.5078C3.08809 47.5078 2.5625 46.9821 2.5625 46.3359C2.5625 45.6898 3.08809 45.1641 3.73438 45.1641C4.38066 45.1641 4.90625 45.6898 4.90625 46.3359C4.90625 46.9821 4.38066 47.5078 3.73438 47.5078Z" fill="#FF3B00"/>
<path d="M4.32031 7.66406C5.93563 7.66406 7.25 6.34969 7.25 4.73438C7.25 3.11906 5.93563 1.80469 4.32031 1.80469C2.705 1.80469 1.39062 3.11906 1.39062 4.73438C1.39062 6.34969 2.705 7.66406 4.32031 7.66406ZM4.32031 4.14844C4.64328 4.14844 4.90625 4.41105 4.90625 4.73438C4.90625 5.0577 4.64328 5.32031 4.32031 5.32031C3.99734 5.32031 3.73438 5.0577 3.73438 4.73438C3.73438 4.41105 3.99734 4.14844 4.32031 4.14844Z" fill="#FF3B00"/>
<path d="M47.6797 8.83594C49.9411 8.83594 51.7812 6.99574 51.7812 4.73438C51.7812 2.47242 49.9411 0.632812 47.6797 0.632812C45.4183 0.632812 43.5781 2.47242 43.5781 4.73438C43.5781 6.99574 45.4183 8.83594 47.6797 8.83594ZM47.6797 2.97656C48.6489 2.97656 49.4375 3.76512 49.4375 4.73438C49.4375 5.70375 48.6489 6.49219 47.6797 6.49219C46.7104 6.49219 45.9219 5.70363 45.9219 4.73438C45.9219 3.765 46.7104 2.97656 47.6797 2.97656Z" fill="#FF3B00"/>
<path d="M23.6562 2.97656C24.3035 2.97656 24.8281 2.4519 24.8281 1.80469C24.8281 1.15748 24.3035 0.632812 23.6562 0.632812C23.009 0.632812 22.4844 1.15748 22.4844 1.80469C22.4844 2.4519 23.009 2.97656 23.6562 2.97656Z" fill="#FF3B00"/>
<path d="M40.0625 4.14844C40.7097 4.14844 41.2344 3.62377 41.2344 2.97656C41.2344 2.32935 40.7097 1.80469 40.0625 1.80469C39.4153 1.80469 38.8906 2.32935 38.8906 2.97656C38.8906 3.62377 39.4153 4.14844 40.0625 4.14844Z" fill="#FF3B00"/>
<path d="M9.59375 11.1797C10.241 11.1797 10.7656 10.655 10.7656 10.0078C10.7656 9.3606 10.241 8.83594 9.59375 8.83594C8.94654 8.83594 8.42188 9.3606 8.42188 10.0078C8.42188 10.655 8.94654 11.1797 9.59375 11.1797Z" fill="#FF3B00"/>
<path d="M8.42188 40.4766C9.06908 40.4766 9.59375 39.9519 9.59375 39.3047C9.59375 38.6575 9.06908 38.1328 8.42188 38.1328C7.77467 38.1328 7.25 38.6575 7.25 39.3047C7.25 39.9519 7.77467 40.4766 8.42188 40.4766Z" fill="#FF3B00"/>
<path d="M18.9688 46.3359C19.616 46.3359 20.1406 45.8113 20.1406 45.1641C20.1406 44.5169 19.616 43.9922 18.9688 43.9922C18.3215 43.9922 17.7969 44.5169 17.7969 45.1641C17.7969 45.8113 18.3215 46.3359 18.9688 46.3359Z" fill="#FF3B00"/>
<path d="M50.6094 40.4766C51.2566 40.4766 51.7812 39.9519 51.7812 39.3047C51.7812 38.6575 51.2566 38.1328 50.6094 38.1328C49.9622 38.1328 49.4375 38.6575 49.4375 39.3047C49.4375 39.9519 49.9622 40.4766 50.6094 40.4766Z" fill="#FF3B00"/>
</svg>
