<svg width="58" height="54" viewBox="0 0 58 54" fill="none" xmlns="http://www.w3.org/2000/svg">
<path d="M6.73438 4.73438H9.07812V7.07812H6.73438V4.73438Z" fill="white"/>
<path d="M10.25 4.73438H12.5938V7.07812H10.25V4.73438Z" fill="white"/>
<path d="M13.7656 4.73438H16.1094V7.07812H13.7656V4.73438Z" fill="white"/>
<path d="M11.4219 23.4844H25.4845V25.8281H11.4219V23.4844Z" fill="white"/>
<path d="M11.4219 27H34.8595V29.3438H11.4219V27Z" fill="white"/>
<path d="M11.4219 30.5156H34.8595V32.8594H11.4219V30.5156Z" fill="white"/>
<path d="M47.7504 48.0939H33.5395C33.1145 46.4489 31.8167 45.1516 30.1723 44.7266V41.0626H47.7505C48.2712 41.0626 48.7295 40.7186 48.8755 40.2186C54.6793 20.3196 51.2639 32.031 57.0786 12.0935C57.2978 11.344 56.7337 10.5938 55.9536 10.5938H48.9224V5.90625C48.9224 5.25914 48.3975 4.73438 47.7505 4.73438H24.6675L17.9314 0.24375C17.7391 0.114961 17.5126 0.046875 17.2814 0.046875H3.2189C2.57179 0.046875 2.04702 0.571641 2.04702 1.21875C2.04702 41.3391 2.04644 39.8937 2.04761 39.9308C2.05675 40.1959 2.15401 40.4408 2.31315 40.6341C2.31374 40.6346 2.31374 40.6346 2.31374 40.6346V40.6354C2.54835 40.9204 2.89851 41.0702 3.23495 41.0626H27.8284V44.7266C26.1839 45.1516 24.8862 46.4489 24.461 48.0939H10.2501C9.60304 48.0939 9.07827 48.6188 9.07827 49.2659C9.07827 49.913 9.60304 50.4377 10.2501 50.4377H24.461C24.9828 52.457 26.8202 53.9534 29.0003 53.9534C31.1804 53.9534 33.0176 52.457 33.5394 50.4377H47.7504C48.3974 50.4377 48.9223 49.913 48.9223 49.2659C48.9223 48.6188 48.3976 48.0939 47.7504 48.0939ZM4.39077 2.39062H16.9267L23.6627 6.88137C23.855 7.00957 24.0816 7.07824 24.3128 7.07824H46.5785V10.5939H11.4484C10.9266 10.5813 10.4458 10.9229 10.2971 11.4379L4.39077 31.6876V2.39062ZM12.3009 12.9375H54.3908L53.3654 16.4531H19.6253C18.9782 16.4531 18.4534 16.9779 18.4534 17.625C18.4534 18.2721 18.9782 18.7969 19.6253 18.7969H52.6822L46.8715 38.7189H4.78101L12.3009 12.9375ZM29.0003 51.6096C27.7083 51.6096 26.6565 50.5579 26.6565 49.2659C26.6565 47.9733 27.7083 46.922 29.0003 46.922C30.2927 46.922 31.344 47.9733 31.344 49.2659C31.344 50.5579 30.2927 51.6096 29.0003 51.6096Z" fill="white"/>
<path d="M53.6094 39.8906C51.6707 39.8906 50.0938 41.4676 50.0938 43.4062C50.0938 45.3449 51.6707 46.9219 53.6094 46.9219C55.548 46.9219 57.125 45.3449 57.125 43.4062C57.125 41.4676 55.548 39.8906 53.6094 39.8906ZM53.6094 44.5781C52.9633 44.5781 52.4375 44.0524 52.4375 43.4062C52.4375 42.7601 52.9633 42.2344 53.6094 42.2344C54.2554 42.2344 54.7812 42.7601 54.7812 43.4062C54.7812 44.0524 54.2554 44.5781 53.6094 44.5781Z" fill="white"/>
<path d="M53.0234 7.07812C54.6388 7.07812 55.9531 5.76375 55.9531 4.14844C55.9531 2.53312 54.6388 1.21875 53.0234 1.21875C51.4081 1.21875 50.0938 2.53312 50.0938 4.14844C50.0938 5.76375 51.4081 7.07812 53.0234 7.07812ZM53.0234 3.5625C53.3468 3.5625 53.6094 3.82512 53.6094 4.14844C53.6094 4.47176 53.3468 4.73438 53.0234 4.73438C52.7001 4.73438 52.4375 4.47176 52.4375 4.14844C52.4375 3.82512 52.7001 3.5625 53.0234 3.5625Z" fill="white"/>
<path d="M3.80469 43.4062C2.18937 43.4062 0.875 44.7206 0.875 46.3359C0.875 47.9514 2.18937 49.2657 3.80469 49.2657C5.42 49.2657 6.73437 47.9514 6.73437 46.3359C6.73437 44.7206 5.42 43.4062 3.80469 43.4062ZM3.80469 46.9219C3.48195 46.9219 3.21875 46.6587 3.21875 46.3359C3.21875 46.0126 3.48195 45.75 3.80469 45.75C4.12742 45.75 4.39062 46.0126 4.39062 46.3359C4.39062 46.6587 4.12742 46.9219 3.80469 46.9219Z" fill="white"/>
<path d="M41.8906 45.75C42.5378 45.75 43.0625 45.2253 43.0625 44.5781C43.0625 43.9309 42.5378 43.4062 41.8906 43.4062C41.2434 43.4062 40.7188 43.9309 40.7188 44.5781C40.7188 45.2253 41.2434 45.75 41.8906 45.75Z" fill="white"/>
<path d="M11.4219 44.5781C12.0691 44.5781 12.5938 44.0535 12.5938 43.4062C12.5938 42.759 12.0691 42.2344 11.4219 42.2344C10.7747 42.2344 10.25 42.759 10.25 43.4062C10.25 44.0535 10.7747 44.5781 11.4219 44.5781Z" fill="white"/>
<path d="M31.3438 2.39062C31.991 2.39062 32.5156 1.86596 32.5156 1.21875C32.5156 0.571541 31.991 0.046875 31.3438 0.046875C30.6965 0.046875 30.1719 0.571541 30.1719 1.21875C30.1719 1.86596 30.6965 2.39062 31.3438 2.39062Z" fill="white"/>
<path d="M16.1094 18.7969C16.7566 18.7969 17.2812 18.2722 17.2812 17.625C17.2812 16.9778 16.7566 16.4531 16.1094 16.4531C15.4622 16.4531 14.9375 16.9778 14.9375 17.625C14.9375 18.2722 15.4622 18.7969 16.1094 18.7969Z" fill="white"/>
<path d="M45.4062 3.5625C46.0535 3.5625 46.5781 3.03783 46.5781 2.39062C46.5781 1.74342 46.0535 1.21875 45.4062 1.21875C44.759 1.21875 44.2344 1.74342 44.2344 2.39062C44.2344 3.03783 44.759 3.5625 45.4062 3.5625Z" fill="white"/>
</svg>
