<svg width="56" height="52" viewBox="0 0 56 52" fill="none" xmlns="http://www.w3.org/2000/svg">
<path d="M50.1 16.8018C49.2875 12.5618 45.5739 9.44727 41.1839 9.44727C39.8485 9.44727 38.5369 9.73965 37.3387 10.2993C34.9799 8.02191 31.5273 7.53898 28.7098 8.83789C26.4861 5.16723 22.4522 2.85547 18.1124 2.85547C10.6989 2.85547 4.87328 9.38492 5.83738 16.8264C2.5832 18.2724 0.460938 21.4889 0.460938 25.1212C0.460938 30.1291 4.53508 34.2032 9.54297 34.2032H18.0391V47.328C18.0391 49.1371 19.5108 50.6096 21.3202 50.6096H35.8519C37.6612 50.6096 39.133 49.1374 39.133 47.328V34.2032H46.4573C51.4652 34.2032 55.5393 30.1291 55.5393 25.1212C55.5394 21.4951 53.3811 18.2375 50.1 16.8018ZM36.7893 47.328C36.7893 47.8453 36.3681 48.2659 35.852 48.2659H21.3203C20.803 48.2659 20.3829 47.8453 20.3829 47.328V22.2499C20.3829 21.7332 20.8029 21.3126 21.3203 21.3126H35.852C36.3681 21.3126 36.7893 21.7332 36.7893 22.2499V47.328ZM46.4574 31.8595H39.1332V22.2499C39.1332 20.4405 37.6613 18.9689 35.852 18.9689H21.3203C19.5109 18.9689 18.0392 20.4406 18.0392 22.2499V31.8595H9.54309C5.82719 31.8595 2.80481 28.8365 2.80481 25.1212C2.80481 22.1681 4.69422 19.5863 7.50719 18.6959C8.08281 18.5139 8.42617 17.9251 8.30031 17.3352C6.96016 11.0432 11.7828 5.19922 18.1125 5.19922C21.9709 5.19922 25.5324 7.45484 27.1854 10.9459C27.4933 11.5959 28.3106 11.8179 28.9056 11.4121C31.2002 9.84664 34.3723 10.2557 36.1772 12.4953C36.5458 12.9525 37.1946 13.0664 37.697 12.7619C38.7454 12.1268 39.9504 11.7909 41.1842 11.7909C44.6208 11.7909 47.4991 14.3635 47.879 17.775C47.9294 18.2241 48.2328 18.6052 48.6606 18.7529C51.3728 19.6916 53.1958 22.2504 53.1958 25.1212C53.1957 28.8365 50.1721 31.8595 46.4574 31.8595Z" fill="#FF3B00"/>
<path d="M18.0391 7.54297C14.1618 7.54297 11.0078 10.697 11.0078 14.5742C11.0078 15.2213 11.532 15.7461 12.1797 15.7461C12.8263 15.7461 13.3516 15.2213 13.3516 14.5742C13.3516 11.9895 15.4538 9.88672 18.0391 9.88672C18.6857 9.88672 19.2109 9.36195 19.2109 8.71484C19.2109 8.06773 18.6856 7.54297 18.0391 7.54297Z" fill="#FF3B00"/>
<path d="M47.9219 8.42188C50.1832 8.42188 52.0234 6.58168 52.0234 4.32031C52.0234 2.05836 50.1832 0.21875 47.9219 0.21875C45.6605 0.21875 43.8203 2.05836 43.8203 4.32031C43.8203 6.58168 45.6605 8.42188 47.9219 8.42188ZM47.9219 2.5625C48.8911 2.5625 49.6797 3.35105 49.6797 4.32031C49.6797 5.28957 48.8911 6.07812 47.9219 6.07812C46.9526 6.07812 46.1641 5.28957 46.1641 4.32031C46.1641 3.35094 46.9526 2.5625 47.9219 2.5625Z" fill="#FF3B00"/>
<path d="M37.9609 7.25C38.6077 7.25 39.1329 6.72523 39.1329 6.07812C39.1329 5.43102 38.6077 4.90625 37.9609 4.90625C37.3132 4.90625 36.7891 5.43102 36.7891 6.07812C36.7891 6.72523 37.3132 7.25 37.9609 7.25Z" fill="#FF3B00"/>
<path d="M50.8516 13.1094C50.8516 13.7565 51.3757 14.2812 52.0234 14.2812C52.6701 14.2812 53.1953 13.7565 53.1953 13.1094C53.1953 12.4623 52.6701 11.9375 52.0234 11.9375C51.3757 11.9375 50.8516 12.4623 50.8516 13.1094Z" fill="#FF3B00"/>
<path d="M48.5078 37.7188C48.5078 37.0718 47.9826 36.5469 47.3359 36.5469C46.6882 36.5469 46.1641 37.0718 46.1641 37.7188C46.1641 38.3657 46.6882 38.8906 47.3359 38.8906C47.9826 38.8906 48.5078 38.3657 48.5078 37.7188Z" fill="#FF3B00"/>
<path d="M13.3516 48.2656C12.7039 48.2656 12.1797 48.7905 12.1797 49.4375C12.1797 50.0846 12.7039 50.6094 13.3516 50.6094C13.9982 50.6094 14.5234 50.0846 14.5234 49.4375C14.5234 48.7904 13.9981 48.2656 13.3516 48.2656Z" fill="#FF3B00"/>
<path d="M5.14844 35.375C5.14844 34.728 4.6232 34.2031 3.97656 34.2031C3.32887 34.2031 2.80469 34.728 2.80469 35.375C2.80469 36.022 3.32887 36.5469 3.97656 36.5469C4.6232 36.5469 5.14844 36.022 5.14844 35.375Z" fill="#FF3B00"/>
<path d="M28.5859 2.5625C29.2327 2.5625 29.7578 2.03773 29.7578 1.39062C29.7578 0.743516 29.2327 0.21875 28.5859 0.21875C27.9382 0.21875 27.4141 0.743516 27.4141 1.39062C27.4141 2.03773 27.9382 2.5625 28.5859 2.5625Z" fill="#FF3B00"/>
<path d="M12.1797 16.625C11.5319 16.625 11.0078 17.1498 11.0078 17.7969C11.0078 18.444 11.532 18.9688 12.1797 18.9688C12.8263 18.9688 13.3516 18.444 13.3516 17.7969C13.3516 17.1498 12.8262 16.625 12.1797 16.625Z" fill="#FF3B00"/>
<path d="M2.80469 7.25C3.45133 7.25 3.97656 6.72523 3.97656 6.07812C3.97656 5.43102 3.45133 4.90625 2.80469 4.90625C2.15699 4.90625 1.63281 5.43102 1.63281 6.07812C1.63281 6.72523 2.15699 7.25 2.80469 7.25Z" fill="#FF3B00"/>
<path d="M29.7578 44.75H27.4141C26.7664 44.75 26.2422 45.2749 26.2422 45.9219C26.2422 46.5691 26.7664 47.0938 27.4141 47.0938H29.7578C30.4046 47.0938 30.9297 46.5691 30.9297 45.9219C30.9297 45.2749 30.4046 44.75 29.7578 44.75Z" fill="#FF3B00"/>
<path d="M27.4141 24.8281H29.7578C30.4046 24.8281 30.9297 24.3034 30.9297 23.6562C30.9297 23.0091 30.4046 22.4844 29.7578 22.4844H27.4141C26.7664 22.4844 26.2422 23.0091 26.2422 23.6562C26.2422 24.3034 26.7664 24.8281 27.4141 24.8281Z" fill="#FF3B00"/>
<path d="M23.8984 26H26.2422V28.3438H23.8984V26Z" fill="#FF3B00"/>
<path d="M27.4141 26H29.7578V28.3438H27.4141V26Z" fill="#FF3B00"/>
<path d="M30.9297 26H33.2734V28.3438H30.9297V26Z" fill="#FF3B00"/>
<path d="M23.8984 29.5156H26.2422V31.8594H23.8984V29.5156Z" fill="#FF3B00"/>
<path d="M27.4141 29.5156H29.7578V31.8594H27.4141V29.5156Z" fill="#FF3B00"/>
<path d="M30.9297 29.5156H33.2734V31.8594H30.9297V29.5156Z" fill="#FF3B00"/>
<path d="M27.4141 33.0312H29.7578V35.375H27.4141V33.0312Z" fill="#FF3B00"/>
<path d="M30.9297 33.0312H33.2734V35.375H30.9297V33.0312Z" fill="#FF3B00"/>
<path d="M23.8984 41.2344H26.2422V43.5781H23.8984V41.2344Z" fill="#FF3B00"/>
<path d="M27.4141 41.2344H29.7578V43.5781H27.4141V41.2344Z" fill="#FF3B00"/>
<path d="M30.9297 41.2344H33.2734V43.5781H30.9297V41.2344Z" fill="#FF3B00"/>
<path d="M7.49219 38.8906C5.55355 38.8906 3.97656 40.4676 3.97656 42.4062C3.97656 44.3449 5.55355 45.9219 7.49219 45.9219C9.43082 45.9219 11.0078 44.3449 11.0078 42.4062C11.0078 40.4676 9.43082 38.8906 7.49219 38.8906ZM7.49219 43.5781C6.84555 43.5781 6.32031 43.0524 6.32031 42.4062C6.32031 41.7601 6.84555 41.2344 7.49219 41.2344C8.13824 41.2344 8.66406 41.7601 8.66406 42.4062C8.66406 43.0524 8.13824 43.5781 7.49219 43.5781Z" fill="#FF3B00"/>
<path d="M47.9219 43.5781C45.6605 43.5781 43.8203 45.4179 43.8203 47.6797C43.8203 49.9412 45.6605 51.7814 47.9219 51.7814C50.1832 51.7814 52.0234 49.9412 52.0234 47.6797C52.0234 45.4179 50.1832 43.5781 47.9219 43.5781ZM47.9219 49.4376C46.9526 49.4376 46.1641 48.6491 46.1641 47.6797C46.1641 46.7104 46.9526 45.9219 47.9219 45.9219C48.8911 45.9219 49.6797 46.7104 49.6797 47.6797C49.6797 48.6491 48.8911 49.4376 47.9219 49.4376Z" fill="#FF3B00"/>
</svg>
