<svg width="56" height="56" viewBox="0 0 56 56" fill="none" xmlns="http://www.w3.org/2000/svg">
<path d="M28.5859 50.8516C29.2331 50.8516 29.7578 50.3269 29.7578 49.6797C29.7578 49.0325 29.2331 48.5078 28.5859 48.5078C27.9387 48.5078 27.4141 49.0325 27.4141 49.6797C27.4141 50.3269 27.9387 50.8516 28.5859 50.8516Z" fill="#FF3B00"/>
<path d="M40.3047 44.9922C40.9519 44.9922 41.4766 44.4675 41.4766 43.8203C41.4766 43.1731 40.9519 42.6484 40.3047 42.6484C39.6575 42.6484 39.1328 43.1731 39.1328 43.8203C39.1328 44.4675 39.6575 44.9922 40.3047 44.9922Z" fill="#FF3B00"/>
<path d="M48.5078 41.4766C49.155 41.4766 49.6797 40.9519 49.6797 40.3047C49.6797 39.6575 49.155 39.1328 48.5078 39.1328C47.8606 39.1328 47.3359 39.6575 47.3359 40.3047C47.3359 40.9519 47.8606 41.4766 48.5078 41.4766Z" fill="#FF3B00"/>
<path d="M18.0391 41.4766C18.6863 41.4766 19.2109 40.9519 19.2109 40.3047C19.2109 39.6575 18.6863 39.1328 18.0391 39.1328C17.3919 39.1328 16.8672 39.6575 16.8672 40.3047C16.8672 40.9519 17.3919 41.4766 18.0391 41.4766Z" fill="#FF3B00"/>
<path d="M14.5234 41.4766C15.1706 41.4766 15.6953 40.9519 15.6953 40.3047C15.6953 39.6575 15.1706 39.1328 14.5234 39.1328C13.8762 39.1328 13.3516 39.6575 13.3516 40.3047C13.3516 40.9519 13.8762 41.4766 14.5234 41.4766Z" fill="#FF3B00"/>
<path d="M7.49219 44.9922C8.1394 44.9922 8.66406 44.4675 8.66406 43.8203C8.66406 43.1731 8.1394 42.6484 7.49219 42.6484C6.84498 42.6484 6.32031 43.1731 6.32031 43.8203C6.32031 44.4675 6.84498 44.9922 7.49219 44.9922Z" fill="#FF3B00"/>
<path d="M28.5859 54.3672C29.2331 54.3672 29.7578 53.8425 29.7578 53.1953C29.7578 52.5481 29.2331 52.0234 28.5859 52.0234C27.9387 52.0234 27.4141 52.5481 27.4141 53.1953C27.4141 53.8425 27.9387 54.3672 28.5859 54.3672Z" fill="#FF3B00"/>
<path d="M50.1007 14.817C49.2876 10.5769 45.574 7.46301 41.1841 7.46301C39.8489 7.46301 38.537 7.75539 37.3393 8.31555C34.9784 6.0359 31.5251 5.5552 28.7097 6.85352C26.4861 3.18273 22.4521 0.871094 18.1124 0.871094C10.6995 0.871094 4.87387 7.40055 5.83738 14.8421C2.58379 16.288 0.460938 19.5044 0.460938 23.1368C0.460938 28.1443 4.53508 32.2189 9.54297 32.2189H23.8986V39.1329H21.5548C20.9077 39.1329 20.3829 39.6578 20.3829 40.3048C20.3829 40.9518 20.9077 41.4767 21.5548 41.4767H23.8986V42.6486H11.0079C10.3608 42.6486 9.83605 43.1734 9.83605 43.8204C9.83605 44.4674 10.3608 44.9923 11.0079 44.9923H23.8987V47.3361C23.8987 47.9833 24.4234 48.5079 25.0705 48.5079C25.7177 48.5079 26.2424 47.9833 26.2424 47.3361V44.9923H27.4143V46.1642C27.4143 46.8112 27.9391 47.3361 28.5862 47.3361C29.2333 47.3361 29.758 46.8112 29.758 46.1642V44.9923H36.7893C37.4364 44.9923 37.9612 44.4674 37.9612 43.8204C37.9612 43.1734 37.4364 42.6486 36.7893 42.6486H29.758V41.4767H44.9927C45.6398 41.4767 46.1645 40.9518 46.1645 40.3048C46.1645 39.6578 45.6398 39.1329 44.9927 39.1329H29.7582V32.219H46.4575C51.4654 32.219 55.5395 28.1443 55.5395 23.137C55.5395 19.5108 53.3818 16.2532 50.1007 14.817ZM27.4144 42.6486H26.2425V41.4767H27.4144V42.6486ZM27.4144 39.1329H26.2425V32.219H27.4144V39.1329ZM22.7269 23.8986V20.3211L26.1808 16.8672H29.7582V23.8984L22.7269 23.8986ZM27.4144 26.2423V29.8752H26.2425V26.2423H27.4144ZM46.4575 29.8752H29.7582V26.2423H30.93C31.5771 26.2423 32.1019 25.7175 32.1019 25.0704V15.6954C32.1019 15.0483 31.5771 14.5236 30.93 14.5236H25.6955C25.3843 14.5236 25.0867 14.6466 24.867 14.8663L20.7265 19.0068C20.5068 19.2265 20.3832 19.5246 20.3832 19.8353V25.0704C20.3832 25.7175 20.9079 26.2423 21.555 26.2423H23.8988V29.8752H9.5432C5.8273 29.8752 2.80492 26.8523 2.80492 23.137C2.80492 20.1843 4.69492 17.602 7.50789 16.7121C8.08293 16.5296 8.42629 15.9408 8.30043 15.3503C6.96027 9.05887 11.7834 3.21496 18.1127 3.21496C21.9716 3.21496 25.5331 5.47059 27.1855 8.96113C27.494 9.61117 28.3107 9.83371 28.9057 9.42801C31.2003 7.8625 34.3721 8.2716 36.1773 10.5112C36.5459 10.9683 37.1953 11.0816 37.6971 10.7778C38.7455 10.142 39.9509 9.80676 41.1843 9.80676C44.6215 9.80676 47.4998 12.3794 47.8797 15.7908C47.9295 16.2406 48.2335 16.6205 48.6607 16.7688C51.3734 17.7072 53.1959 20.2667 53.1959 23.1368C53.1958 26.8523 50.1728 29.8752 46.4575 29.8752Z" fill="#FF3B00"/>
<path d="M33.2734 15.6953H35.6172V18.0391H33.2734V15.6953Z" fill="#FF3B00"/>
<path d="M33.2734 19.2109H35.6172V21.5547H33.2734V19.2109Z" fill="#FF3B00"/>
<path d="M33.2734 22.7266H35.6172V25.0703H33.2734V22.7266Z" fill="#FF3B00"/>
<path d="M16.8672 15.6953H19.2109V18.0391H16.8672V15.6953Z" fill="#FF3B00"/>
<path d="M16.8672 19.2109H19.2109V21.5547H16.8672V19.2109Z" fill="#FF3B00"/>
<path d="M16.8672 22.7266H19.2109V25.0703H16.8672V22.7266Z" fill="#FF3B00"/>
<path d="M48.5078 7.49219C50.4464 7.49219 52.0234 5.91461 52.0234 3.97656C52.0234 2.03793 50.4464 0.460938 48.5078 0.460938C46.5692 0.460938 44.9922 2.03793 44.9922 3.97656C44.9922 5.91461 46.5692 7.49219 48.5078 7.49219ZM48.5078 2.80469C49.1539 2.80469 49.6797 3.33051 49.6797 3.97656C49.6797 4.62262 49.1539 5.14844 48.5078 5.14844C47.8618 5.14844 47.3359 4.62262 47.3359 3.97656C47.3359 3.33051 47.8618 2.80469 48.5078 2.80469Z" fill="#FF3B00"/>
<path d="M47.9219 44.9922C45.6605 44.9922 43.8203 46.8318 43.8203 49.0938C43.8203 51.3552 45.6605 53.1954 47.9219 53.1954C50.1832 53.1954 52.0234 51.3552 52.0234 49.0938C52.0234 46.8318 50.1832 44.9922 47.9219 44.9922ZM47.9219 50.8517C46.9526 50.8517 46.1641 50.0631 46.1641 49.0938C46.1641 48.1245 46.9526 47.3359 47.9219 47.3359C48.8911 47.3359 49.6797 48.1245 49.6797 49.0938C49.6797 50.0631 48.8911 50.8517 47.9219 50.8517Z" fill="#FF3B00"/>
<path d="M5.73438 47.3359C3.47301 47.3359 1.63281 49.1757 1.63281 51.4376C1.63281 53.699 3.47301 55.5392 5.73438 55.5392C7.99574 55.5392 9.83594 53.699 9.83594 51.4376C9.83594 49.1757 7.99574 47.3359 5.73438 47.3359ZM5.73438 53.1954C4.76512 53.1954 3.97656 52.4069 3.97656 51.4376C3.97656 50.4684 4.76512 49.6797 5.73438 49.6797C6.70363 49.6797 7.49219 50.4682 7.49219 51.4376C7.49219 52.407 6.70375 53.1954 5.73438 53.1954Z" fill="#FF3B00"/>
</svg>
