<svg width="50" height="56" viewBox="0 0 50 56" fill="none" xmlns="http://www.w3.org/2000/svg">
<path d="M5.07812 49.6797H7.42188V52.0236H5.07812V49.6797Z" fill="#FF3B00"/>
<path d="M8.59375 46.1641H10.9375V48.5078H8.59375V46.1641Z" fill="#FF3B00"/>
<path d="M12.1094 46.1641H14.4531V48.5078H12.1094V46.1641Z" fill="#FF3B00"/>
<path d="M15.625 46.1641H17.9688V48.5078H15.625V46.1641Z" fill="#FF3B00"/>
<path d="M9.76562 49.6797H12.1094V52.0236H9.76562V49.6797Z" fill="#FF3B00"/>
<path d="M22.6562 46.1641H25V48.5078H22.6562V46.1641Z" fill="#FF3B00"/>
<path d="M19.1406 49.6797H21.4844V52.0236H19.1406V49.6797Z" fill="#FF3B00"/>
<path d="M22.6562 49.6797H25V52.0236H22.6562V49.6797Z" fill="#FF3B00"/>
<path d="M26.1719 46.1641H28.5156V48.5078H26.1719V46.1641Z" fill="#FF3B00"/>
<path d="M26.1719 49.6797H28.5156V52.0236H26.1719V49.6797Z" fill="#FF3B00"/>
<path d="M29.6875 46.1641H32.0312V48.5078H29.6875V46.1641Z" fill="#FF3B00"/>
<path d="M33.2031 46.1641H35.547V48.5078H33.2031V46.1641Z" fill="#FF3B00"/>
<path d="M29.6875 49.6797H32.0312V52.0236H29.6875V49.6797Z" fill="#FF3B00"/>
<path d="M37.8906 47.3359C37.8906 47.9832 38.4154 48.5078 39.0625 48.5078H44.9219C45.569 48.5078 46.0938 47.9832 46.0938 47.3359C46.0938 46.6889 45.569 46.1641 44.9219 46.1641H39.0625C38.4154 46.1641 37.8906 46.6889 37.8906 47.3359Z" fill="#FF3B00"/>
<path d="M44.9219 49.6797H39.0625C38.4154 49.6797 37.8906 50.2046 37.8906 50.8517C37.8906 51.4988 38.4154 52.0236 39.0625 52.0236H44.9219C45.569 52.0236 46.0938 51.4988 46.0938 50.8517C46.0938 50.2046 45.569 49.6797 44.9219 49.6797Z" fill="#FF3B00"/>
<path d="M5.07812 35.6172H7.42188V37.9609H5.07812V35.6172Z" fill="#FF3B00"/>
<path d="M8.59375 32.1016H10.9375V34.4453H8.59375V32.1016Z" fill="#FF3B00"/>
<path d="M12.1094 32.1016H14.4531V34.4453H12.1094V32.1016Z" fill="#FF3B00"/>
<path d="M15.625 32.1016H17.9688V34.4453H15.625V32.1016Z" fill="#FF3B00"/>
<path d="M15.625 35.6172H17.9688V37.9609H15.625V35.6172Z" fill="#FF3B00"/>
<path d="M19.1406 32.1016H21.4844V34.4453H19.1406V32.1016Z" fill="#FF3B00"/>
<path d="M19.1406 35.6172H21.4844V37.9609H19.1406V35.6172Z" fill="#FF3B00"/>
<path d="M22.6562 35.6172H25V37.9609H22.6562V35.6172Z" fill="#FF3B00"/>
<path d="M26.1719 32.1016H28.5156V34.4453H26.1719V32.1016Z" fill="#FF3B00"/>
<path d="M26.1719 35.6172H28.5156V37.9609H26.1719V35.6172Z" fill="#FF3B00"/>
<path d="M29.6875 32.1016H32.0312V34.4453H29.6875V32.1016Z" fill="#FF3B00"/>
<path d="M33.2031 32.1016H35.547V34.4453H33.2031V32.1016Z" fill="#FF3B00"/>
<path d="M33.2031 35.6172H35.547V37.9609H33.2031V35.6172Z" fill="#FF3B00"/>
<path d="M37.8906 33.2734C37.8906 33.9204 38.4154 34.4453 39.0625 34.4453H44.9219C45.569 34.4453 46.0938 33.9204 46.0938 33.2734C46.0938 32.6264 45.569 32.1016 44.9219 32.1016H39.0625C38.4154 32.1016 37.8906 32.6264 37.8906 33.2734Z" fill="#FF3B00"/>
<path d="M44.9219 35.6172H39.0625C38.4154 35.6172 37.8906 36.1421 37.8906 36.7891C37.8906 37.4361 38.4154 37.9609 39.0625 37.9609H44.9219C45.569 37.9609 46.0938 37.4361 46.0938 36.7891C46.0938 36.1421 45.569 35.6172 44.9219 35.6172Z" fill="#FF3B00"/>
<path d="M33.2031 18.0391H35.547V20.3828H33.2031V18.0391Z" fill="#FF3B00"/>
<path d="M29.6875 21.5547H32.0312V23.8984H29.6875V21.5547Z" fill="#FF3B00"/>
<path d="M26.1719 21.5547H28.5156V23.8984H26.1719V21.5547Z" fill="#FF3B00"/>
<path d="M22.6562 21.5547H25V23.8984H22.6562V21.5547Z" fill="#FF3B00"/>
<path d="M22.6562 18.0391H25V20.3828H22.6562V18.0391Z" fill="#FF3B00"/>
<path d="M19.1406 21.5547H21.4844V23.8984H19.1406V21.5547Z" fill="#FF3B00"/>
<path d="M19.1406 18.0391H21.4844V20.3828H19.1406V18.0391Z" fill="#FF3B00"/>
<path d="M15.625 18.0391H17.9688V20.3828H15.625V18.0391Z" fill="#FF3B00"/>
<path d="M12.1094 21.5547H14.4531V23.8984H12.1094V21.5547Z" fill="#FF3B00"/>
<path d="M12.1094 18.0391H14.4531V20.3828H12.1094V18.0391Z" fill="#FF3B00"/>
<path d="M8.59375 21.5547H10.9375V23.8984H8.59375V21.5547Z" fill="#FF3B00"/>
<path d="M5.07812 21.5547H7.42188V23.8984H5.07812V21.5547Z" fill="#FF3B00"/>
<path d="M5.07812 18.0391H7.42188V20.3828H5.07812V18.0391Z" fill="#FF3B00"/>
<path d="M37.8906 19.2109C37.8906 19.858 38.4154 20.3828 39.0625 20.3828H44.9219C45.569 20.3828 46.0938 19.858 46.0938 19.2109C46.0938 18.5638 45.569 18.0391 44.9219 18.0391H39.0625C38.4154 18.0391 37.8906 18.5638 37.8906 19.2109Z" fill="#FF3B00"/>
<path d="M44.9219 21.5547H39.0625C38.4154 21.5547 37.8906 22.0795 37.8906 22.7266C37.8906 23.3737 38.4154 23.8984 39.0625 23.8984H44.9219C45.569 23.8984 46.0938 23.3737 46.0938 22.7266C46.0938 22.0795 45.569 21.5547 44.9219 21.5547Z" fill="#FF3B00"/>
<path d="M48.4377 13.3516C49.0848 13.3516 49.6096 12.8268 49.6096 12.1797V1.63281C49.6096 0.985703 49.0848 0.460938 48.4377 0.460938H1.5625C0.915391 0.460938 0.390625 0.985703 0.390625 1.63281V12.1797C0.390625 12.8268 0.915391 13.3516 1.5625 13.3516H6.25V14.5234H1.5625C0.915391 14.5234 0.390625 15.0482 0.390625 15.6953V26.2422C0.390625 26.8893 0.915391 27.4141 1.5625 27.4141H6.25V28.5859H1.5625C0.915391 28.5859 0.390625 29.1107 0.390625 29.7578V40.3047C0.390625 40.9518 0.915391 41.4766 1.5625 41.4766H6.25V42.6484H1.5625C0.915391 42.6484 0.390625 43.1732 0.390625 43.8203V54.3673C0.390625 55.0144 0.915391 55.5392 1.5625 55.5392H48.4377C49.0848 55.5392 49.6096 55.0144 49.6096 54.3673V43.8204C49.6096 43.1734 49.0848 42.6486 48.4377 42.6486H43.7502V41.4767H48.4377C49.0848 41.4767 49.6096 40.9518 49.6096 40.3048V29.7579C49.6096 29.1109 49.0848 28.5861 48.4377 28.5861H43.7502V27.4142H48.4377C49.0848 27.4142 49.6096 26.8894 49.6096 26.2423V15.6954C49.6096 15.0483 49.0848 14.5236 48.4377 14.5236H43.7502V13.3517L48.4377 13.3516ZM2.73438 2.80469H47.2659V11.0078H2.73438V2.80469ZM47.2659 53.1956H2.73438V44.9923H47.2659V53.1956ZM41.4065 42.6486H8.59375V41.4767H41.4065V42.6486ZM47.2659 39.1329H2.73438V30.9298H47.2659V39.1329ZM41.4065 28.5861H8.59375V27.4142H41.4065V28.5861ZM47.2659 25.0704H2.73438V16.8673H47.2659V25.0704ZM41.4065 14.5234H8.59375V13.3516H41.4065V14.5234Z" fill="#FF3B00"/>
<path d="M5.07812 7.49219H7.42188V9.83594H5.07812V7.49219Z" fill="#FF3B00"/>
<path d="M8.59375 3.97656H10.9375V6.32031H8.59375V3.97656Z" fill="#FF3B00"/>
<path d="M12.1094 3.97656H14.4531V6.32031H12.1094V3.97656Z" fill="#FF3B00"/>
<path d="M15.625 3.97656H17.9688V6.32031H15.625V3.97656Z" fill="#FF3B00"/>
<path d="M15.625 7.49219H17.9688V9.83594H15.625V7.49219Z" fill="#FF3B00"/>
<path d="M19.1406 3.97656H21.4844V6.32031H19.1406V3.97656Z" fill="#FF3B00"/>
<path d="M19.1406 7.49219H21.4844V9.83594H19.1406V7.49219Z" fill="#FF3B00"/>
<path d="M22.6562 7.49219H25V9.83594H22.6562V7.49219Z" fill="#FF3B00"/>
<path d="M26.1719 3.97656H28.5156V6.32031H26.1719V3.97656Z" fill="#FF3B00"/>
<path d="M26.1719 7.49219H28.5156V9.83594H26.1719V7.49219Z" fill="#FF3B00"/>
<path d="M29.6875 3.97656H32.0312V6.32031H29.6875V3.97656Z" fill="#FF3B00"/>
<path d="M33.2031 3.97656H35.547V6.32031H33.2031V3.97656Z" fill="#FF3B00"/>
<path d="M33.2031 7.49219H35.547V9.83594H33.2031V7.49219Z" fill="#FF3B00"/>
<path d="M39.0625 6.32031H44.9219C45.569 6.32031 46.0938 5.79555 46.0938 5.14844C46.0938 4.50133 45.569 3.97656 44.9219 3.97656H39.0625C38.4154 3.97656 37.8906 4.50133 37.8906 5.14844C37.8906 5.79555 38.4154 6.32031 39.0625 6.32031Z" fill="#FF3B00"/>
<path d="M39.0625 9.83594H44.9219C45.569 9.83594 46.0938 9.31117 46.0938 8.66406C46.0938 8.01695 45.569 7.49219 44.9219 7.49219H39.0625C38.4154 7.49219 37.8906 8.01695 37.8906 8.66406C37.8906 9.31117 38.4154 9.83594 39.0625 9.83594Z" fill="#FF3B00"/>
</svg>
