<svg width="38" height="36" viewBox="0 0 38 36" fill="none" xmlns="http://www.w3.org/2000/svg">
<path d="M5.32812 3.15625C5.7596 3.15625 6.10938 2.80647 6.10938 2.375C6.10938 1.94353 5.7596 1.59375 5.32812 1.59375C4.89665 1.59375 4.54688 1.94353 4.54688 2.375C4.54688 2.80647 4.89665 3.15625 5.32812 3.15625Z" fill="#FF3B00"/>
<path d="M11.5781 2.375C12.0096 2.375 12.3594 2.02522 12.3594 1.59375C12.3594 1.16228 12.0096 0.8125 11.5781 0.8125C11.1467 0.8125 10.7969 1.16228 10.7969 1.59375C10.7969 2.02522 11.1467 2.375 11.5781 2.375Z" fill="#FF3B00"/>
<path d="M32.6719 8.625C32.6719 9.05641 33.0213 9.40625 33.4531 9.40625C33.8842 9.40625 34.2344 9.05641 34.2344 8.625C34.2344 8.19359 33.8842 7.84375 33.4531 7.84375C33.0213 7.84375 32.6719 8.19359 32.6719 8.625Z" fill="#FF3B00"/>
<path d="M1.31973 33.6178C1.40598 33.6292 0.0318422 33.6251 31.1098 33.6251C31.4569 33.6251 31.7622 33.3958 31.8598 33.0624C32.11 32.2037 37.1501 14.9242 37.3286 14.3123C37.4743 13.8126 37.0981 13.3125 36.5786 13.3125H31.8911V10.1875C31.8911 9.75609 31.5409 9.40625 31.1098 9.40625H28.7661V0.8125C28.7661 0.381094 28.4159 0.03125 27.9848 0.03125H23.2972C22.8654 0.03125 22.516 0.381094 22.516 0.8125V9.40625H15.721L11.2304 6.4125C11.1022 6.32664 10.9511 6.28125 10.797 6.28125H1.422C0.990594 6.28125 0.64075 6.63109 0.64075 7.0625C0.64075 11.9461 0.639969 32.8214 0.642313 32.8767C0.65825 33.2501 0.935984 33.5652 1.31973 33.6178ZM30.5239 32.0625H2.46341L7.47669 14.875H22.516V17.2187H11.5782C11.1468 17.2187 10.797 17.5686 10.797 18C10.797 18.4315 11.1468 18.7812 11.5782 18.7812H22.516V21.6716H20.9535C20.6285 21.6716 20.3378 21.8727 20.2227 22.1767C20.1074 22.4805 20.1929 22.8237 20.4362 23.0384L25.1237 27.1793C25.419 27.4402 25.8622 27.4402 26.1583 27.1793L30.8458 23.0384C31.0892 22.8237 31.1739 22.4802 31.0587 22.1767C30.9443 21.8727 30.6529 21.6716 30.3286 21.6716H28.7661V18.7812H34.3973L30.5239 32.0625ZM28.264 23.2341L25.641 25.5511L23.018 23.2341H28.264ZM27.2036 21.6716H24.0785V8.62492H27.2036V21.6716ZM27.2036 7.06242H24.0785V6.28117H27.2036V7.06242ZM34.8528 17.2187H28.7661V14.875H35.5364L34.8528 17.2187ZM30.3286 10.9687V13.3124H28.7661V10.9687H30.3286ZM27.2036 1.59367V4.71867H24.0785V1.59367H27.2036ZM10.5605 7.84367L15.0511 10.8374C15.1793 10.9229 15.3304 10.9687 15.4845 10.9687H22.516V13.3124C5.82106 13.3128 6.87552 13.3105 6.8145 13.3166C6.50091 13.3479 6.23083 13.5646 6.14075 13.8751L2.20325 27.375V7.84367H10.5605Z" fill="#FF3B00"/>
<path d="M3.76562 9.40625H5.32813V10.9688H3.76562V9.40625Z" fill="#FF3B00"/>
<path d="M6.10938 9.40625H7.67188V10.9688H6.10938V9.40625Z" fill="#FF3B00"/>
<path d="M8.45312 9.40625H10.0156V10.9688H8.45312V9.40625Z" fill="#FF3B00"/>
<path d="M7.67188 21.125H17.0469V22.6875H7.67188V21.125Z" fill="#FF3B00"/>
<path d="M7.67188 23.4688H17.0469V25.0312H7.67188V23.4688Z" fill="#FF3B00"/>
<path d="M7.67188 25.8125H11.5781V27.375H7.67188V25.8125Z" fill="#FF3B00"/>
<path d="M17.0469 7.0625C18.3393 7.0625 19.3906 6.01078 19.3906 4.71875C19.3906 3.42633 18.3393 2.375 17.0469 2.375C15.7545 2.375 14.7031 3.42641 14.7031 4.71875C14.703 6.01078 15.7544 7.0625 17.0469 7.0625ZM17.0469 3.9375C17.4776 3.9375 17.8281 4.28805 17.8281 4.71875C17.8281 5.14945 17.4776 5.5 17.0469 5.5C16.6158 5.5 16.2656 5.14945 16.2656 4.71875C16.2656 4.28805 16.6158 3.9375 17.0469 3.9375Z" fill="#FF3B00"/>
<path d="M33.8438 6.28125C35.3513 6.28125 36.5781 5.05445 36.5781 3.54688C36.5781 2.03891 35.3513 0.8125 33.8438 0.8125C32.3362 0.8125 31.1094 2.03891 31.1094 3.54688C31.1094 5.05445 32.3362 6.28125 33.8438 6.28125ZM33.8438 2.375C34.4899 2.375 35.0156 2.9007 35.0156 3.54688C35.0156 4.19305 34.4899 4.71875 33.8438 4.71875C33.1976 4.71875 32.6719 4.19305 32.6719 3.54688C32.6719 2.90062 33.1976 2.375 33.8438 2.375Z" fill="#FF3B00"/>
<path d="M36.5784 34.4062H1.42188C0.990469 34.4062 0.640625 34.7562 0.640625 35.1875C0.640625 35.6189 0.990469 35.9688 1.42188 35.9688H36.5784C37.0095 35.9688 37.3597 35.6189 37.3597 35.1875C37.3597 34.7561 37.0095 34.4062 36.5784 34.4062Z" fill="#FF3B00"/>
</svg>
