<svg width="38" height="34" viewBox="0 0 38 34" fill="none" xmlns="http://www.w3.org/2000/svg">
<path d="M12.3594 28.7188C12.7908 28.7188 13.1406 28.369 13.1406 27.9375C13.1406 27.506 12.7908 27.1562 12.3594 27.1562C11.9279 27.1562 11.5781 27.506 11.5781 27.9375C11.5781 28.369 11.9279 28.7188 12.3594 28.7188Z" fill="#FF3B00"/>
<path d="M24.0781 30.2812C24.5096 30.2812 24.8594 29.9315 24.8594 29.5C24.8594 29.0685 24.5096 28.7188 24.0781 28.7188C23.6467 28.7188 23.2969 29.0685 23.2969 29.5C23.2969 29.9315 23.6467 30.2812 24.0781 30.2812Z" fill="#FF3B00"/>
<path d="M25.6406 3.71875C26.0721 3.71875 26.4219 3.36897 26.4219 2.9375C26.4219 2.50603 26.0721 2.15625 25.6406 2.15625C25.2092 2.15625 24.8594 2.50603 24.8594 2.9375C24.8594 3.36897 25.2092 3.71875 25.6406 3.71875Z" fill="#FF3B00"/>
<path d="M18.6094 5.28125C19.0408 5.28125 19.3906 4.93147 19.3906 4.5C19.3906 4.06853 19.0408 3.71875 18.6094 3.71875C18.1779 3.71875 17.8281 4.06853 17.8281 4.5C17.8281 4.93147 18.1779 5.28125 18.6094 5.28125Z" fill="#FF3B00"/>
<path d="M13.1406 2.15625C13.5721 2.15625 13.9219 1.80647 13.9219 1.375C13.9219 0.943528 13.5721 0.59375 13.1406 0.59375C12.7092 0.59375 12.3594 0.943528 12.3594 1.375C12.3594 1.80647 12.7092 2.15625 13.1406 2.15625Z" fill="#FF3B00"/>
<path d="M2.20313 9.96875C2.6346 9.96875 2.98438 9.61897 2.98438 9.1875C2.98438 8.75603 2.6346 8.40625 2.20313 8.40625C1.77165 8.40625 1.42188 8.75603 1.42188 9.1875C1.42188 9.61897 1.77165 9.96875 2.20313 9.96875Z" fill="#FF3B00"/>
<path d="M31.305 26.3751C34.6436 26.3751 37.3597 23.659 37.3597 20.3204C37.3597 17.9031 35.9212 15.7312 33.7338 14.7741C33.1918 11.9474 30.716 9.87109 27.7894 9.87109C26.8993 9.87109 26.0247 10.066 25.2262 10.4391C23.6523 8.92016 21.3501 8.59969 19.4731 9.46484C17.9907 7.01773 15.3014 5.47656 12.4083 5.47656C7.46633 5.47656 3.58258 9.82953 4.22492 14.7905C2.05586 15.7545 0.640625 17.8988 0.640625 20.3204C0.640625 23.659 3.35672 26.3751 6.69531 26.3751H14.7032V32.6252C14.7032 33.0566 15.053 33.4064 15.4845 33.4064H20.172C20.6033 33.4064 20.9532 33.0566 20.9532 32.6252V26.3751H31.305ZM6.69547 24.8126C4.2182 24.8126 2.20328 22.7973 2.20328 20.3204C2.20328 18.352 3.46328 16.6304 5.33859 16.0368C5.72195 15.9155 5.95086 15.523 5.86695 15.1297C4.97352 10.935 8.18898 7.03906 12.4084 7.03906C14.9811 7.03906 17.3554 8.54281 18.457 10.8702C18.6623 11.3035 19.2071 11.4515 19.6038 11.181C21.1335 10.1373 23.248 10.4101 24.4516 11.9031C24.6973 12.2076 25.1302 12.2839 25.4648 12.0809C26.1637 11.6574 26.9673 11.4335 27.7895 11.4335C30.081 11.4335 31.9998 13.1487 32.2531 15.423C32.2863 15.7224 32.489 15.9765 32.7738 16.0749C34.5823 16.7006 35.7973 18.407 35.7973 20.3204C35.7973 22.7973 33.782 24.8126 31.3051 24.8126H20.9534V22.4688H23.2971C23.6241 22.4688 23.9163 22.2652 24.0299 21.9584C24.1432 21.6521 24.0541 21.3073 23.8056 21.0944L18.3369 16.4069C18.0443 16.1559 17.6125 16.1559 17.3198 16.4069L11.8511 21.0944C11.6027 21.3073 11.5135 21.6521 11.6268 21.9584C11.7401 22.2652 12.0327 22.4688 12.3596 22.4688H14.7034V24.8126H6.69547ZM14.4714 20.9063L17.8284 18.0289L21.1853 20.9063C19.728 20.9063 15.9909 20.9063 14.4714 20.9063ZM19.3909 31.8439H16.2659V22.4688H19.3909V31.8439Z" fill="#FF3B00"/>
<path d="M13.1406 9.38281C13.1406 8.95141 12.7908 8.60156 12.3594 8.60156C9.77453 8.60156 7.67188 10.7042 7.67188 13.2891C7.67188 13.7205 8.02172 14.0703 8.45312 14.0703C8.88453 14.0703 9.23437 13.7205 9.23437 13.2891C9.23437 11.5659 10.6362 10.1641 12.3594 10.1641C12.7908 10.1641 13.1406 9.81422 13.1406 9.38281Z" fill="#FF3B00"/>
<path d="M6.89062 28.7188C5.5982 28.7188 4.54688 29.7701 4.54688 31.0625C4.54688 32.355 5.5982 33.4063 6.89062 33.4063C8.18305 33.4063 9.23438 32.355 9.23438 31.0625C9.23445 29.7701 8.18305 28.7188 6.89062 28.7188ZM6.89062 31.8438C6.45953 31.8438 6.10938 31.4933 6.10938 31.0625C6.10938 30.6319 6.45953 30.2812 6.89062 30.2812C7.32172 30.2812 7.67188 30.6319 7.67188 31.0625C7.67188 31.4933 7.32172 31.8438 6.89062 31.8438Z" fill="#FF3B00"/>
<path d="M33.4531 27.9375C32.1607 27.9375 31.1094 28.9888 31.1094 30.2812C31.1094 31.5737 32.1607 32.6251 33.4531 32.6251C34.7455 32.6251 35.7969 31.5737 35.7969 30.2812C35.7969 28.9888 34.7455 27.9375 33.4531 27.9375ZM33.4531 31.0625C33.0224 31.0625 32.6719 30.712 32.6719 30.2812C32.6719 29.8506 33.0224 29.5 33.4531 29.5C33.8838 29.5 34.2344 29.8506 34.2344 30.2812C34.2344 30.712 33.8838 31.0625 33.4531 31.0625Z" fill="#FF3B00"/>
<path d="M31.8906 7.625C33.6137 7.625 35.0156 6.22312 35.0156 4.5C35.0156 2.77688 33.6137 1.375 31.8906 1.375C30.1675 1.375 28.7656 2.77695 28.7656 4.5C28.7656 6.22305 30.1675 7.625 31.8906 7.625ZM31.8906 2.9375C32.7523 2.9375 33.4531 3.63828 33.4531 4.5C33.4531 5.36172 32.7523 6.0625 31.8906 6.0625C31.0289 6.0625 30.3281 5.36172 30.3281 4.5C30.3281 3.63828 31.0289 2.9375 31.8906 2.9375Z" fill="#FF3B00"/>
<path d="M3.76563 5.28125C5.05805 5.28125 6.10938 4.22953 6.10938 2.9375C6.10938 1.64508 5.05805 0.59375 3.76563 0.59375C2.4732 0.59375 1.42188 1.64508 1.42188 2.9375C1.42188 4.22953 2.4732 5.28125 3.76563 5.28125ZM3.76563 2.15625C4.19672 2.15625 4.54688 2.50688 4.54688 2.9375C4.54688 3.36812 4.19672 3.71875 3.76563 3.71875C3.33453 3.71875 2.98438 3.3682 2.98438 2.9375C2.98438 2.5068 3.33453 2.15625 3.76563 2.15625Z" fill="#FF3B00"/>
</svg>
