<svg width="40" height="40" viewBox="0 0 40 40" fill="none" xmlns="http://www.w3.org/2000/svg">
<path d="M37.5782 19.2204C36.755 19.2204 29.4971 19.2204 28.2902 19.2204C28.9288 17.978 29.1285 16.6322 28.8838 15.2036C28.3001 11.8008 25.2925 8.96576 24.322 8.37138C24.0207 8.18677 23.6323 8.22755 23.376 8.4717C23.1198 8.71505 23.0594 9.10037 23.2279 9.41123C23.2889 9.52302 23.3424 9.6542 23.3844 9.79693C21.3724 6.01271 18.1651 5.12271 18.008 5.08115C17.4579 4.93584 16.9391 5.41076 17.0395 5.9738C17.3294 7.60193 16.4627 9.60537 14.4607 11.943C14.326 11.4547 14.1112 10.9672 13.7485 10.4126C13.5654 10.1326 13.2244 10.0002 12.9009 10.0829C12.5766 10.1661 12.3416 10.4461 12.3157 10.7795C12.1837 12.4747 10.4362 14.0716 9.92352 16.156C9.64539 17.2859 9.67102 18.2983 10.0025 19.2204C8.15727 19.2204 3.45266 19.2204 2.42188 19.2204C1.99008 19.2204 1.64062 19.5702 1.64062 20.0016V35.6267C1.64062 36.0581 1.99008 36.4079 2.42188 36.4079H37.5783C38.0094 36.4079 38.3595 36.0581 38.3595 35.6267C38.3595 34.2515 38.3595 22.0745 38.3595 20.0016C38.3595 19.5702 38.0093 19.2204 37.5782 19.2204ZM31.3282 30.9392V28.5954H36.797V30.9392C35.6838 30.9392 32.4436 30.9392 31.3282 30.9392ZM24.2969 30.9392V28.5954H29.7657V30.9392C28.6526 30.9392 25.4123 30.9392 24.2969 30.9392ZM17.2656 30.9392V28.5954H20.3906C20.8218 28.5954 21.1719 28.2455 21.1719 27.8142V24.6892H26.6406V27.0329H23.5156C23.0839 27.0329 22.7344 27.3829 22.7344 27.8142V30.9392C21.6213 30.9392 18.3806 30.9392 17.2656 30.9392ZM10.2344 30.9392V28.5954H15.7031V30.9392C14.5899 30.9392 11.3494 30.9392 10.2344 30.9392ZM3.20305 27.0329V24.6892H5.5468V27.0329H3.20305ZM7.1093 24.6892H12.578V27.0329C11.4627 27.0329 8.22203 27.0329 7.1093 27.0329V24.6892ZM10.2344 20.7829H15.7031V23.1267C14.5899 23.1267 11.3494 23.1267 10.2344 23.1267V20.7829ZM17.5075 18.3594C17.8051 18.5319 18.1804 18.4891 18.4322 18.2541C19.5636 17.1967 20.1572 15.7204 20.3426 14.4653C21.7076 15.7005 22.5658 17.4225 22.691 19.2204C20.5418 19.2204 19.1357 19.2204 15.968 19.2204C16.328 18.6237 16.6352 18.3907 17.12 17.622C17.0962 17.9184 17.2439 18.2072 17.5075 18.3594ZM17.2656 23.1267V20.7829H22.7344V23.1267C21.6213 23.1267 18.3806 23.1267 17.2656 23.1267ZM19.6094 27.0329C18.494 27.0329 15.2534 27.0329 14.1406 27.0329V24.6892H19.6094V27.0329ZM33.672 24.6892V27.0329C32.5566 27.0329 29.3155 27.0329 28.2032 27.0329V24.6892H33.672ZM36.797 24.6892V27.0329H35.2345V24.6892H36.797ZM36.797 23.1267C35.6838 23.1267 32.4436 23.1267 31.3282 23.1267V20.7829H36.797V23.1267ZM29.7657 23.1267C28.6526 23.1267 25.4123 23.1267 24.2969 23.1267V20.7829H29.7657V23.1267ZM11.4405 16.5295C11.7114 15.4282 12.4972 14.3856 13.1049 13.2461C13.1195 13.4003 13.1316 13.5639 13.1442 13.7409C13.1655 14.048 13.3655 14.3143 13.6546 14.4199C13.9441 14.5259 14.2688 14.4515 14.4831 14.2311C17.0718 11.5692 18.4634 9.15521 18.6366 7.03427C19.8337 7.68505 21.7677 9.18498 22.7695 12.3722C22.9297 12.8837 23.5491 13.0867 23.9818 12.764C24.5495 12.3405 24.8714 11.7302 24.992 11.0706C25.9578 12.1517 27.0475 13.742 27.3435 15.4679C27.5763 16.8205 27.2787 18.0817 26.4607 19.2204H24.2566C24.0963 16.3986 22.4651 13.7237 19.9451 12.2455C19.6727 12.0853 19.3294 12.1055 19.0776 12.2974C18.8251 12.4889 18.7137 12.8135 18.7953 13.1194C18.8968 13.5047 18.8579 14.485 18.4558 15.4846C18.2288 14.9635 17.9568 14.6606 17.9339 14.635C17.737 14.4202 17.4365 14.334 17.1549 14.4095C16.8734 14.4851 16.6567 14.7128 16.5941 14.9977C16.5911 15.0099 16.3119 16.2386 15.3109 17.4666L15.3105 17.467C14.9134 17.9541 14.4937 18.5294 14.2343 19.2202H11.7212C11.2628 18.4441 11.1777 17.598 11.4405 16.5295ZM3.20305 20.7829H8.6718V23.1267C7.55867 23.1267 4.31805 23.1267 3.20305 23.1267V20.7829ZM3.20305 32.5017H5.5468V34.8455H3.20305V32.5017ZM6.32805 30.9392H3.20305V28.5954H8.6718V31.7204C8.6718 32.1518 9.02125 32.5017 9.45305 32.5017H12.578V34.8455H7.1093V31.7204C7.1093 31.2891 6.75914 30.9392 6.32805 30.9392ZM14.1406 32.5017H19.6094V34.8455H14.1406V32.5017ZM21.1719 32.5017H26.6406V34.8455H21.1719V32.5017ZM28.2032 32.5017H33.672V34.8455H28.2032V32.5017ZM36.797 34.8455H35.2345V32.5017H36.797V34.8455Z" fill="#FF3B00"/>
<path d="M5.9375 12.9687C7.44508 12.9687 8.67188 11.742 8.67188 10.2344C8.67188 8.72641 7.44508 7.5 5.9375 7.5C4.42953 7.5 3.20312 8.72641 3.20312 10.2344C3.20312 11.742 4.42953 12.9687 5.9375 12.9687ZM5.9375 9.0625C6.58367 9.0625 7.10938 9.5882 7.10938 10.2344C7.10938 10.8805 6.58367 11.4062 5.9375 11.4062C5.29133 11.4062 4.76562 10.8805 4.76562 10.2344C4.76562 9.5882 5.29133 9.0625 5.9375 9.0625Z" fill="#FF3B00"/>
<path d="M33.6719 10.625C34.9643 10.625 36.0156 9.57328 36.0156 8.28125C36.0156 6.98883 34.9643 5.9375 33.6719 5.9375C32.3795 5.9375 31.3281 6.98883 31.3281 8.28125C31.3281 9.57328 32.3795 10.625 33.6719 10.625ZM33.6719 7.5C34.1022 7.5 34.4531 7.85055 34.4531 8.28125C34.4531 8.71195 34.1022 9.0625 33.6719 9.0625C33.2408 9.0625 32.8906 8.71195 32.8906 8.28125C32.8906 7.85055 33.2408 7.5 33.6719 7.5Z" fill="#FF3B00"/>
<path d="M25.8594 5.15625C26.2905 5.15625 26.6406 4.80641 26.6406 4.375C26.6406 3.94359 26.2905 3.59375 25.8594 3.59375C25.4276 3.59375 25.0781 3.94359 25.0781 4.375C25.0781 4.80641 25.4276 5.15625 25.8594 5.15625Z" fill="#FF3B00"/>
<path d="M33.6719 16.0938C33.6719 16.5252 34.0213 16.875 34.4531 16.875C34.8842 16.875 35.2344 16.5252 35.2344 16.0938C35.2344 15.6623 34.8842 15.3125 34.4531 15.3125C34.0213 15.3125 33.6719 15.6623 33.6719 16.0938Z" fill="#FF3B00"/>
<path d="M30.5469 12.9688C30.978 12.9688 31.3281 12.6189 31.3281 12.1875C31.3281 11.7561 30.978 11.4062 30.5469 11.4062C30.1151 11.4062 29.7656 11.7561 29.7656 12.1875C29.7656 12.6189 30.1151 12.9688 30.5469 12.9688Z" fill="#FF3B00"/>
<path d="M12.5781 5.9375C13.0092 5.9375 13.3594 5.58766 13.3594 5.15625C13.3594 4.72484 13.0092 4.375 12.5781 4.375C12.1463 4.375 11.7969 4.72484 11.7969 5.15625C11.7969 5.58766 12.1463 5.9375 12.5781 5.9375Z" fill="#FF3B00"/>
<path d="M5.54688 16.0938C5.54688 16.5252 5.89633 16.875 6.32812 16.875C6.75922 16.875 7.10938 16.5252 7.10938 16.0938C7.10938 15.6623 6.75922 15.3125 6.32812 15.3125C5.89633 15.3125 5.54688 15.6623 5.54688 16.0938Z" fill="#FF3B00"/>
<path d="M7.10938 5.15625C7.54047 5.15625 7.89062 4.80641 7.89062 4.375C7.89062 3.94359 7.54047 3.59375 7.10938 3.59375C6.67758 3.59375 6.32812 3.94359 6.32812 4.375C6.32812 4.80641 6.67758 5.15625 7.10938 5.15625Z" fill="#FF3B00"/>
</svg>
