<svg width="60" height="61" viewBox="0 0 60 61" fill="none" xmlns="http://www.w3.org/2000/svg">
<path d="M28.4588 13.055C28.0011 12.5972 27.2589 12.5972 26.8011 13.055L25.9726 13.8835L18.515 6.42533C18.0572 5.9676 17.3151 5.9676 16.8578 6.42533L6.08549 17.1977C5.62775 17.6554 5.62775 18.3976 6.08549 18.8548L13.5425 26.313L12.714 27.1415C12.2568 27.5992 12.2568 28.3414 12.714 28.7992L33.8443 49.9292C38.1851 54.2699 45.248 54.2699 49.5891 49.9292C53.9396 45.5786 53.9402 38.5365 49.5891 34.1848L28.4588 13.055ZM15.2002 24.6558L8.57115 18.0262L17.6865 8.91158L24.3155 15.5405C23.23 16.626 16.2788 23.5767 15.2002 24.6558ZM27.6303 15.5406L47.1031 35.014L41.7169 40.4001L35.8454 34.5282V28.3844C35.8454 28.0737 35.7216 27.7756 35.5019 27.5559L32.1871 24.2417C31.7294 23.784 30.9878 23.784 30.53 24.2417C30.0721 24.6994 30.0722 25.441 30.53 25.8988L33.5013 28.8703V32.1846L26.3866 25.0703C25.9294 24.6126 25.1873 24.6126 24.7294 25.0703C24.2716 25.5281 24.2717 26.2696 24.7294 26.7275L36.454 38.4519L32.7251 38.0377L29.7015 35.014C29.2437 34.5564 28.5016 34.5564 28.0443 35.014C27.5866 35.4712 27.5866 36.2133 28.0443 36.6713L31.3584 39.9861C31.5466 40.1738 31.7933 40.2928 32.0578 40.3218L39.1066 41.1047L40.0594 42.0575L34.6733 47.4437L15.2002 27.9701C18.012 25.1582 25.1899 17.9805 27.6303 15.5406ZM47.9316 48.2719C44.7855 51.4181 39.8302 51.6731 36.3871 49.0438C36.9492 48.4819 48.114 37.3177 48.7035 36.7277C51.3335 40.1705 51.0776 45.126 47.9316 48.2719Z" fill="#FF3B00"/>
<path d="M20.1797 14.7109L18.5228 16.3678L16.866 14.7109L18.5228 13.0541L20.1797 14.7109Z" fill="#FF3B00"/>
<path d="M12.7188 18.8564L14.3765 20.514L16.0335 18.8564L14.3765 17.1992L12.7188 18.8564Z" fill="#FF3B00"/>
<path d="M15.3516 44.9336C15.3516 42.995 13.7745 41.418 11.8359 41.418C9.89742 41.418 8.32031 42.995 8.32031 44.9336C8.32031 46.8722 9.8973 48.4492 11.8359 48.4492C13.7746 48.4492 15.3516 46.8722 15.3516 44.9336ZM10.6639 44.9336C10.6639 44.2874 11.1892 43.7617 11.8358 43.7617C12.4825 43.7617 13.0077 44.2874 13.0077 44.9336C13.0077 45.5798 12.4825 46.1055 11.8358 46.1055C11.1892 46.1055 10.6639 45.5798 10.6639 44.9336Z" fill="#FF3B00"/>
<path d="M51.6797 15.6367C49.095 15.6367 46.9922 17.7395 46.9922 20.3242C46.9922 22.9089 49.095 25.0117 51.6797 25.0117C54.2644 25.0117 56.3672 22.9088 56.3672 20.3242C56.3672 17.7396 54.2644 15.6367 51.6797 15.6367ZM51.6797 22.668C50.3871 22.668 49.3359 21.6168 49.3359 20.3242C49.3359 19.0316 50.3871 17.9805 51.6797 17.9805C52.9723 17.9805 54.0234 19.0316 54.0234 20.3242C54.0234 21.6168 52.9723 22.668 51.6797 22.668Z" fill="#FF3B00"/>
<path d="M37.0312 12.1211C39.2926 12.1211 41.1329 10.2809 41.1329 8.01953C41.1329 5.75758 39.2926 3.91797 37.0312 3.91797C34.7699 3.91797 32.9297 5.75758 32.9297 8.01953C32.9297 10.2809 34.7699 12.1211 37.0312 12.1211ZM37.0312 6.26172C38.0005 6.26172 38.7891 7.05027 38.7891 8.01953C38.7891 8.98891 38.0005 9.77734 37.0312 9.77734C36.062 9.77734 35.2734 8.98879 35.2734 8.01953C35.2734 7.05016 36.062 6.26172 37.0312 6.26172Z" fill="#FF3B00"/>
<path d="M5.97656 36.7305C6.62377 36.7305 7.14844 36.2058 7.14844 35.5586C7.14844 34.9114 6.62377 34.3867 5.97656 34.3867C5.32935 34.3867 4.80469 34.9114 4.80469 35.5586C4.80469 36.2058 5.32935 36.7305 5.97656 36.7305Z" fill="#FF3B00"/>
<path d="M24.7266 49.6211C25.3738 49.6211 25.8984 49.0964 25.8984 48.4492C25.8984 47.802 25.3738 47.2773 24.7266 47.2773C24.0794 47.2773 23.5547 47.802 23.5547 48.4492C23.5547 49.0964 24.0794 49.6211 24.7266 49.6211Z" fill="#FF3B00"/>
<path d="M52.8516 30.8711C53.4988 30.8711 54.0234 30.3464 54.0234 29.6992C54.0234 29.052 53.4988 28.5273 52.8516 28.5273C52.2044 28.5273 51.6797 29.052 51.6797 29.6992C51.6797 30.3464 52.2044 30.8711 52.8516 30.8711Z" fill="#FF3B00"/>
<path d="M48.1641 9.77734C48.8113 9.77734 49.3359 9.25268 49.3359 8.60547C49.3359 7.95826 48.8113 7.43359 48.1641 7.43359C47.5169 7.43359 46.9922 7.95826 46.9922 8.60547C46.9922 9.25268 47.5169 9.77734 48.1641 9.77734Z" fill="#FF3B00"/>
<path d="M25.8984 34.3867C26.5456 34.3867 27.0703 33.8621 27.0703 33.2148C27.0703 32.5676 26.5456 32.043 25.8984 32.043C25.2512 32.043 24.7266 32.5676 24.7266 33.2148C24.7266 33.8621 25.2512 34.3867 25.8984 34.3867Z" fill="#FF3B00"/>
<path d="M24.7266 6.26172C25.3738 6.26172 25.8984 5.73705 25.8984 5.08984C25.8984 4.44264 25.3738 3.91797 24.7266 3.91797C24.0794 3.91797 23.5547 4.44264 23.5547 5.08984C23.5547 5.73705 24.0794 6.26172 24.7266 6.26172Z" fill="#FF3B00"/>
<path d="M50.508 54.3086H9.49219C8.84508 54.3086 8.32031 54.8335 8.32031 55.4805C8.32031 56.1276 8.84508 56.6523 9.49219 56.6523H50.508C51.1552 56.6523 51.6799 56.1276 51.6799 55.4805C51.6799 54.8334 51.1552 54.3086 50.508 54.3086Z" fill="#FF3B00"/>
<path d="M18.8672 51.9648C18.8672 51.3179 18.3424 50.793 17.6953 50.793H4.80469C4.15758 50.793 3.63281 51.3179 3.63281 51.9648C3.63281 52.6121 4.15758 53.1368 4.80469 53.1368H17.6953C18.3424 53.1368 18.8672 52.6121 18.8672 51.9648Z" fill="#FF3B00"/>
</svg>
