<svg width="40" height="40" viewBox="0 0 40 40" fill="none" xmlns="http://www.w3.org/2000/svg">
<path d="M6.32812 5.15625C6.7596 5.15625 7.10938 4.80647 7.10938 4.375C7.10938 3.94353 6.7596 3.59375 6.32812 3.59375C5.89665 3.59375 5.54688 3.94353 5.54688 4.375C5.54688 4.80647 5.89665 5.15625 6.32812 5.15625Z" fill="#FF3B00"/>
<path d="M12.5781 4.375C13.0096 4.375 13.3594 4.02522 13.3594 3.59375C13.3594 3.16228 13.0096 2.8125 12.5781 2.8125C12.1467 2.8125 11.7969 3.16228 11.7969 3.59375C11.7969 4.02522 12.1467 4.375 12.5781 4.375Z" fill="#FF3B00"/>
<path d="M33.6719 10.625C33.6719 11.0564 34.0213 11.4062 34.4531 11.4062C34.8842 11.4062 35.2344 11.0564 35.2344 10.625C35.2344 10.1936 34.8842 9.84375 34.4531 9.84375C34.0213 9.84375 33.6719 10.1936 33.6719 10.625Z" fill="#FF3B00"/>
<path d="M2.31973 35.6178C2.40598 35.6292 1.03184 35.6251 32.1098 35.6251C32.4569 35.6251 32.7622 35.3958 32.8598 35.0624C33.11 34.2037 38.1501 16.9242 38.3286 16.3123C38.4743 15.8126 38.0981 15.3125 37.5786 15.3125H32.8911V12.1875C32.8911 11.7561 32.5409 11.4062 32.1098 11.4062H29.7661V2.8125C29.7661 2.38109 29.4159 2.03125 28.9848 2.03125H24.2972C23.8654 2.03125 23.516 2.38109 23.516 2.8125V11.4062H16.721L12.2304 8.4125C12.1022 8.32664 11.9511 8.28125 11.797 8.28125H2.422C1.99059 8.28125 1.64075 8.63109 1.64075 9.0625C1.64075 13.9461 1.63997 34.8214 1.64231 34.8767C1.65825 35.2501 1.93598 35.5652 2.31973 35.6178ZM31.5239 34.0625H3.46341L8.47669 16.875H23.516V19.2187H12.5782C12.1468 19.2187 11.797 19.5686 11.797 20C11.797 20.4315 12.1468 20.7812 12.5782 20.7812H23.516V23.6716H21.9535C21.6285 23.6716 21.3378 23.8727 21.2227 24.1767C21.1074 24.4805 21.1929 24.8237 21.4362 25.0384L26.1237 29.1793C26.419 29.4402 26.8622 29.4402 27.1583 29.1793L31.8458 25.0384C32.0892 24.8237 32.1739 24.4802 32.0587 24.1767C31.9443 23.8727 31.6529 23.6716 31.3286 23.6716H29.7661V20.7812H35.3973L31.5239 34.0625ZM29.264 25.2341L26.641 27.5511L24.018 25.2341H29.264ZM28.2036 23.6716H25.0785V10.6249H28.2036V23.6716ZM28.2036 9.06242H25.0785V8.28117H28.2036V9.06242ZM35.8528 19.2187H29.7661V16.875H36.5364L35.8528 19.2187ZM31.3286 12.9687V15.3124H29.7661V12.9687H31.3286ZM28.2036 3.59367V6.71867H25.0785V3.59367H28.2036ZM11.5605 9.84367L16.0511 12.8374C16.1793 12.9229 16.3304 12.9687 16.4845 12.9687H23.516V15.3124C6.82106 15.3128 7.87552 15.3105 7.8145 15.3166C7.50091 15.3479 7.23083 15.5646 7.14075 15.8751L3.20325 29.375V9.84367H11.5605Z" fill="#FF3B00"/>
<path d="M4.76562 11.4062H6.32813V12.9688H4.76562V11.4062Z" fill="#FF3B00"/>
<path d="M7.10938 11.4062H8.67188V12.9688H7.10938V11.4062Z" fill="#FF3B00"/>
<path d="M9.45312 11.4062H11.0156V12.9688H9.45312V11.4062Z" fill="#FF3B00"/>
<path d="M8.67188 23.125H18.0469V24.6875H8.67188V23.125Z" fill="#FF3B00"/>
<path d="M8.67188 25.4688H18.0469V27.0312H8.67188V25.4688Z" fill="#FF3B00"/>
<path d="M8.67188 27.8125H12.5781V29.375H8.67188V27.8125Z" fill="#FF3B00"/>
<path d="M18.0469 9.0625C19.3393 9.0625 20.3906 8.01078 20.3906 6.71875C20.3906 5.42633 19.3393 4.375 18.0469 4.375C16.7545 4.375 15.7031 5.42641 15.7031 6.71875C15.703 8.01078 16.7544 9.0625 18.0469 9.0625ZM18.0469 5.9375C18.4776 5.9375 18.8281 6.28805 18.8281 6.71875C18.8281 7.14945 18.4776 7.5 18.0469 7.5C17.6158 7.5 17.2656 7.14945 17.2656 6.71875C17.2656 6.28805 17.6158 5.9375 18.0469 5.9375Z" fill="#FF3B00"/>
<path d="M34.8438 8.28125C36.3513 8.28125 37.5781 7.05445 37.5781 5.54688C37.5781 4.03891 36.3513 2.8125 34.8438 2.8125C33.3362 2.8125 32.1094 4.03891 32.1094 5.54688C32.1094 7.05445 33.3362 8.28125 34.8438 8.28125ZM34.8438 4.375C35.4899 4.375 36.0156 4.9007 36.0156 5.54688C36.0156 6.19305 35.4899 6.71875 34.8438 6.71875C34.1976 6.71875 33.6719 6.19305 33.6719 5.54688C33.6719 4.90062 34.1976 4.375 34.8438 4.375Z" fill="#FF3B00"/>
<path d="M37.5784 36.4062H2.42188C1.99047 36.4062 1.64062 36.7562 1.64062 37.1875C1.64062 37.6189 1.99047 37.9688 2.42188 37.9688H37.5784C38.0095 37.9688 38.3597 37.6189 38.3597 37.1875C38.3597 36.7561 38.0095 36.4062 37.5784 36.4062Z" fill="#FF3B00"/>
</svg>
