<svg width="40" height="40" viewBox="0 0 40 40" fill="none" xmlns="http://www.w3.org/2000/svg">
<path d="M13.3594 31.7188C13.7908 31.7188 14.1406 31.369 14.1406 30.9375C14.1406 30.506 13.7908 30.1562 13.3594 30.1562C12.9279 30.1562 12.5781 30.506 12.5781 30.9375C12.5781 31.369 12.9279 31.7188 13.3594 31.7188Z" fill="#FF3B00"/>
<path d="M25.0781 33.2812C25.5096 33.2812 25.8594 32.9315 25.8594 32.5C25.8594 32.0685 25.5096 31.7188 25.0781 31.7188C24.6467 31.7188 24.2969 32.0685 24.2969 32.5C24.2969 32.9315 24.6467 33.2812 25.0781 33.2812Z" fill="#FF3B00"/>
<path d="M26.6406 6.71875C27.0721 6.71875 27.4219 6.36897 27.4219 5.9375C27.4219 5.50603 27.0721 5.15625 26.6406 5.15625C26.2092 5.15625 25.8594 5.50603 25.8594 5.9375C25.8594 6.36897 26.2092 6.71875 26.6406 6.71875Z" fill="#FF3B00"/>
<path d="M19.6094 8.28125C20.0408 8.28125 20.3906 7.93147 20.3906 7.5C20.3906 7.06853 20.0408 6.71875 19.6094 6.71875C19.1779 6.71875 18.8281 7.06853 18.8281 7.5C18.8281 7.93147 19.1779 8.28125 19.6094 8.28125Z" fill="#FF3B00"/>
<path d="M14.1406 5.15625C14.5721 5.15625 14.9219 4.80647 14.9219 4.375C14.9219 3.94353 14.5721 3.59375 14.1406 3.59375C13.7092 3.59375 13.3594 3.94353 13.3594 4.375C13.3594 4.80647 13.7092 5.15625 14.1406 5.15625Z" fill="#FF3B00"/>
<path d="M3.20313 12.9688C3.6346 12.9688 3.98438 12.619 3.98438 12.1875C3.98438 11.756 3.6346 11.4062 3.20313 11.4062C2.77165 11.4062 2.42188 11.756 2.42188 12.1875C2.42188 12.619 2.77165 12.9688 3.20313 12.9688Z" fill="#FF3B00"/>
<path d="M32.305 29.3751C35.6436 29.3751 38.3597 26.659 38.3597 23.3204C38.3597 20.9031 36.9212 18.7312 34.7338 17.7741C34.1918 14.9474 31.716 12.8711 28.7894 12.8711C27.8993 12.8711 27.0247 13.066 26.2262 13.4391C24.6523 11.9202 22.3501 11.5997 20.4731 12.4648C18.9907 10.0177 16.3014 8.47656 13.4083 8.47656C8.46633 8.47656 4.58258 12.8295 5.22492 17.7905C3.05586 18.7545 1.64062 20.8988 1.64062 23.3204C1.64062 26.659 4.35672 29.3751 7.69531 29.3751H15.7032V35.6252C15.7032 36.0566 16.053 36.4064 16.4845 36.4064H21.172C21.6033 36.4064 21.9532 36.0566 21.9532 35.6252V29.3751H32.305ZM7.69547 27.8126C5.2182 27.8126 3.20328 25.7973 3.20328 23.3204C3.20328 21.352 4.46328 19.6304 6.33859 19.0368C6.72195 18.9155 6.95086 18.523 6.86695 18.1297C5.97352 13.935 9.18898 10.0391 13.4084 10.0391C15.9811 10.0391 18.3554 11.5428 19.457 13.8702C19.6623 14.3035 20.2071 14.4515 20.6038 14.181C22.1335 13.1373 24.248 13.4101 25.4516 14.9031C25.6973 15.2076 26.1302 15.2839 26.4648 15.0809C27.1637 14.6574 27.9673 14.4335 28.7895 14.4335C31.081 14.4335 32.9998 16.1487 33.2531 18.423C33.2863 18.7224 33.489 18.9765 33.7738 19.0749C35.5823 19.7006 36.7973 21.407 36.7973 23.3204C36.7973 25.7973 34.782 27.8126 32.3051 27.8126H21.9534V25.4688H24.2971C24.6241 25.4688 24.9163 25.2652 25.0299 24.9584C25.1432 24.6521 25.0541 24.3073 24.8056 24.0944L19.3369 19.4069C19.0443 19.1559 18.6125 19.1559 18.3198 19.4069L12.8511 24.0944C12.6027 24.3073 12.5135 24.6521 12.6268 24.9584C12.7401 25.2652 13.0327 25.4688 13.3596 25.4688H15.7034V27.8126H7.69547ZM15.4714 23.9063L18.8284 21.0289L22.1853 23.9063C20.728 23.9063 16.9909 23.9063 15.4714 23.9063ZM20.3909 34.8439H17.2659V25.4688H20.3909V34.8439Z" fill="#FF3B00"/>
<path d="M14.1406 12.3828C14.1406 11.9514 13.7908 11.6016 13.3594 11.6016C10.7745 11.6016 8.67188 13.7042 8.67188 16.2891C8.67188 16.7205 9.02172 17.0703 9.45312 17.0703C9.88453 17.0703 10.2344 16.7205 10.2344 16.2891C10.2344 14.5659 11.6362 13.1641 13.3594 13.1641C13.7908 13.1641 14.1406 12.8142 14.1406 12.3828Z" fill="#FF3B00"/>
<path d="M7.89062 31.7188C6.5982 31.7188 5.54688 32.7701 5.54688 34.0625C5.54688 35.355 6.5982 36.4063 7.89062 36.4063C9.18305 36.4063 10.2344 35.355 10.2344 34.0625C10.2345 32.7701 9.18305 31.7188 7.89062 31.7188ZM7.89062 34.8438C7.45953 34.8438 7.10938 34.4933 7.10938 34.0625C7.10938 33.6319 7.45953 33.2812 7.89062 33.2812C8.32172 33.2812 8.67188 33.6319 8.67188 34.0625C8.67188 34.4933 8.32172 34.8438 7.89062 34.8438Z" fill="#FF3B00"/>
<path d="M34.4531 30.9375C33.1607 30.9375 32.1094 31.9888 32.1094 33.2812C32.1094 34.5737 33.1607 35.6251 34.4531 35.6251C35.7455 35.6251 36.7969 34.5737 36.7969 33.2812C36.7969 31.9888 35.7455 30.9375 34.4531 30.9375ZM34.4531 34.0625C34.0224 34.0625 33.6719 33.712 33.6719 33.2812C33.6719 32.8506 34.0224 32.5 34.4531 32.5C34.8838 32.5 35.2344 32.8506 35.2344 33.2812C35.2344 33.712 34.8838 34.0625 34.4531 34.0625Z" fill="#FF3B00"/>
<path d="M32.8906 10.625C34.6137 10.625 36.0156 9.22312 36.0156 7.5C36.0156 5.77688 34.6137 4.375 32.8906 4.375C31.1675 4.375 29.7656 5.77695 29.7656 7.5C29.7656 9.22305 31.1675 10.625 32.8906 10.625ZM32.8906 5.9375C33.7523 5.9375 34.4531 6.63828 34.4531 7.5C34.4531 8.36172 33.7523 9.0625 32.8906 9.0625C32.0289 9.0625 31.3281 8.36172 31.3281 7.5C31.3281 6.63828 32.0289 5.9375 32.8906 5.9375Z" fill="#FF3B00"/>
<path d="M4.76563 8.28125C6.05805 8.28125 7.10938 7.22953 7.10938 5.9375C7.10938 4.64508 6.05805 3.59375 4.76563 3.59375C3.4732 3.59375 2.42188 4.64508 2.42188 5.9375C2.42188 7.22953 3.4732 8.28125 4.76563 8.28125ZM4.76563 5.15625C5.19672 5.15625 5.54688 5.50688 5.54688 5.9375C5.54688 6.36812 5.19672 6.71875 4.76563 6.71875C4.33453 6.71875 3.98438 6.3682 3.98438 5.9375C3.98438 5.5068 4.33453 5.15625 4.76563 5.15625Z" fill="#FF3B00"/>
</svg>
