<svg width="90" height="54" viewBox="0 0 90 54" fill="none" xmlns="http://www.w3.org/2000/svg">
<path d="M45.1297 0.273438C38.3287 0.273438 32.7969 6.11816 32.7969 13.3041C32.7969 20.4883 38.3287 26.333 45.1297 26.333C51.9307 26.333 57.4625 20.4883 57.4625 13.3041C57.4625 6.11816 51.9307 0.273438 45.1297 0.273438ZM45.1297 21.0596C41.2361 21.0596 38.0703 17.5809 38.0703 13.3041C38.0703 9.02734 41.2361 5.54688 45.1297 5.54688C49.0232 5.54688 52.1891 9.02734 52.1891 13.3041C52.1891 17.5809 49.0232 21.0596 45.1297 21.0596ZM71.3896 2.02598H71.3053C65.4061 2.0752 60.6494 7.17461 60.7004 13.392C60.7514 19.5795 65.5449 24.5805 71.4072 24.5805H71.4916C74.3832 24.5559 77.0832 23.3377 79.0924 21.1492C81.0541 19.01 82.1211 16.1922 82.0965 13.2145C82.0455 7.02695 77.252 2.02598 71.3896 2.02598ZM75.2059 17.5826C74.1969 18.683 72.8627 19.2947 71.4477 19.307H71.4072C68.4348 19.307 66.0002 16.6439 65.9738 13.348C65.9457 10.0381 68.3574 7.32402 71.3492 7.29941H71.3896C74.3621 7.29941 76.7967 9.96426 76.823 13.2584C76.8371 14.8967 76.2623 16.433 75.2059 17.5826Z" fill="#FF3B00"/>
<path d="M74.127 25.9002H68.6777C64.4854 25.9002 60.6674 27.535 57.8285 30.1998C55.0652 28.565 51.8467 27.6264 48.4102 27.6264H41.8553C38.352 27.6264 35.0719 28.602 32.2752 30.2947C29.424 27.5736 25.5656 25.9002 21.3223 25.9002H15.873C7.1209 25.9002 0 33.0211 0 41.7732V48.4934H23.298V53.7299H66.9674V48.4934H90V41.7732C90 33.0211 82.8791 25.9002 74.127 25.9002ZM23.5354 43.2199H5.27344V41.7732C5.27344 35.9285 10.0283 31.1736 15.873 31.1736H21.3223C23.9238 31.1736 26.3092 32.1158 28.1566 33.6785C25.7713 36.2871 24.1207 39.5777 23.5354 43.2199ZM61.6939 48.4564H28.5715V46.1836C28.569 43.2801 29.5221 40.4566 31.2838 38.1486C32.4079 36.6715 33.828 35.4453 35.4533 34.5486C37.3535 33.4975 39.5367 32.8998 41.8553 32.8998H48.4102C50.6479 32.8998 52.7555 33.4553 54.6064 34.4361C56.2299 35.2965 57.6583 36.4825 58.8023 37.9201C60.0423 39.4721 60.9165 41.2836 61.36 43.2199C61.5779 44.1727 61.6939 45.1658 61.6939 46.1836V48.4564ZM84.7266 43.2199H66.7301C66.1342 39.5197 64.4396 36.1816 61.9945 33.552C63.8191 32.0648 66.1465 31.1736 68.6777 31.1736H74.127C79.9717 31.1736 84.7266 35.9285 84.7266 41.7732V43.2199ZM18.5889 2.02734H18.5045C12.6053 2.07656 7.84863 7.17598 7.89961 13.3934C7.95059 19.5809 12.7441 24.5818 18.6064 24.5818H18.6908C21.5824 24.5572 24.2824 23.3391 26.2916 21.1506C28.2533 19.0113 29.3203 16.1936 29.2957 13.2158C29.2447 7.02832 24.4512 2.02734 18.5889 2.02734ZM22.4051 17.584C21.3961 18.6844 20.0619 19.2961 18.6469 19.3084H18.6064C15.634 19.3084 13.1994 16.6453 13.173 13.3494C13.1449 10.0395 15.5566 7.32539 18.5484 7.30078H18.5889C21.5613 7.30078 23.9959 9.96563 24.0223 13.2598C24.0363 14.898 23.4615 16.4344 22.4051 17.584Z" fill="#FF3B00"/>
</svg>
