<svg width="54" height="52" viewBox="0 0 54 52" fill="none" xmlns="http://www.w3.org/2000/svg">
<path d="M24.6562 17.2109H28.1719C28.819 17.2109 29.3438 16.6862 29.3438 16.0391C29.3438 15.392 28.819 14.8672 28.1719 14.8672H24.6562C24.0091 14.8672 23.4844 15.392 23.4844 16.0391C23.4844 16.6862 24.0091 17.2109 24.6562 17.2109Z" fill="#05091D"/>
<path d="M48.094 48.8518H43.4065V15.9218C43.4065 13.4018 41.3563 11.3516 38.8362 11.3516H13.9922C11.4722 11.3516 9.42188 13.4018 9.42188 15.9218V48.8518H4.73438C4.08727 48.8518 3.5625 49.3766 3.5625 50.0237C3.5625 50.6708 4.08727 51.1955 4.73438 51.1955H48.094C48.7411 51.1955 49.2659 50.6708 49.2659 50.0237C49.2659 49.3766 48.7411 48.8518 48.094 48.8518ZM11.7657 15.9218C11.7657 14.6938 12.7648 13.6953 13.9922 13.6953H38.8362C40.0637 13.6953 41.0627 14.6939 41.0627 15.9218V48.8518H38.719V19.5548C38.719 18.9077 38.1941 18.3829 37.5471 18.3829H15.2814C14.6343 18.3829 14.1095 18.9077 14.1095 19.5548V48.8518H11.7657V15.9218ZM36.3751 48.8518H16.4532V20.7267H36.3751V48.8518Z" fill="#05091D"/>
<path d="M19.9688 4.32031C20.616 4.32031 21.1406 3.79565 21.1406 3.14844C21.1406 2.50123 20.616 1.97656 19.9688 1.97656C19.3215 1.97656 18.7969 2.50123 18.7969 3.14844C18.7969 3.79565 19.3215 4.32031 19.9688 4.32031Z" fill="#05091D"/>
<path d="M32.8594 6.66406C33.5066 6.66406 34.0312 6.1394 34.0312 5.49219C34.0312 4.84498 33.5066 4.32031 32.8594 4.32031C32.2122 4.32031 31.6875 4.84498 31.6875 5.49219C31.6875 6.1394 32.2122 6.66406 32.8594 6.66406Z" fill="#05091D"/>
<path d="M49.2656 23.0703C49.9128 23.0703 50.4375 22.5456 50.4375 21.8984C50.4375 21.2512 49.9128 20.7266 49.2656 20.7266C48.6184 20.7266 48.0938 21.2512 48.0938 21.8984C48.0938 22.5456 48.6184 23.0703 49.2656 23.0703Z" fill="#05091D"/>
<path d="M3.5625 31.2734C4.20971 31.2734 4.73438 30.7488 4.73438 30.1016C4.73438 29.4544 4.20971 28.9297 3.5625 28.9297C2.91529 28.9297 2.39062 29.4544 2.39062 30.1016C2.39062 30.7488 2.91529 31.2734 3.5625 31.2734Z" fill="#05091D"/>
<path d="M19.9688 24.2422H22.3125V26.5859H19.9688V24.2422Z" fill="#05091D"/>
<path d="M23.4844 24.2422H25.8281V26.5859H23.4844V24.2422Z" fill="#05091D"/>
<path d="M27 24.2422H29.3438V26.5859H27V24.2422Z" fill="#05091D"/>
<path d="M30.5156 24.2422H32.8594V26.5859H30.5156V24.2422Z" fill="#05091D"/>
<path d="M19.9688 27.7578H22.3125V30.1016H19.9688V27.7578Z" fill="#05091D"/>
<path d="M23.4844 27.7578H25.8281V30.1016H23.4844V27.7578Z" fill="#05091D"/>
<path d="M27 27.7578H29.3438V30.1016H27V27.7578Z" fill="#05091D"/>
<path d="M30.5156 27.7578H32.8594V30.1016H30.5156V27.7578Z" fill="#05091D"/>
<path d="M19.9688 31.2734H22.3125V33.6172H19.9688V31.2734Z" fill="#05091D"/>
<path d="M23.4844 31.2734H25.8281V33.6172H23.4844V31.2734Z" fill="#05091D"/>
<path d="M27 31.2734H29.3438V33.6172H27V31.2734Z" fill="#05091D"/>
<path d="M30.5156 31.2734H32.8594V33.6172H30.5156V31.2734Z" fill="#05091D"/>
<path d="M19.9688 34.7891H22.3125V37.1328H19.9688V34.7891Z" fill="#05091D"/>
<path d="M23.4844 34.7891H25.8281V37.1328H23.4844V34.7891Z" fill="#05091D"/>
<path d="M27 34.7891H29.3438V37.1328H27V34.7891Z" fill="#05091D"/>
<path d="M30.5156 34.7891H32.8594V37.1328H30.5156V34.7891Z" fill="#05091D"/>
<path d="M19.9688 38.3047H22.3125V40.6484H19.9688V38.3047Z" fill="#05091D"/>
<path d="M23.4844 38.3047H25.8281V40.6484H23.4844V38.3047Z" fill="#05091D"/>
<path d="M27 38.3047H29.3438V40.6484H27V38.3047Z" fill="#05091D"/>
<path d="M30.5156 38.3047H32.8594V40.6484H30.5156V38.3047Z" fill="#05091D"/>
<path d="M7.07812 16.0391C7.07812 14.1004 5.50113 12.5234 3.5625 12.5234C1.62387 12.5234 0.046875 14.1004 0.046875 16.0391C0.046875 17.9771 1.62387 19.5547 3.5625 19.5547C5.50113 19.5547 7.07812 17.9771 7.07812 16.0391ZM2.39063 16.0391C2.39063 15.393 2.91586 14.8672 3.5625 14.8672C4.20914 14.8672 4.73438 15.393 4.73438 16.0391C4.73438 16.6851 4.20914 17.2109 3.5625 17.2109C2.91586 17.2109 2.39063 16.6851 2.39063 16.0391Z" fill="#05091D"/>
<path d="M50.4375 32.4453C48.4989 32.4453 46.9219 34.0223 46.9219 35.9609C46.9219 37.8996 48.4989 39.4766 50.4375 39.4766C52.3761 39.4766 53.9531 37.8996 53.9531 35.9609C53.9531 34.0223 52.3761 32.4453 50.4375 32.4453ZM50.4375 37.1328C49.7914 37.1328 49.2656 36.6071 49.2656 35.9609C49.2656 35.3148 49.7914 34.7891 50.4375 34.7891C51.0836 34.7891 51.6094 35.3148 51.6094 35.9609C51.6094 36.6071 51.0836 37.1328 50.4375 37.1328Z" fill="#05091D"/>
<path d="M46.3359 9.00781C48.5973 9.00781 50.4375 7.16762 50.4375 4.90625C50.4375 2.6443 48.5973 0.804688 46.3359 0.804688C44.0746 0.804688 42.2344 2.6443 42.2344 4.90625C42.2344 7.16762 44.0746 9.00781 46.3359 9.00781ZM46.3359 3.14844C47.3052 3.14844 48.0938 3.93699 48.0938 4.90625C48.0938 5.87551 47.3052 6.66406 46.3359 6.66406C45.3667 6.66406 44.5781 5.87551 44.5781 4.90625C44.5781 3.93687 45.3667 3.14844 46.3359 3.14844Z" fill="#05091D"/>
</svg>
